<svg width="120" height="120" viewBox="0 0 120 120" fill="none" xmlns="http://www.w3.org/2000/svg">
<path d="M120 60.017C120 26.8515 93.1298 0 60.017 0C26.9042 0 0 26.8515 0 60.017C0 89.9915 21.9508 114.84 50.6531 119.321V77.3635H35.3181V60.017H50.6531V46.7779C50.6531 31.7397 59.542 23.389 73.2485 23.389C79.7964 23.389 86.6158 24.645 86.6158 24.645V39.3098H79.1179C71.6539 39.3098 69.279 43.9943 69.279 48.7129V59.983H85.9372L83.257 77.3296H69.2451V119.287C98.0153 114.84 120 89.9915 120 60.017V60.017Z" fill="#1877F2"/>
</svg>
