<svg width="150" height="150" viewBox="0 0 150 150" fill="none" xmlns="http://www.w3.org/2000/svg">
<path d="M74.71 0C33.4541 0 0 34.3835 0 76.7987C0 110.731 21.4066 139.519 51.0914 149.674C54.825 150.384 56.1961 148.007 56.1961 145.979C56.1961 144.148 56.1264 138.097 56.0948 131.681C35.3098 136.326 30.924 122.619 30.924 122.619C27.5256 113.742 22.6289 111.383 22.6289 111.383C15.8507 106.616 23.1399 106.713 23.1399 106.713C30.6422 107.255 34.5926 114.628 34.5926 114.628C41.2559 126.369 52.0699 122.974 56.3332 121.012C57.0035 116.048 58.9401 112.661 61.0764 110.743C44.4826 108.8 27.0381 102.215 27.0381 72.7881C27.0381 64.4037 29.9566 57.5523 34.7361 52.1742C33.9604 50.2396 31.4033 42.4287 35.4597 31.8501C35.4597 31.8501 41.7334 29.7859 56.0104 39.7224C61.9693 38.0203 68.3606 37.1674 74.71 37.1385C81.0594 37.1674 87.455 38.0203 93.4262 39.7224C107.686 29.7859 113.951 31.8501 113.951 31.8501C118.017 42.4287 115.459 50.2396 114.683 52.1742C119.473 57.5523 122.372 64.4031 122.372 72.7881C122.372 102.285 104.894 108.78 88.2588 110.681C90.9381 113.064 93.3256 117.739 93.3256 124.903C93.3256 135.179 93.2394 143.449 93.2394 145.979C93.2394 148.022 94.5837 150.417 98.3712 149.663C128.039 139.497 149.419 110.72 149.419 76.7987C149.419 34.3835 115.97 0 74.71 0Z" fill="#161614"/>
<path d="M27.9814 109.402C27.8174 109.783 27.2326 109.897 26.7012 109.636C26.1592 109.386 25.8545 108.865 26.0303 108.482C26.1914 108.089 26.7762 107.98 27.317 108.244C27.8602 108.494 28.1696 109.019 27.9814 109.402ZM31.6564 112.773C31.3002 113.113 30.6036 112.954 30.1307 112.417C29.642 111.882 29.5506 111.167 29.9121 110.822C30.2795 110.482 30.9551 110.641 31.4449 111.177C31.9336 111.718 32.0286 112.43 31.6559 112.773L31.6564 112.773ZM34.1778 117.085C33.7196 117.412 32.9708 117.106 32.5084 116.422C32.0508 115.74 32.0508 114.921 32.5184 114.593C32.9824 114.264 33.7196 114.559 34.1883 115.237C34.6453 115.932 34.6453 116.751 34.1772 117.086L34.1778 117.085ZM38.4411 122.08C38.0315 122.544 37.1596 122.42 36.5209 121.786C35.8682 121.167 35.6859 120.288 36.0967 119.824C36.5109 119.359 37.3881 119.489 38.0315 120.118C38.6801 120.736 38.8782 121.621 38.4416 122.08H38.4411ZM43.9512 123.767C43.7713 124.367 42.9311 124.641 42.085 124.386C41.2401 124.122 40.6869 123.418 40.8574 122.81C41.0333 122.205 41.877 121.92 42.7296 122.193C43.5733 122.456 44.1276 123.155 43.9518 123.767H43.9512ZM50.2231 124.482C50.2442 125.115 49.5264 125.641 48.6381 125.652C47.7446 125.672 47.0221 125.159 47.0128 124.536C47.0128 123.897 47.7141 123.376 48.6071 123.361C49.4954 123.343 50.2231 123.852 50.2231 124.482ZM56.3836 124.239C56.4903 124.857 55.8727 125.492 54.9909 125.661C54.1237 125.823 53.3209 125.442 53.2102 124.829C53.1024 124.196 53.7317 123.561 54.5971 123.397C55.4807 123.239 56.2711 123.611 56.3836 124.239Z" fill="#161614"/>
</svg>
