<svg width="120" height="120" viewBox="0 0 120 120" fill="none" xmlns="http://www.w3.org/2000/svg">
<path d="M30.4289 119.576C23.2924 119.251 19.4157 118.063 16.8372 117.058C13.4205 115.727 10.9846 114.144 8.42036 111.583C5.85609 109.022 4.26903 106.587 2.94588 103.17C1.94014 100.591 0.752519 96.7147 0.427973 89.5783C0.0713288 81.8641 0 79.5494 0 60.0054C0 40.4613 0.0784617 38.1502 0.424406 30.4289C0.748952 23.2924 1.94371 19.4228 2.94231 16.8372C4.27259 13.4205 5.85966 10.9846 8.4168 8.4168C10.9775 5.85609 13.4134 4.26546 16.8336 2.94231C19.4121 1.93658 23.2889 0.748952 30.4253 0.424406C38.1431 0.0713288 40.4613 0 59.9982 0C79.5423 0 81.8534 0.0784617 89.5747 0.424406C96.7112 0.748952 100.581 1.94371 103.166 2.94231C106.583 4.26546 109.019 5.85609 111.583 8.4168C114.147 10.9775 115.727 13.4169 117.058 16.8336C118.063 19.4121 119.251 23.2889 119.576 30.4253C119.929 38.1466 120 40.4577 120 60.0018C120 79.5387 119.929 81.8569 119.576 89.5783C119.251 96.7147 118.056 100.591 117.058 103.17C115.727 106.587 114.144 109.022 111.583 111.583C109.022 114.144 106.583 115.727 103.166 117.058C100.588 118.063 96.7112 119.251 89.5747 119.576C81.8605 119.929 79.5423 120 59.9982 120C40.4613 120 38.1431 119.932 30.4289 119.576" fill="url(#paint0_radial_5_32)"/>
<path d="M30.4289 119.576C23.2924 119.251 19.4157 118.063 16.8372 117.058C13.4205 115.727 10.9846 114.144 8.42036 111.583C5.85609 109.022 4.26903 106.587 2.94588 103.17C1.94014 100.591 0.752519 96.7147 0.427973 89.5783C0.0713288 81.8641 0 79.5494 0 60.0054C0 40.4613 0.0784617 38.1502 0.424406 30.4289C0.748952 23.2924 1.94371 19.4228 2.94231 16.8372C4.27259 13.4205 5.85966 10.9846 8.4168 8.4168C10.9775 5.85609 13.4134 4.26546 16.8336 2.94231C19.4121 1.93658 23.2889 0.748952 30.4253 0.424406C38.1431 0.0713288 40.4613 0 59.9982 0C79.5423 0 81.8534 0.0784617 89.5747 0.424406C96.7112 0.748952 100.581 1.94371 103.166 2.94231C106.583 4.26546 109.019 5.85609 111.583 8.4168C114.147 10.9775 115.727 13.4169 117.058 16.8336C118.063 19.4121 119.251 23.2889 119.576 30.4253C119.929 38.1466 120 40.4577 120 60.0018C120 79.5387 119.929 81.8569 119.576 89.5783C119.251 96.7147 118.056 100.591 117.058 103.17C115.727 106.587 114.144 109.022 111.583 111.583C109.022 114.144 106.583 115.727 103.166 117.058C100.588 118.063 96.7112 119.251 89.5747 119.576C81.8605 119.929 79.5423 120 59.9982 120C40.4613 120 38.1431 119.932 30.4289 119.576" fill="url(#paint1_radial_5_32)"/>
<path d="M45.267 60.2556C45.267 52.0489 51.918 45.3943 60.1248 45.3943C68.3315 45.3943 74.9861 52.0489 74.9861 60.2556C74.9861 68.4624 68.3315 75.117 60.1248 75.117C51.918 75.117 45.267 68.4624 45.267 60.2556V60.2556ZM37.2332 60.2556C37.2332 72.8986 47.4818 83.1471 60.1248 83.1471C72.7678 83.1471 83.0163 72.8986 83.0163 60.2556C83.0163 47.6126 72.7678 37.3641 60.1248 37.3641C47.4818 37.3641 37.2336 47.6119 37.2336 60.2556H37.2332ZM78.5732 36.4565C78.5728 37.5145 78.8862 38.549 79.4736 39.4289C80.0611 40.3089 80.8963 40.9949 81.8737 41.4002C82.8511 41.8055 83.9267 41.9119 84.9645 41.7059C86.0023 41.4999 86.9557 40.9908 87.7042 40.2429C88.4526 39.495 88.9625 38.542 89.1693 37.5044C89.3762 36.4667 89.2707 35.391 88.8662 34.4134C88.4616 33.4357 87.7763 32.5999 86.8968 32.0117C86.0173 31.4235 84.9831 31.1094 83.925 31.109H83.9229C82.5047 31.1096 81.1447 31.6732 80.1416 32.6758C79.1386 33.6785 78.5745 35.0382 78.5732 36.4565V36.4565ZM42.1143 96.5434C37.7679 96.3455 35.4054 95.6215 33.8355 95.0098C31.7541 94.1995 30.2691 93.2345 28.7077 91.6752C27.1463 90.116 26.1798 88.6323 25.3731 86.551C24.7611 84.9817 24.0371 82.6186 23.8395 78.2722C23.6234 73.5731 23.5802 72.1615 23.5802 60.2564C23.5802 48.3512 23.6269 46.9436 23.8395 42.2405C24.0374 37.8941 24.7668 35.5356 25.3731 33.9617C26.1834 31.8804 27.1484 30.3953 28.7077 28.8339C30.2669 27.2725 31.7506 26.306 33.8355 25.4993C35.4047 24.8873 37.7679 24.1633 42.1143 23.9657C46.8134 23.7496 48.225 23.7065 60.1248 23.7065C72.0246 23.7065 73.4376 23.7525 78.1406 23.9665C82.4871 24.1644 84.8455 24.8937 86.4194 25.5C88.5008 26.3068 89.9858 27.2754 91.5472 28.8346C93.1086 30.3939 94.0715 31.8811 94.8818 33.9625C95.4938 35.5317 96.2178 37.8948 96.4154 42.2412C96.6315 46.9443 96.6747 48.352 96.6747 60.2571C96.6747 72.1622 96.6315 73.5698 96.4154 78.2729C96.2175 82.6193 95.4899 84.9817 94.8818 86.5517C94.0715 88.633 93.1065 90.1181 91.5472 91.6759C89.988 93.2337 88.5008 94.2002 86.4194 95.0105C84.8502 95.6225 82.4871 96.3465 78.1406 96.5441C73.4415 96.7602 72.0299 96.8034 60.1248 96.8034C48.2197 96.8034 46.812 96.7602 42.1143 96.5441V96.5434ZM41.7451 15.9452C36.9993 16.1613 33.7563 16.9138 30.9242 18.0159C27.993 19.1539 25.5082 20.6807 23.0271 23.158C20.5459 25.6352 19.023 28.1203 17.885 31.0551C16.7829 33.889 16.0304 37.1302 15.8143 41.876C15.5946 46.6294 15.5443 48.149 15.5443 60.2556C15.5443 72.3623 15.5946 73.8819 15.8143 78.6353C16.0304 83.3815 16.7829 86.6223 17.885 89.4562C19.023 92.3874 20.5462 94.8772 23.0271 97.3533C25.5079 99.8295 27.9894 101.354 30.9242 102.495C33.7617 103.597 36.9993 104.35 41.7451 104.566C46.501 104.782 48.0181 104.836 60.1248 104.836C72.2314 104.836 73.7511 104.786 78.5044 104.566C83.2506 104.35 86.4914 103.597 89.3253 102.495C92.2566 101.354 94.7413 99.8306 97.2225 97.3533C99.7037 94.8761 101.223 92.3874 102.365 89.4562C103.467 86.6223 104.223 83.3811 104.435 78.6353C104.651 73.8784 104.702 72.3623 104.702 60.2556C104.702 48.149 104.651 46.6294 104.435 41.876C104.219 37.1298 103.467 33.8872 102.365 31.0551C101.223 28.1239 99.6997 25.6391 97.2225 23.158C94.7453 20.6768 92.2566 19.1539 89.3289 18.0159C86.4914 16.9138 83.2503 16.1578 78.508 15.9452C73.7539 15.728 72.235 15.6752 60.1301 15.6752C48.0253 15.6752 46.5028 15.7255 41.7469 15.9452" fill="white"/>
<defs>
<radialGradient id="paint0_radial_5_32" cx="0" cy="0" r="1" gradientUnits="userSpaceOnUse" gradientTransform="translate(7.76628 117.371) scale(152.355)">
<stop offset="0.09" stop-color="#FA8F21"/>
<stop offset="0.78" stop-color="#D82D7E"/>
</radialGradient>
<radialGradient id="paint1_radial_5_32" cx="0" cy="0" r="1" gradientUnits="userSpaceOnUse" gradientTransform="translate(83.1198 113.518) scale(134.074)">
<stop offset="0.64" stop-color="#8C3AAA" stop-opacity="0"/>
<stop offset="1" stop-color="#8C3AAA"/>
</radialGradient>
</defs>
</svg>
