<svg width="208" height="208" viewBox="0 0 208 208" fill="none" xmlns="http://www.w3.org/2000/svg">
<g clip-path="url(#clip0_101_10)">
<path d="M104 208C161.438 208 208 161.438 208 104C208 46.5624 161.438 0 104 0C46.5624 0 0 46.5624 0 104C0 161.438 46.5624 208 104 208Z" fill="#EDF2F7"/>
<path d="M81.392 90.9091H68.5739C68.483 89.8485 68.2405 88.8864 67.8466 88.0227C67.4678 87.1591 66.9375 86.4167 66.2557 85.7955C65.589 85.1591 64.7784 84.6742 63.8239 84.3409C62.8693 83.9924 61.786 83.8182 60.5739 83.8182C58.4527 83.8182 56.6572 84.3333 55.1875 85.3636C53.733 86.3939 52.6269 87.8712 51.8693 89.7955C51.1269 91.7197 50.7557 94.0303 50.7557 96.7273C50.7557 99.5758 51.1345 101.962 51.892 103.886C52.6648 105.795 53.7784 107.235 55.233 108.205C56.6875 109.159 58.4375 109.636 60.483 109.636C61.6496 109.636 62.6951 109.492 63.6193 109.205C64.5436 108.902 65.3466 108.47 66.0284 107.909C66.7102 107.348 67.2633 106.674 67.6875 105.886C68.1269 105.083 68.4223 104.182 68.5739 103.182L81.392 103.273C81.2405 105.242 80.6875 107.25 79.733 109.295C78.7784 111.326 77.4223 113.205 75.6648 114.932C73.9223 116.644 71.7633 118.023 69.1875 119.068C66.6117 120.114 63.6193 120.636 60.2102 120.636C55.9375 120.636 52.1042 119.72 48.7102 117.886C45.3314 116.053 42.6572 113.356 40.6875 109.795C38.733 106.235 37.7557 101.879 37.7557 96.7273C37.7557 91.5455 38.7557 87.1818 40.7557 83.6364C42.7557 80.0758 45.4527 77.3864 48.8466 75.5682C52.2405 73.7348 56.0284 72.8182 60.2102 72.8182C63.1496 72.8182 65.8542 73.2197 68.3239 74.0227C70.7936 74.8258 72.9602 76 74.8239 77.5455C76.6875 79.0758 78.1875 80.9621 79.3239 83.2045C80.4602 85.447 81.1496 88.0152 81.392 90.9091ZM87.125 120V73.4545H107.216C110.67 73.4545 113.693 74.1364 116.284 75.5C118.875 76.8636 120.89 78.7803 122.33 81.25C123.769 83.7197 124.489 86.6061 124.489 89.9091C124.489 93.2424 123.746 96.1288 122.261 98.5682C120.792 101.008 118.723 102.886 116.057 104.205C113.405 105.523 110.307 106.182 106.761 106.182H94.7614V96.3636H104.216C105.701 96.3636 106.966 96.1061 108.011 95.5909C109.072 95.0606 109.883 94.3106 110.443 93.3409C111.019 92.3712 111.307 91.2273 111.307 89.9091C111.307 88.5758 111.019 87.4394 110.443 86.5C109.883 85.5455 109.072 84.8182 108.011 84.3182C106.966 83.803 105.701 83.5455 104.216 83.5455H99.7614V120H87.125ZM147.034 120H129.125V73.4545H146.852C151.64 73.4545 155.777 74.3864 159.261 76.25C162.761 78.0985 165.458 80.7651 167.352 84.25C169.261 87.7197 170.216 91.8788 170.216 96.7273C170.216 101.576 169.269 105.742 167.375 109.227C165.481 112.697 162.799 115.364 159.33 117.227C155.86 119.076 151.761 120 147.034 120ZM141.761 109.273H146.58C148.883 109.273 150.845 108.902 152.466 108.159C154.102 107.417 155.345 106.136 156.193 104.318C157.057 102.5 157.489 99.9697 157.489 96.7273C157.489 93.4848 157.049 90.9545 156.17 89.1364C155.307 87.3182 154.034 86.0379 152.352 85.2955C150.686 84.553 148.64 84.1818 146.216 84.1818H141.761V109.273ZM41.8764 134.909H37.8707C37.8423 134.578 37.7666 134.277 37.6435 134.007C37.5251 133.737 37.3594 133.505 37.1463 133.311C36.938 133.112 36.6847 132.961 36.3864 132.857C36.0881 132.748 35.7495 132.693 35.3707 132.693C34.7079 132.693 34.1468 132.854 33.6875 133.176C33.233 133.498 32.8873 133.96 32.6506 134.561C32.4186 135.162 32.3026 135.884 32.3026 136.727C32.3026 137.617 32.4209 138.363 32.6577 138.964C32.8991 139.561 33.2472 140.011 33.7017 140.314C34.1563 140.612 34.7031 140.761 35.3423 140.761C35.7069 140.761 36.0336 140.716 36.3224 140.626C36.6113 140.532 36.8622 140.397 37.0753 140.222C37.2884 140.046 37.4612 139.836 37.5938 139.589C37.7311 139.339 37.8234 139.057 37.8707 138.744L41.8764 138.773C41.8291 139.388 41.6563 140.016 41.358 140.655C41.0597 141.289 40.6359 141.876 40.0866 142.416C39.5421 142.951 38.8674 143.382 38.0625 143.709C37.2576 144.036 36.3224 144.199 35.2571 144.199C33.9219 144.199 32.724 143.912 31.6634 143.339C30.6075 142.767 29.7718 141.924 29.1562 140.811C28.5455 139.698 28.2401 138.337 28.2401 136.727C28.2401 135.108 28.5526 133.744 29.1776 132.636C29.8026 131.524 30.6454 130.683 31.706 130.115C32.7666 129.542 33.9503 129.256 35.2571 129.256C36.1757 129.256 37.0208 129.381 37.7926 129.632C38.5644 129.883 39.2415 130.25 39.8239 130.733C40.4063 131.211 40.875 131.801 41.2301 132.501C41.5852 133.202 41.8007 134.005 41.8764 134.909ZM57.7589 136.727C57.7589 138.347 57.444 139.713 56.8143 140.825C56.1845 141.933 55.3346 142.774 54.2646 143.347C53.1945 143.915 52.0013 144.199 50.685 144.199C49.3593 144.199 48.1613 143.912 47.0913 143.339C46.0259 142.762 45.1784 141.919 44.5487 140.811C43.9237 139.698 43.6112 138.337 43.6112 136.727C43.6112 135.108 43.9237 133.744 44.5487 132.636C45.1784 131.524 46.0259 130.683 47.0913 130.115C48.1613 129.542 49.3593 129.256 50.685 129.256C52.0013 129.256 53.1945 129.542 54.2646 130.115C55.3346 130.683 56.1845 131.524 56.8143 132.636C57.444 133.744 57.7589 135.108 57.7589 136.727ZM53.6964 136.727C53.6964 135.856 53.5804 135.122 53.3484 134.526C53.1211 133.924 52.7826 133.47 52.3327 133.162C51.8877 132.849 51.3384 132.693 50.685 132.693C50.0316 132.693 49.48 132.849 49.0302 133.162C48.5851 133.47 48.2466 133.924 48.0146 134.526C47.7873 135.122 47.6737 135.856 47.6737 136.727C47.6737 137.598 47.7873 138.335 48.0146 138.936C48.2466 139.533 48.5851 139.987 49.0302 140.3C49.48 140.607 50.0316 140.761 50.685 140.761C51.3384 140.761 51.8877 140.607 52.3327 140.3C52.7826 139.987 53.1211 139.533 53.3484 138.936C53.5804 138.335 53.6964 137.598 53.6964 136.727ZM59.5859 144V129.455H65.8643C66.9439 129.455 67.8885 129.651 68.6982 130.044C69.5078 130.437 70.1375 131.003 70.5874 131.741C71.0372 132.48 71.2621 133.366 71.2621 134.398C71.2621 135.439 71.0301 136.318 70.5661 137.033C70.1068 137.748 69.4605 138.287 68.6271 138.652C67.7985 139.017 66.8303 139.199 65.7223 139.199H61.9723V136.131H64.9268C65.3909 136.131 65.7862 136.074 66.1129 135.96C66.4444 135.842 66.6977 135.655 66.8729 135.399C67.0528 135.143 67.1428 134.81 67.1428 134.398C67.1428 133.981 67.0528 133.643 66.8729 133.382C66.6977 133.117 66.4444 132.923 66.1129 132.8C65.7862 132.672 65.3909 132.608 64.9268 132.608H63.5348V144H59.5859ZM68.1087 137.324L71.745 144H67.4553L63.9041 137.324H68.1087ZM72.9453 144V129.455H79.2237C80.3033 129.455 81.2479 129.668 82.0575 130.094C82.8672 130.52 83.4969 131.119 83.9467 131.891C84.3965 132.662 84.6214 133.564 84.6214 134.597C84.6214 135.638 84.3894 136.54 83.9254 137.303C83.4661 138.065 82.8198 138.652 81.9865 139.064C81.1579 139.476 80.1896 139.682 79.0817 139.682H75.3317V136.614H78.2862C78.7502 136.614 79.1456 136.533 79.4723 136.372C79.8037 136.206 80.0571 135.972 80.2322 135.669C80.4122 135.366 80.5021 135.009 80.5021 134.597C80.5021 134.18 80.4122 133.825 80.2322 133.531C80.0571 133.233 79.8037 133.006 79.4723 132.849C79.1456 132.688 78.7502 132.608 78.2862 132.608H76.8942V144H72.9453ZM86.0703 144V129.455H92.3487C93.4283 129.455 94.3729 129.651 95.1825 130.044C95.9922 130.437 96.6219 131.003 97.0717 131.741C97.5215 132.48 97.7464 133.366 97.7464 134.398C97.7464 135.439 97.5144 136.318 97.0504 137.033C96.5911 137.748 95.9448 138.287 95.1115 138.652C94.2829 139.017 93.3146 139.199 92.2067 139.199H88.4567V136.131H91.4112C91.8752 136.131 92.2706 136.074 92.5973 135.96C92.9287 135.842 93.1821 135.655 93.3572 135.399C93.5372 135.143 93.6271 134.81 93.6271 134.398C93.6271 133.981 93.5372 133.643 93.3572 133.382C93.1821 133.117 92.9287 132.923 92.5973 132.8C92.2706 132.672 91.8752 132.608 91.4112 132.608H90.0192V144H86.0703ZM94.593 137.324L98.2294 144H93.9396L90.3885 137.324H94.593ZM113.521 136.727C113.521 138.347 113.206 139.713 112.576 140.825C111.946 141.933 111.096 142.774 110.026 143.347C108.956 143.915 107.763 144.199 106.447 144.199C105.121 144.199 103.923 143.912 102.853 143.339C101.788 142.762 100.94 141.919 100.31 140.811C99.6854 139.698 99.3729 138.337 99.3729 136.727C99.3729 135.108 99.6854 133.744 100.31 132.636C100.94 131.524 101.788 130.683 102.853 130.115C103.923 129.542 105.121 129.256 106.447 129.256C107.763 129.256 108.956 129.542 110.026 130.115C111.096 130.683 111.946 131.524 112.576 132.636C113.206 133.744 113.521 135.108 113.521 136.727ZM109.458 136.727C109.458 135.856 109.342 135.122 109.11 134.526C108.883 133.924 108.544 133.47 108.094 133.162C107.649 132.849 107.1 132.693 106.447 132.693C105.793 132.693 105.242 132.849 104.792 133.162C104.347 133.47 104.008 133.924 103.776 134.526C103.549 135.122 103.435 135.856 103.435 136.727C103.435 137.598 103.549 138.335 103.776 138.936C104.008 139.533 104.347 139.987 104.792 140.3C105.242 140.607 105.793 140.761 106.447 140.761C107.1 140.761 107.649 140.607 108.094 140.3C108.544 139.987 108.883 139.533 109.11 138.936C109.342 138.335 109.458 137.598 109.458 136.727ZM120.944 144H115.348V129.455H120.887C122.384 129.455 123.676 129.746 124.765 130.328C125.859 130.906 126.702 131.739 127.294 132.828C127.89 133.912 128.189 135.212 128.189 136.727C128.189 138.242 127.893 139.545 127.301 140.634C126.709 141.718 125.871 142.551 124.787 143.134C123.702 143.711 122.422 144 120.944 144ZM119.297 140.648H120.802C121.522 140.648 122.135 140.532 122.642 140.3C123.153 140.068 123.541 139.668 123.806 139.099C124.076 138.531 124.211 137.741 124.211 136.727C124.211 135.714 124.074 134.923 123.799 134.355C123.529 133.787 123.132 133.387 122.606 133.155C122.085 132.923 121.446 132.807 120.689 132.807H119.297V140.648ZM133.964 129.455V144H130.016V129.455H133.964ZM148.421 129.455V144H145.126L139.87 136.358H139.785V144H135.836V129.455H139.188L144.359 137.068H144.472V129.455H148.421ZM163.869 134.909H159.863C159.835 134.578 159.759 134.277 159.636 134.007C159.517 133.737 159.352 133.505 159.138 133.311C158.93 133.112 158.677 132.961 158.379 132.857C158.08 132.748 157.742 132.693 157.363 132.693C156.7 132.693 156.139 132.854 155.68 133.176C155.225 133.498 154.879 133.96 154.643 134.561C154.411 135.162 154.295 135.884 154.295 136.727C154.295 137.617 154.413 138.363 154.65 138.964C154.891 139.561 155.239 140.011 155.694 140.314C156.148 140.612 156.695 140.761 157.335 140.761C157.699 140.761 158.026 140.716 158.315 140.626C158.603 140.532 158.854 140.397 159.067 140.222C159.281 140.046 159.453 139.836 159.586 139.589C159.723 139.339 159.816 139.057 159.863 138.744L163.869 138.773C163.821 139.388 163.648 140.016 163.35 140.655C163.052 141.289 162.628 141.876 162.079 142.416C161.534 142.951 160.86 143.382 160.055 143.709C159.25 144.036 158.315 144.199 157.249 144.199C155.914 144.199 154.716 143.912 153.656 143.339C152.6 142.767 151.764 141.924 151.148 140.811C150.538 139.698 150.232 138.337 150.232 136.727C150.232 135.108 150.545 133.744 151.17 132.636C151.795 131.524 152.638 130.683 153.698 130.115C154.759 129.542 155.942 129.256 157.249 129.256C158.168 129.256 159.013 129.381 159.785 129.632C160.557 129.883 161.234 130.25 161.816 130.733C162.398 131.211 162.867 131.801 163.222 132.501C163.577 133.202 163.793 134.005 163.869 134.909ZM179.751 136.727C179.751 138.347 179.436 139.713 178.806 140.825C178.177 141.933 177.327 142.774 176.257 143.347C175.187 143.915 173.993 144.199 172.677 144.199C171.351 144.199 170.154 143.912 169.083 143.339C168.018 142.762 167.171 141.919 166.541 140.811C165.916 139.698 165.603 138.337 165.603 136.727C165.603 135.108 165.916 133.744 166.541 132.636C167.171 131.524 168.018 130.683 169.083 130.115C170.154 129.542 171.351 129.256 172.677 129.256C173.993 129.256 175.187 129.542 176.257 130.115C177.327 130.683 178.177 131.524 178.806 132.636C179.436 133.744 179.751 135.108 179.751 136.727ZM175.689 136.727C175.689 135.856 175.573 135.122 175.341 134.526C175.113 133.924 174.775 133.47 174.325 133.162C173.88 132.849 173.331 132.693 172.677 132.693C172.024 132.693 171.472 132.849 171.022 133.162C170.577 133.47 170.239 133.924 170.007 134.526C169.779 135.122 169.666 135.856 169.666 136.727C169.666 137.598 169.779 138.335 170.007 138.936C170.239 139.533 170.577 139.987 171.022 140.3C171.472 140.607 172.024 140.761 172.677 140.761C173.331 140.761 173.88 140.607 174.325 140.3C174.775 139.987 175.113 139.533 175.341 138.936C175.573 138.335 175.689 137.598 175.689 136.727Z" fill="#4481EB"/>
</g>
<defs>
<clipPath id="clip0_101_10">
<rect width="208" height="208" fill="white"/>
</clipPath>
</defs>
</svg>
