<svg width="44" height="100" viewBox="0 0 44 100" fill="none" xmlns="http://www.w3.org/2000/svg">
<g clip-path="url(#clip0_927_10)">
<path d="M32.2941 2V16.4H28.7647C27 16.4 27 20 27 20V80C27.1558 83.182 27.8414 83.7548 29.6471 83.6H32.2941V98H36.7059V83.6H40.2353C41.7523 82.8389 41.9505 81.905 42 80V20C41.9214 18.288 42 16.4 40.2353 16.4H36.7059V2H32.2941Z" fill="#485461" stroke="#485461" stroke-width="3"/>
<path d="M7.29412 2V16.4H3.76471C2 16.4 2 20 2 20V80C2.15578 83.182 2.84138 83.7548 4.64706 83.6H7.29412V98H11.7059V83.6H15.2353C16.7523 82.8389 16.9505 81.905 17 80V20C16.9214 18.288 17 16.4 15.2353 16.4H11.7059V2H7.29412Z" fill="#EDF2F7" stroke="#1B2831" stroke-width="3"/>
<path d="M30.7048 50.3132C28.646 49.2298 26.044 50.0687 24.9041 52.1833C23.9862 53.886 24.3089 55.8913 25.5383 57.1796C24.8321 58.1188 23.9507 58.7352 22.8542 59.0344C19.7312 59.8846 15.8156 58.0519 14.0475 57.0821L17.7141 50.2802C19.5065 50.613 21.4186 49.7584 22.3518 48.0273C23.4917 45.9126 22.7442 43.3111 20.6854 42.2277C18.6267 41.1443 16.0246 41.9832 14.8847 44.0978C13.9515 45.829 14.3009 47.8736 15.5806 49.1575L11.8443 56.0887C10.0519 55.7559 8.13982 56.6105 7.20664 58.3416C6.06674 60.4563 6.81421 63.0578 8.87299 64.1412C10.9318 65.2246 13.5338 64.3857 14.6737 62.2711C14.9991 61.6674 15.1534 61.0256 15.1853 60.3898C17.4926 61.3423 20.6001 62.1745 23.4098 61.4126C25.1689 60.936 26.5935 59.9037 27.6664 58.3529C29.4785 58.7228 31.4261 57.8659 32.3711 56.1128C33.511 53.9981 32.7635 51.3966 30.7048 50.3132ZM17.0182 45.2205C17.5066 44.3144 18.622 43.9548 19.5042 44.419C20.3864 44.8833 20.7068 45.9984 20.2183 46.9046C19.7299 47.8107 18.6145 48.1703 17.7323 47.7061C16.8501 47.2418 16.5297 46.1266 17.0182 45.2205ZM10.0542 61.9499C9.17205 61.4856 8.85164 60.3704 9.34008 59.4643C9.57354 59.0325 9.96317 58.7054 10.4246 58.5539C10.8861 58.4025 11.3823 58.4387 11.8057 58.6549L11.9385 58.7388C12.1434 58.857 12.322 59.0156 12.464 59.2055C12.606 59.3954 12.7086 59.6128 12.7661 59.8455C12.8235 60.0782 12.8346 60.3214 12.7987 60.5615C12.7628 60.8015 12.6807 61.0335 12.557 61.2444C12.4332 61.4552 12.2704 61.6407 12.0776 61.7903C11.8849 61.9398 11.6661 62.0505 11.4337 62.116C11.2013 62.1815 10.9599 62.2006 10.7232 62.1721C10.4865 62.1436 10.2592 62.0681 10.0542 61.9499ZM27.7517 55.7916C26.8695 55.3273 26.5491 54.2122 27.0375 53.306C27.526 52.3999 28.6413 52.0403 29.5235 52.5045C30.4057 52.9688 30.7261 54.084 30.2377 54.9901C29.7492 55.8962 28.6338 56.2558 27.7517 55.7916Z" fill="#747E99"/>
<path d="M22.0016 71.5219V63.8576C30.2128 63.8576 36.5832 55.8157 33.434 47.2756C32.8503 45.7123 31.9292 44.2933 30.7349 43.1169C29.5405 41.9406 28.1014 41.0351 26.5174 40.4633C17.8761 37.3734 9.73296 43.646 9.73296 51.7591H2C2 38.8284 14.6548 28.7444 28.3781 32.9808C34.3624 34.8391 39.1482 39.546 41.0089 45.4608C45.2925 59.0182 35.0866 71.5219 22.0016 71.5219Z" fill="#747E99"/>
</g>
<defs>
<clipPath id="clip0_927_10">
<rect width="44" height="100" fill="white"/>
</clipPath>
</defs>
</svg>
