<svg width="114" height="61" viewBox="0 0 114 61" fill="none" xmlns="http://www.w3.org/2000/svg">
<g clip-path="url(#clip0_1360_79)">
<path d="M95.8808 61C94.8421 61 94 60.2692 94 59.3684C94 58.4676 94.8421 57.7368 95.8808 57.7368C100.145 57.7368 103.615 54.7262 103.615 51.0253V36.7484C103.615 34.4282 104.856 32.3538 106.791 31C104.856 29.6462 103.615 27.5718 103.615 25.2516V10.9747C103.615 7.27378 100.145 4.26317 95.8808 4.26317C94.8421 4.26317 94 3.5324 94 2.63158C94 1.72907 94.8421 1 95.8808 1C102.22 1 107.377 5.47381 107.377 10.9747V25.2516C107.377 27.5213 109.504 29.3684 112.119 29.3684C113.158 29.3684 114 30.0992 114 31C114 31.9008 113.158 32.6316 112.119 32.6316C109.504 32.6316 107.377 34.4787 107.377 36.7484V51.0253C107.377 56.5262 102.22 61 95.8808 61Z" fill="#EDF2F7"/>
<path d="M35.9784 37.2814C34.6916 36.6043 33.0653 37.1286 32.3529 38.4502C31.7793 39.5144 31.9809 40.7677 32.7493 41.5729C32.3079 42.1599 31.7571 42.5452 31.0717 42.7322C29.1199 43.2636 26.6726 42.1181 25.5676 41.512L27.8592 37.2608C28.9794 37.4688 30.1745 36.9347 30.7577 35.8527C31.4702 34.531 31.003 32.9051 29.7163 32.228C28.4295 31.5508 26.8033 32.0751 26.0908 33.3968C25.5076 34.4788 25.7259 35.7567 26.5258 36.5591L24.1906 40.8911C23.0703 40.6831 21.8753 41.2172 21.292 42.2992C20.5796 43.6208 21.0468 45.2468 22.3335 45.9239C23.6202 46.6011 25.2465 46.0767 25.9589 44.7551C26.1623 44.3778 26.2587 43.9767 26.2787 43.5793C27.7207 44.1746 29.6629 44.6947 31.419 44.2185C32.5184 43.9207 33.4088 43.2755 34.0793 42.3062C35.2119 42.5374 36.4292 42.0018 37.0198 40.9062C37.7323 39.5845 37.2651 37.9585 35.9784 37.2814ZM27.4242 34.0985C27.7295 33.5322 28.4266 33.3074 28.978 33.5975C29.5294 33.8877 29.7296 34.5847 29.4243 35.151C29.1191 35.7173 28.4219 35.9421 27.8706 35.6519C27.3192 35.3618 27.119 34.6648 27.4242 34.0985ZM23.0718 44.5543C22.5204 44.2642 22.3201 43.5672 22.6254 43.0009C22.7713 42.731 23.0149 42.5266 23.3033 42.4319C23.5917 42.3372 23.9018 42.3599 24.1664 42.495L24.2494 42.5474C24.3775 42.6213 24.4891 42.7204 24.5779 42.8391C24.6666 42.9578 24.7308 43.0937 24.7667 43.2391C24.8026 43.3845 24.8095 43.5366 24.7871 43.6866C24.7646 43.8366 24.7133 43.9816 24.636 44.1134C24.5587 44.2452 24.4569 44.3611 24.3364 44.4546C24.2159 44.5481 24.0792 44.6172 23.9339 44.6582C23.7887 44.6991 23.6378 44.711 23.4899 44.6932C23.3419 44.6754 23.1999 44.6282 23.0718 44.5543ZM34.1327 40.7054C33.5813 40.4152 33.381 39.7183 33.6863 39.1519C33.9916 38.5856 34.6887 38.3609 35.2401 38.651C35.7914 38.9411 35.9917 39.6381 35.6864 40.2045C35.3811 40.7708 34.684 40.9955 34.1327 40.7054Z" fill="#EDF2F7"/>
<path d="M11.9844 39.6406C11.9844 37.901 12.3125 36.2812 12.9688 34.7812C13.625 33.2708 14.5729 31.9635 15.8125 30.8594C17.0625 29.7448 18.5833 28.8698 20.375 28.2344C22.1771 27.599 24.2135 27.2812 26.4844 27.2812C28.474 27.2812 30.2969 27.4844 31.9531 27.8906C33.6198 28.2865 35.1667 28.8958 36.5938 29.7188L34.3125 33.4688C33.8854 33.1875 33.3906 32.9375 32.8281 32.7188C32.276 32.5 31.6823 32.3177 31.0469 32.1719C30.4219 32.0156 29.7708 31.8958 29.0938 31.8125C28.4271 31.7292 27.7656 31.6875 27.1094 31.6875C25.526 31.6875 24.1146 31.8854 22.875 32.2812C21.6354 32.6667 20.5885 33.2135 19.7344 33.9219C18.8906 34.6198 18.2448 35.4583 17.7969 36.4375C17.3594 37.4062 17.1406 38.474 17.1406 39.6406C17.1406 40.849 17.3698 41.9583 17.8281 42.9688C18.2865 43.9792 18.9479 44.8542 19.8125 45.5938C20.6875 46.3229 21.75 46.8958 23 47.3125C24.2604 47.7188 25.6823 47.9219 27.2656 47.9219C27.9844 47.9219 28.6979 47.8698 29.4062 47.7656C30.1146 47.6615 30.7969 47.5208 31.4531 47.3438C32.1198 47.1562 32.7604 46.9375 33.375 46.6875C33.9896 46.4271 34.5625 46.1458 35.0938 45.8438L37.375 49.5938C36.0417 50.4479 34.5 51.1198 32.75 51.6094C31 52.0885 29.1406 52.3281 27.1719 52.3281C24.6615 52.3281 22.4583 52.0052 20.5625 51.3594C18.6667 50.7031 17.0833 49.8073 15.8125 48.6719C14.5417 47.526 13.5833 46.1823 12.9375 44.6406C12.3021 43.0885 11.9844 41.4219 11.9844 39.6406ZM43.9844 44.7344C44.8698 45.2344 45.7656 45.6875 46.6719 46.0938C47.5885 46.4896 48.5365 46.8281 49.5156 47.1094C50.4948 47.3802 51.5208 47.5885 52.5938 47.7344C53.6771 47.8802 54.8281 47.9531 56.0469 47.9531C57.5156 47.9531 58.7656 47.8594 59.7969 47.6719C60.8281 47.474 61.6667 47.2083 62.3125 46.875C62.9688 46.5312 63.4427 46.125 63.7344 45.6562C64.0365 45.1875 64.1875 44.6771 64.1875 44.125C64.1875 43.2396 63.8177 42.5417 63.0781 42.0312C62.3385 41.5104 61.1979 41.25 59.6562 41.25C58.9792 41.25 58.2656 41.2969 57.5156 41.3906C56.7656 41.474 56.0052 41.5677 55.2344 41.6719C54.474 41.776 53.7188 41.875 52.9688 41.9688C52.2292 42.0521 51.5312 42.0938 50.875 42.0938C49.7812 42.0938 48.7292 41.9531 47.7188 41.6719C46.7188 41.3906 45.8281 40.9688 45.0469 40.4062C44.276 39.8438 43.6615 39.1406 43.2031 38.2969C42.7448 37.4531 42.5156 36.4688 42.5156 35.3438C42.5156 34.6771 42.6042 34.0156 42.7812 33.3594C42.9688 32.7031 43.2604 32.0781 43.6562 31.4844C44.0625 30.8802 44.5833 30.3229 45.2188 29.8125C45.8542 29.2917 46.6198 28.8438 47.5156 28.4688C48.4219 28.0938 49.4635 27.8021 50.6406 27.5938C51.8281 27.375 53.1771 27.2656 54.6875 27.2656C55.7812 27.2656 56.8802 27.3281 57.9844 27.4531C59.0885 27.5677 60.1615 27.7344 61.2031 27.9531C62.2552 28.1719 63.2656 28.4375 64.2344 28.75C65.2031 29.0521 66.1042 29.3906 66.9375 29.7656L64.7656 33.7656C64.0781 33.4635 63.3385 33.1875 62.5469 32.9375C61.7552 32.6771 60.9271 32.4531 60.0625 32.2656C59.1979 32.0781 58.3021 31.9323 57.375 31.8281C56.4583 31.7135 55.5208 31.6562 54.5625 31.6562C53.1979 31.6562 52.0729 31.7552 51.1875 31.9531C50.3125 32.151 49.6146 32.4062 49.0938 32.7188C48.5729 33.0208 48.2083 33.3646 48 33.75C47.8021 34.125 47.7031 34.5 47.7031 34.875C47.7031 35.6042 48.0312 36.2031 48.6875 36.6719C49.3438 37.1302 50.3438 37.3594 51.6875 37.3594C52.2292 37.3594 52.849 37.3229 53.5469 37.25C54.2552 37.1667 54.9948 37.0781 55.7656 36.9844C56.5469 36.8906 57.3385 36.8073 58.1406 36.7344C58.9531 36.651 59.7396 36.6094 60.5 36.6094C61.9375 36.6094 63.2083 36.7708 64.3125 37.0938C65.4271 37.4167 66.3594 37.8802 67.1094 38.4844C67.8594 39.0781 68.4271 39.8021 68.8125 40.6562C69.1979 41.5 69.3906 42.4479 69.3906 43.5C69.3906 44.9062 69.0625 46.1615 68.4062 47.2656C67.7604 48.3594 66.8333 49.2865 65.625 50.0469C64.4271 50.7969 62.9792 51.3698 61.2812 51.7656C59.5833 52.151 57.6927 52.3438 55.6094 52.3438C54.2344 52.3438 52.8906 52.2552 51.5781 52.0781C50.2656 51.9115 49.0052 51.6719 47.7969 51.3594C46.599 51.0365 45.4531 50.6562 44.3594 50.2188C43.276 49.7708 42.2708 49.2812 41.3438 48.75L43.9844 44.7344ZM75.9844 44.7344C76.8698 45.2344 77.7656 45.6875 78.6719 46.0938C79.5885 46.4896 80.5365 46.8281 81.5156 47.1094C82.4948 47.3802 83.5208 47.5885 84.5938 47.7344C85.6771 47.8802 86.8281 47.9531 88.0469 47.9531C89.5156 47.9531 90.7656 47.8594 91.7969 47.6719C92.8281 47.474 93.6667 47.2083 94.3125 46.875C94.9688 46.5312 95.4427 46.125 95.7344 45.6562C96.0365 45.1875 96.1875 44.6771 96.1875 44.125C96.1875 43.2396 95.8177 42.5417 95.0781 42.0312C94.3385 41.5104 93.1979 41.25 91.6562 41.25C90.9792 41.25 90.2656 41.2969 89.5156 41.3906C88.7656 41.474 88.0052 41.5677 87.2344 41.6719C86.474 41.776 85.7188 41.875 84.9688 41.9688C84.2292 42.0521 83.5312 42.0938 82.875 42.0938C81.7812 42.0938 80.7292 41.9531 79.7188 41.6719C78.7188 41.3906 77.8281 40.9688 77.0469 40.4062C76.276 39.8438 75.6615 39.1406 75.2031 38.2969C74.7448 37.4531 74.5156 36.4688 74.5156 35.3438C74.5156 34.6771 74.6042 34.0156 74.7812 33.3594C74.9688 32.7031 75.2604 32.0781 75.6562 31.4844C76.0625 30.8802 76.5833 30.3229 77.2188 29.8125C77.8542 29.2917 78.6198 28.8438 79.5156 28.4688C80.4219 28.0938 81.4635 27.8021 82.6406 27.5938C83.8281 27.375 85.1771 27.2656 86.6875 27.2656C87.7812 27.2656 88.8802 27.3281 89.9844 27.4531C91.0885 27.5677 92.1615 27.7344 93.2031 27.9531C94.2552 28.1719 95.2656 28.4375 96.2344 28.75C97.2031 29.0521 98.1042 29.3906 98.9375 29.7656L96.7656 33.7656C96.0781 33.4635 95.3385 33.1875 94.5469 32.9375C93.7552 32.6771 92.9271 32.4531 92.0625 32.2656C91.1979 32.0781 90.3021 31.9323 89.375 31.8281C88.4583 31.7135 87.5208 31.6562 86.5625 31.6562C85.1979 31.6562 84.0729 31.7552 83.1875 31.9531C82.3125 32.151 81.6146 32.4062 81.0938 32.7188C80.5729 33.0208 80.2083 33.3646 80 33.75C79.8021 34.125 79.7031 34.5 79.7031 34.875C79.7031 35.6042 80.0312 36.2031 80.6875 36.6719C81.3438 37.1302 82.3438 37.3594 83.6875 37.3594C84.2292 37.3594 84.849 37.3229 85.5469 37.25C86.2552 37.1667 86.9948 37.0781 87.7656 36.9844C88.5469 36.8906 89.3385 36.8073 90.1406 36.7344C90.9531 36.651 91.7396 36.6094 92.5 36.6094C93.9375 36.6094 95.2083 36.7708 96.3125 37.0938C97.4271 37.4167 98.3594 37.8802 99.1094 38.4844C99.8594 39.0781 100.427 39.8021 100.812 40.6562C101.198 41.5 101.391 42.4479 101.391 43.5C101.391 44.9062 101.062 46.1615 100.406 47.2656C99.7604 48.3594 98.8333 49.2865 97.625 50.0469C96.4271 50.7969 94.9792 51.3698 93.2812 51.7656C91.5833 52.151 89.6927 52.3438 87.6094 52.3438C86.2344 52.3438 84.8906 52.2552 83.5781 52.0781C82.2656 51.9115 81.0052 51.6719 79.7969 51.3594C78.599 51.0365 77.4531 50.6562 76.3594 50.2188C75.276 49.7708 74.2708 49.2812 73.3438 48.75L75.9844 44.7344Z" fill="#EDF2F7"/>
<path d="M29.1016 19.1445C29.1016 18.043 29.3086 17.0508 29.7227 16.168C30.1367 15.2773 30.707 14.5195 31.4336 13.8945C32.168 13.2617 33.0352 12.7773 34.0352 12.4414C35.043 12.0977 36.1328 11.9258 37.3047 11.9258C37.8047 11.9258 38.2969 11.957 38.7812 12.0195C39.2734 12.082 39.7422 12.168 40.1875 12.2773C40.6406 12.3867 41.0625 12.5195 41.4531 12.6758C41.8516 12.8242 42.2031 12.9883 42.5078 13.168V6.55859H45.9766V26H42.5078V24.6992C42.2031 24.9102 41.8438 25.1094 41.4297 25.2969C41.0156 25.4844 40.5703 25.6484 40.0938 25.7891C39.6172 25.9297 39.1211 26.0391 38.6055 26.1172C38.0977 26.2031 37.5938 26.2461 37.0938 26.2461C35.9219 26.2461 34.8438 26.0742 33.8594 25.7305C32.8828 25.3867 32.043 24.9023 31.3398 24.2773C30.6367 23.6523 30.0859 22.9062 29.6875 22.0391C29.2969 21.1641 29.1016 20.1992 29.1016 19.1445ZM32.7461 19.1445C32.7461 19.6992 32.8555 20.2227 33.0742 20.7148C33.3008 21.207 33.6211 21.6406 34.0352 22.0156C34.457 22.3828 34.9609 22.6758 35.5469 22.8945C36.1406 23.1055 36.8047 23.2109 37.5391 23.2109C38.0078 23.2109 38.4766 23.168 38.9453 23.082C39.4141 22.9883 39.8633 22.8594 40.293 22.6953C40.7305 22.5312 41.1367 22.332 41.5117 22.0977C41.8945 21.8633 42.2266 21.6016 42.5078 21.3125V16.5195C42.1562 16.2383 41.7852 16 41.3945 15.8047C41.0039 15.6094 40.6055 15.4492 40.1992 15.3242C39.793 15.1992 39.3828 15.1094 38.9688 15.0547C38.5547 14.9922 38.1523 14.9609 37.7617 14.9609C36.9648 14.9609 36.2539 15.0703 35.6289 15.2891C35.0117 15.5 34.4883 15.793 34.0586 16.168C33.6367 16.543 33.3125 16.9844 33.0859 17.4922C32.8594 18 32.7461 18.5508 32.7461 19.1445ZM49.5742 21.6406C49.5742 20.9766 49.7188 20.3711 50.0078 19.8242C50.2969 19.2773 50.7305 18.8086 51.3086 18.418C51.8867 18.0195 52.6055 17.7148 53.4648 17.5039C54.332 17.2852 55.3398 17.1758 56.4883 17.1758C57.3398 17.1758 58.2344 17.2383 59.1719 17.3633C60.1172 17.4883 61.0898 17.6797 62.0898 17.9375C62.0508 17.5 61.918 17.0977 61.6914 16.7305C61.4648 16.3555 61.1484 16.0352 60.7422 15.7695C60.3438 15.4961 59.8594 15.2852 59.2891 15.1367C58.7266 14.9883 58.0859 14.9141 57.3672 14.9141C56.9766 14.9141 56.5469 14.9375 56.0781 14.9844C55.6094 15.0312 55.125 15.1016 54.625 15.1953C54.125 15.2891 53.6289 15.4062 53.1367 15.5469C52.6523 15.6875 52.1992 15.8555 51.7773 16.0508L50.7227 13.2031C51.2461 13.0156 51.8047 12.8438 52.3984 12.6875C53 12.5312 53.6133 12.3984 54.2383 12.2891C54.8633 12.1719 55.4883 12.082 56.1133 12.0195C56.7383 11.957 57.3438 11.9258 57.9297 11.9258C60.5156 11.9258 62.4375 12.5859 63.6953 13.9062C64.9531 15.2266 65.582 17.25 65.582 19.9766V26H62.1133V24.6992C61.7539 24.9102 61.3594 25.1094 60.9297 25.2969C60.5078 25.4844 60.0469 25.6484 59.5469 25.7891C59.0469 25.9297 58.5078 26.0391 57.9297 26.1172C57.3594 26.2031 56.7539 26.2461 56.1133 26.2461C55.0352 26.2461 54.0859 26.1289 53.2656 25.8945C52.4531 25.6602 51.7734 25.3359 51.2266 24.9219C50.6797 24.5078 50.2656 24.0234 49.9844 23.4688C49.7109 22.9062 49.5742 22.2969 49.5742 21.6406ZM53.2305 21.5234C53.2305 21.75 53.2891 21.9688 53.4062 22.1797C53.5234 22.3828 53.7109 22.5664 53.9688 22.7305C54.2266 22.8867 54.5547 23.0156 54.9531 23.1172C55.3594 23.2109 55.8477 23.2578 56.418 23.2578C57.0273 23.2578 57.6172 23.2031 58.1875 23.0938C58.7578 22.9844 59.2891 22.8398 59.7812 22.6602C60.2734 22.4805 60.7188 22.2734 61.1172 22.0391C61.5156 21.8047 61.8477 21.5625 62.1133 21.3125V20.7031C61.582 20.5547 61.0547 20.4297 60.5312 20.3281C60.0156 20.2266 59.5195 20.1484 59.043 20.0938C58.5742 20.0312 58.1289 19.9883 57.707 19.9648C57.293 19.9414 56.9297 19.9297 56.6172 19.9297C55.9688 19.9297 55.4297 19.9727 55 20.0586C54.5703 20.1445 54.2227 20.2617 53.957 20.4102C53.6914 20.5508 53.5039 20.7188 53.3945 20.9141C53.2852 21.1094 53.2305 21.3125 53.2305 21.5234ZM68.2656 12.1602H72.2852L75.8828 20.4805L76.8203 22.8125L77.7578 20.4805L81.3555 12.1602H85.375L78.8242 26H74.8164L68.2656 12.1602Z" fill="#EDF2F7"/>
<path d="M18.1194 60C11.7807 60 6.62372 55.5262 6.62372 50.0253V35.7484C6.62372 33.4787 4.49595 31.6316 1.88077 31.6316C0.842104 31.6316 0 30.9008 0 30C0 29.0992 0.842104 28.3684 1.88077 28.3684C4.49595 28.3684 6.62372 26.5213 6.62372 24.2516V9.97474C6.62372 4.47381 11.7807 1.14205e-06 18.1194 1.14205e-06C19.1581 1.14205e-06 20 0.72907 20 1.63158C20 2.5324 19.1581 3.26317 18.1194 3.26317C13.8546 3.26317 10.3851 6.27378 10.3851 9.97474V24.2516C10.3851 26.5718 9.14441 28.6462 7.20892 30C9.14441 31.3538 10.3851 33.4282 10.3851 35.7484V50.0253C10.3851 53.7262 13.8546 56.7368 18.1194 56.7368C19.1581 56.7368 20 57.4676 20 58.3684C20 59.2692 19.1581 60 18.1194 60Z" fill="#EDF2F7"/>
</g>
<defs>
<clipPath id="clip0_1360_79">
<rect width="114" height="61" fill="white"/>
</clipPath>
</defs>
</svg>
