<svg width="295" height="103" viewBox="0 0 295 103" fill="none" xmlns="http://www.w3.org/2000/svg">
<g clip-path="url(#clip0_924_67)">
<path d="M282.705 79.3132C280.646 78.2298 278.044 79.0687 276.904 81.1833C275.986 82.886 276.309 84.8913 277.538 86.1796C276.832 87.1188 275.951 87.7352 274.854 88.0344C271.731 88.8846 267.816 87.0519 266.047 86.0821L269.714 79.2802C271.506 79.613 273.419 78.7584 274.352 77.0273C275.492 74.9126 274.744 72.3111 272.685 71.2277C270.627 70.1443 268.025 70.9832 266.885 73.0978C265.952 74.829 266.301 76.8736 267.581 78.1575L263.844 85.0887C262.052 84.7559 260.14 85.6105 259.207 87.3416C258.067 89.4563 258.814 92.0578 260.873 93.1412C262.932 94.2246 265.534 93.3857 266.674 91.2711C266.999 90.6674 267.153 90.0256 267.185 89.3898C269.493 90.3423 272.6 91.1745 275.41 90.4126C277.169 89.936 278.594 88.9037 279.666 87.3529C281.478 87.7228 283.426 86.8659 284.371 85.1128C285.511 82.9981 284.764 80.3966 282.705 79.3132ZM269.018 74.2205C269.507 73.3144 270.622 72.9548 271.504 73.419C272.386 73.8833 272.707 74.9984 272.218 75.9046C271.73 76.8107 270.614 77.1703 269.732 76.7061C268.85 76.2418 268.53 75.1266 269.018 74.2205ZM262.054 90.9499C261.172 90.4856 260.852 89.3704 261.34 88.4643C261.574 88.0325 261.963 87.7054 262.425 87.5539C262.886 87.4025 263.382 87.4387 263.806 87.6549L263.938 87.7388C264.143 87.857 264.322 88.0156 264.464 88.2055C264.606 88.3954 264.709 88.6128 264.766 88.8455C264.823 89.0782 264.835 89.3214 264.799 89.5615C264.763 89.8015 264.681 90.0335 264.557 90.2444C264.433 90.4552 264.27 90.6407 264.078 90.7903C263.885 90.9398 263.666 91.0505 263.434 91.116C263.201 91.1815 262.96 91.2006 262.723 91.1721C262.486 91.1436 262.259 91.0681 262.054 90.9499ZM279.752 84.7916C278.869 84.3273 278.549 83.2122 279.038 82.306C279.526 81.3999 280.641 81.0403 281.524 81.5045C282.406 81.9688 282.726 83.084 282.238 83.9901C281.749 84.8962 280.634 85.2558 279.752 84.7916Z" fill="#485461"/>
<path d="M274.002 100.522V92.8576C282.213 92.8576 288.583 84.8157 285.434 76.2756C284.85 74.7123 283.929 73.2933 282.735 72.1169C281.54 70.9406 280.101 70.0351 278.517 69.4633C269.876 66.3734 261.733 72.646 261.733 80.7591H254C254 67.8284 266.655 57.7444 280.378 61.9808C286.362 63.8391 291.148 68.546 293.009 74.4608C297.293 88.0182 287.087 100.522 274.002 100.522Z" fill="#747E99"/>
<path d="M68.64 74.344C68.64 79.5493 67.8293 83.944 66.208 87.528C64.5867 91.112 62.24 93.7573 59.168 95.464C60.7893 97.4267 62.24 99.112 63.52 100.52C62.5387 101.8 61.152 102.44 59.36 102.44C57.824 102.44 56.544 101.757 55.52 100.392C54.7093 99.1973 54.0267 98.1733 53.472 97.32C52.192 97.5333 50.9547 97.64 49.76 97.64C43.7013 97.64 39.0293 95.6347 35.744 91.624C32.5013 87.5707 30.88 81.8107 30.88 74.344C30.88 67.048 32.5013 61.4373 35.744 57.512C39.0293 53.544 43.7013 51.56 49.76 51.56C55.8187 51.56 60.4693 53.544 63.712 57.512C66.9973 61.4373 68.64 67.048 68.64 74.344ZM50.592 92.584C50.1227 91.688 49.6747 90.92 49.248 90.28C48.864 89.5973 48.544 89.0213 48.288 88.552L47.264 86.824H53.024C53.8347 88.232 54.7733 89.6613 55.84 91.112C60.0213 88.5947 62.112 83.0053 62.112 74.344C62.112 68.3707 61.088 63.9333 59.04 61.032C57.0347 58.088 53.9413 56.616 49.76 56.616C45.5787 56.616 42.464 58.088 40.416 61.032C38.4107 63.9333 37.408 68.3707 37.408 74.344C37.408 86.504 41.5253 92.584 49.76 92.584H50.592ZM105.42 89.32C105.42 92.0933 105.74 94.44 106.38 96.36C105.185 97 103.863 97.32 102.412 97.32C101.388 97.32 100.641 96.9787 100.172 96.296C99.7453 95.6133 99.4893 94.3547 99.404 92.52C98.1667 94.0987 96.524 95.3573 94.476 96.296C92.4707 97.192 90.2733 97.64 87.884 97.64C84.2147 97.64 81.4413 96.6587 79.564 94.696C77.7293 92.6907 76.812 89.7253 76.812 85.8V61.8H82.892V85.352C82.892 88.168 83.3827 90.216 84.364 91.496C85.388 92.7333 87.0307 93.352 89.292 93.352C91.2973 93.352 93.1747 92.84 94.924 91.816C96.6733 90.7493 98.1453 89.256 99.34 87.336V61.8H105.42V89.32ZM161.228 88.616C161.228 91.0053 161.271 92.6907 161.356 93.672C161.484 94.6533 161.697 95.5493 161.996 96.36C160.46 97 158.86 97.32 157.196 97.32C156.385 97.32 155.831 96.8507 155.532 95.912C155.276 94.9307 155.148 93.1173 155.148 90.472V73.32C155.148 70.5893 154.657 68.648 153.676 67.496C152.737 66.3013 151.159 65.704 148.94 65.704C145.655 65.704 142.241 67.304 138.7 70.504V97H132.62V73.64C132.62 67.752 132.364 64.104 131.852 62.696C133.857 61.928 135.436 61.544 136.588 61.544C137.996 61.544 138.7 62.7813 138.7 65.256V65.896C140.748 64.232 142.668 63.0373 144.46 62.312C146.295 61.544 148.236 61.16 150.284 61.16C153.953 61.16 156.684 62.1627 158.476 64.168C160.311 66.1307 161.228 69.1387 161.228 73.192V88.616ZM189.091 92.072C189.432 92.2427 189.709 92.5413 189.923 92.968C190.136 93.352 190.243 93.8 190.243 94.312C190.243 95.1653 189.923 95.784 189.283 96.168C188.643 96.6373 187.747 97 186.595 97.256C185.485 97.512 184.269 97.64 182.947 97.64C180.088 97.64 177.805 96.872 176.099 95.336C174.392 93.7573 173.539 91.6667 173.539 89.064V66.088H167.331V61.8H173.539V52.2H179.619V61.8H188.003V66.088H179.619V88.232C179.619 89.9387 179.96 91.1973 180.643 92.008C181.325 92.776 182.371 93.16 183.779 93.16C185.485 93.16 187.256 92.7973 189.091 92.072ZM225.045 76.968C225.045 77.8213 224.981 78.9307 224.853 80.296H200.277C200.448 84.3493 201.386 87.5067 203.093 89.768C204.8 91.9867 207.146 93.096 210.133 93.096C212.138 93.096 213.802 92.6907 215.125 91.88C216.49 91.0693 217.813 89.6613 219.093 87.656C219.434 87.1867 219.904 86.952 220.501 86.952C221.482 86.952 222.762 87.528 224.341 88.68C223.232 91.496 221.44 93.6933 218.965 95.272C216.49 96.8507 213.546 97.64 210.133 97.64C206.848 97.64 203.989 96.9147 201.557 95.464C199.168 93.9707 197.333 91.8587 196.053 89.128C194.773 86.3547 194.133 83.0907 194.133 79.336C194.133 73.6613 195.562 69.224 198.421 66.024C201.322 62.7813 205.312 61.16 210.389 61.16C215.04 61.16 218.645 62.5467 221.205 65.32C223.765 68.0933 225.045 71.976 225.045 76.968ZM218.837 76.2C218.837 69.16 215.957 65.64 210.197 65.64C207.338 65.64 205.077 66.536 203.413 68.328C201.749 70.12 200.746 72.744 200.405 76.2H218.837ZM247.662 61.352C251.032 61.352 252.718 62.6107 252.718 65.128C252.718 66.152 252.44 66.984 251.886 67.624C250.776 67.0693 249.326 66.792 247.534 66.792C244.718 66.792 242.499 67.8373 240.878 69.928C239.299 71.976 238.51 74.8133 238.51 78.44V97H232.43V61.8H238.51V67.688C239.448 65.768 240.728 64.232 242.35 63.08C244.014 61.928 245.784 61.352 247.662 61.352Z" fill="#747E99"/>
<path d="M118.941 2V16.25H115.647C114 16.25 114 19.8125 114 19.8125V79.1875C114.145 82.3363 114.785 82.9032 116.471 82.75H118.941V97H123.059V82.75H126.353C127.769 81.9968 127.954 81.0726 128 79.1875V19.8125C127.927 18.1183 128 16.25 126.353 16.25H123.059V2H118.941Z" fill="#485461" stroke="#485461" stroke-width="3"/>
<path d="M53 86.9999L47.5 86.9999C50 92 51.6917 95.5474 54.9999 100C58.715 105 62.9999 101.5 63.4999 100.5C60.3487 96.0926 56.1512 91.4072 53 86.9999Z" fill="#485461"/>
<path d="M18.944 3.2C25.6427 3.2 30.8267 5.16266 34.496 9.088C38.1653 12.9707 40 18.4747 40 25.6C40 30.1653 39.1467 34.1333 37.44 37.504C35.7333 40.8747 33.3013 43.4773 30.144 45.312C26.9867 47.104 23.2533 48 18.944 48H5.056V3.2H18.944ZM18.56 43.2C23.424 43.2 27.136 41.7067 29.696 38.72C32.256 35.6907 33.536 31.3387 33.536 25.664C33.536 19.7333 32.2987 15.3173 29.824 12.416C27.3493 9.472 23.5947 8 18.56 8H11.456V43.2H18.56ZM74.2915 37.76C74.2915 40.2347 74.4408 42.112 74.7395 43.392C75.0808 44.672 75.6568 45.7813 76.4675 46.72C75.8702 47.1893 75.1448 47.5947 74.2915 47.936C73.4382 48.2347 72.6488 48.384 71.9235 48.384C69.9608 48.384 68.7875 46.6347 68.4035 43.136C67.1235 44.8853 65.4808 46.2507 63.4755 47.232C61.5128 48.1707 59.2942 48.64 56.8195 48.64C53.6195 48.64 51.0382 47.808 49.0755 46.144C47.1555 44.48 46.1955 42.2613 46.1955 39.488C46.1955 31.6373 53.5342 27.3493 68.2115 26.624V24.128C68.2115 21.6533 67.5928 19.8187 66.3555 18.624C65.1182 17.4293 63.1982 16.832 60.5955 16.832C58.8888 16.832 57.2888 17.1733 55.7955 17.856C54.3022 18.5387 52.5955 19.7333 50.6755 21.44C50.3768 21.6533 50.0995 21.76 49.8435 21.76C49.2888 21.76 48.6915 21.4827 48.0515 20.928C47.4115 20.3307 46.8142 19.52 46.2595 18.496C48.0515 16.4907 50.2702 14.9333 52.9155 13.824C55.5608 12.7147 58.3128 12.16 61.1715 12.16C65.2675 12.16 68.4675 13.2267 70.7715 15.36C73.1182 17.4507 74.2915 20.3733 74.2915 24.128V37.76ZM58.1635 44.224C60.1262 44.224 61.9608 43.648 63.6675 42.496C65.3742 41.3013 66.8888 39.616 68.2115 37.44V30.592C57.6302 31.0613 52.3395 33.8987 52.3395 39.104C52.3395 40.768 52.8302 42.048 53.8115 42.944C54.8355 43.7973 56.2862 44.224 58.1635 44.224ZM110.999 12.8C110.487 19.456 109.228 25.664 107.223 31.424C105.217 37.1413 102.337 42.6667 98.5825 48H92.8225C88.9825 42.6667 86.0385 37.1413 83.9905 31.424C81.9852 25.664 80.7265 19.456 80.2145 12.8H86.4225C86.8492 18.56 87.7878 23.7867 89.2385 28.48C90.6892 33.1307 92.8438 37.6747 95.7025 42.112C98.5185 37.6747 100.631 33.1307 102.039 28.48C103.489 23.8293 104.407 18.6027 104.791 12.8H110.999ZM144.305 48.64C142.086 48.64 139.953 48.32 137.905 47.68C135.857 47.04 134.193 46.208 132.913 45.184C131.676 44.1173 131.057 42.9653 131.057 41.728C131.057 40.96 131.313 40.2987 131.825 39.744C132.38 39.1467 133.084 38.784 133.937 38.656C135.26 40.576 136.753 41.984 138.417 42.88C140.081 43.776 142.129 44.224 144.561 44.224C146.993 44.224 148.828 43.6907 150.065 42.624C151.302 41.5147 151.921 40.064 151.921 38.272C151.921 37.12 151.537 36.1813 150.769 35.456C150.044 34.688 149.105 34.0907 147.953 33.664C146.844 33.1947 145.329 32.704 143.409 32.192C140.892 31.5093 138.865 30.848 137.329 30.208C135.836 29.5253 134.534 28.544 133.425 27.264C132.358 25.9413 131.825 24.2133 131.825 22.08C131.825 19.9467 132.422 18.1333 133.617 16.64C134.812 15.1467 136.348 14.0373 138.225 13.312C140.102 12.544 142.065 12.16 144.113 12.16C146.972 12.16 149.51 12.736 151.729 13.888C153.99 14.9973 155.74 16.5547 156.977 18.56C156.465 19.2853 155.91 19.8613 155.313 20.288C154.716 20.7147 154.161 20.928 153.649 20.928C153.009 20.928 152.433 20.6293 151.921 20.032C149.873 17.6427 147.249 16.448 144.049 16.448C142.086 16.448 140.529 16.896 139.377 17.792C138.225 18.688 137.649 20.0533 137.649 21.888C137.649 23.04 138.012 23.9787 138.737 24.704C139.462 25.3867 140.38 25.9413 141.489 26.368C142.598 26.752 144.092 27.1787 145.969 27.648C148.529 28.3307 150.577 28.992 152.113 29.632C153.649 30.272 154.972 31.2747 156.081 32.64C157.19 34.0053 157.745 35.8187 157.745 38.08C157.745 41.3653 156.529 43.9467 154.097 45.824C151.708 47.7013 148.444 48.64 144.305 48.64Z" fill="#747E99"/>
</g>
<defs>
<clipPath id="clip0_924_67">
<rect width="295" height="103" fill="white"/>
</clipPath>
</defs>
</svg>
