<svg width="102" height="50" viewBox="0 0 102 50" fill="none" xmlns="http://www.w3.org/2000/svg">
<g clip-path="url(#clip0_1359_73)">
<path d="M41.9412 35.4455C40.6545 34.7683 39.0282 35.2926 38.3158 36.6143C37.7422 37.6785 37.9438 38.9318 38.7122 39.737C38.2708 40.324 37.72 40.7092 37.0346 40.8962C35.0828 41.4276 32.6355 40.2822 31.5304 39.6761L33.8221 35.4248C34.9423 35.6328 36.1374 35.0987 36.7206 34.0168C37.4331 32.6951 36.9659 31.0691 35.6792 30.392C34.3924 29.7149 32.7662 30.2392 32.0537 31.5609C31.4705 32.6428 31.6888 33.9207 32.4887 34.7231L30.1535 39.0552C29.0332 38.8472 27.8382 39.3813 27.2549 40.4632C26.5425 41.7849 27.0096 43.4109 28.2964 44.088C29.5831 44.7651 31.2094 44.2408 31.9218 42.9191C32.1252 42.5418 32.2216 42.1407 32.2416 41.7433C33.6836 42.3387 35.6258 42.8588 37.3819 42.3826C38.4813 42.0847 39.3717 41.4395 40.0422 40.4703C41.1748 40.7015 42.3921 40.1659 42.9827 39.0702C43.6951 37.7486 43.228 36.1226 41.9412 35.4455ZM33.3871 32.2625C33.6924 31.6962 34.3895 31.4715 34.9409 31.7616C35.4922 32.0518 35.6925 32.7487 35.3872 33.3151C35.0819 33.8814 34.3848 34.1062 33.8335 33.816C33.2821 33.5259 33.0818 32.8289 33.3871 32.2625ZM29.0347 42.7184C28.4833 42.4282 28.283 41.7313 28.5883 41.1649C28.7342 40.895 28.9777 40.6906 29.2662 40.5959C29.5546 40.5013 29.8647 40.5239 30.1293 40.659L30.2123 40.7115C30.3404 40.7854 30.452 40.8845 30.5408 41.0032C30.6295 41.1218 30.6937 41.2577 30.7295 41.4032C30.7654 41.5486 30.7724 41.7006 30.75 41.8506C30.7275 42.0006 30.6762 42.1457 30.5989 42.2775C30.5215 42.4092 30.4197 42.5252 30.2993 42.6186C30.1788 42.7121 30.0421 42.7813 29.8968 42.8222C29.7516 42.8632 29.6007 42.8751 29.4527 42.8573C29.3048 42.8395 29.1627 42.7923 29.0347 42.7184ZM40.0955 38.8695C39.5442 38.5793 39.3439 37.8823 39.6492 37.316C39.9545 36.7497 40.6516 36.5249 41.203 36.8151C41.7543 37.1052 41.9546 37.8022 41.6493 38.3685C41.344 38.9349 40.6469 39.1596 40.0955 38.8695Z" fill="#EDF2F7"/>
<path d="M36.501 48.7012V43.911C41.633 43.911 45.6145 38.8848 43.6463 33.5472C43.2814 32.5702 42.7058 31.6833 41.9593 30.9481C41.2128 30.2129 40.3134 29.6469 39.3234 29.2896C33.9225 27.3584 28.8331 31.2788 28.8331 36.3494H24C24 28.2678 31.9093 21.9653 40.4863 24.613C44.2265 25.7744 47.2176 28.7163 48.3806 32.413C51.0578 40.8864 44.6792 48.7012 36.501 48.7012Z" fill="#EDF2F7"/>
<path d="M3.46875 23.5781H8.42188V36.2188L21.3125 23.5781H27.6562L15.625 35.2344L27.6562 48H21.0625L12.0625 38.6875L8.42188 42.2031V48H3.46875V23.5781ZM49.3438 38.8594C49.3438 37.3906 49.6198 36.0677 50.1719 34.8906C50.724 33.7031 51.4844 32.6927 52.4531 31.8594C53.4323 31.0156 54.5885 30.3698 55.9219 29.9219C57.2656 29.4635 58.7188 29.2344 60.2812 29.2344C60.9479 29.2344 61.6042 29.276 62.25 29.3594C62.9062 29.4427 63.5312 29.5573 64.125 29.7031C64.7292 29.849 65.2917 30.026 65.8125 30.2344C66.3438 30.4323 66.8125 30.651 67.2188 30.8906V22.0781H71.8438V48H67.2188V46.2656C66.8125 46.5469 66.3333 46.8125 65.7812 47.0625C65.2292 47.3125 64.6354 47.5312 64 47.7188C63.3646 47.9062 62.7031 48.0521 62.0156 48.1562C61.3385 48.2708 60.6667 48.3281 60 48.3281C58.4375 48.3281 57 48.099 55.6875 47.6406C54.3854 47.1823 53.2656 46.5365 52.3281 45.7031C51.3906 44.8698 50.6562 43.875 50.125 42.7188C49.6042 41.5521 49.3438 40.2656 49.3438 38.8594ZM54.2031 38.8594C54.2031 39.599 54.349 40.2969 54.6406 40.9531C54.9427 41.6094 55.3698 42.1875 55.9219 42.6875C56.4844 43.1771 57.1562 43.5677 57.9375 43.8594C58.7292 44.1406 59.6146 44.2812 60.5938 44.2812C61.2188 44.2812 61.8438 44.224 62.4688 44.1094C63.0938 43.9844 63.6927 43.8125 64.2656 43.5938C64.849 43.375 65.3906 43.1094 65.8906 42.7969C66.401 42.4844 66.8438 42.1354 67.2188 41.75V35.3594C66.75 34.9844 66.2552 34.6667 65.7344 34.4062C65.2135 34.1458 64.6823 33.9323 64.1406 33.7656C63.599 33.599 63.0521 33.4792 62.5 33.4062C61.9479 33.3229 61.4115 33.2812 60.8906 33.2812C59.8281 33.2812 58.8802 33.4271 58.0469 33.7188C57.224 34 56.526 34.3906 55.9531 34.8906C55.3906 35.3906 54.9583 35.9792 54.6562 36.6562C54.3542 37.3333 54.2031 38.0677 54.2031 38.8594ZM76.6406 38.7188C76.6406 37.4688 76.8958 36.276 77.4062 35.1406C77.9167 33.9948 78.651 32.9844 79.6094 32.1094C80.5677 31.2344 81.7396 30.5365 83.125 30.0156C84.5208 29.4948 86.1042 29.2344 87.875 29.2344C89.6354 29.2344 91.2188 29.5 92.625 30.0312C94.0417 30.5521 95.2396 31.2708 96.2188 32.1875C97.2083 33.1042 97.9635 34.1823 98.4844 35.4219C99.0156 36.6615 99.2812 37.9896 99.2812 39.4062C99.2812 39.5833 99.276 39.776 99.2656 39.9844C99.2656 40.1823 99.2552 40.3646 99.2344 40.5312H81.7969C81.9948 41.0833 82.3125 41.5885 82.75 42.0469C83.1979 42.5052 83.7552 42.901 84.4219 43.2344C85.0885 43.5677 85.8594 43.8281 86.7344 44.0156C87.6094 44.1927 88.5781 44.2812 89.6406 44.2812C90.7031 44.2812 91.7604 44.1719 92.8125 43.9531C93.8646 43.724 94.8698 43.4375 95.8281 43.0938L97.3906 46.625C96.7865 46.9062 96.1719 47.1562 95.5469 47.375C94.9323 47.5833 94.2865 47.7604 93.6094 47.9062C92.9427 48.0417 92.2396 48.1458 91.5 48.2188C90.7708 48.2917 90 48.3281 89.1875 48.3281C87.1146 48.3281 85.2969 48.0781 83.7344 47.5781C82.1719 47.0781 80.8646 46.3958 79.8125 45.5312C78.7604 44.6667 77.9688 43.651 77.4375 42.4844C76.9062 41.3177 76.6406 40.0625 76.6406 38.7188ZM94.375 36.9219C94.2083 36.4115 93.9479 35.9375 93.5938 35.5C93.25 35.0521 92.8177 34.6667 92.2969 34.3438C91.776 34.0104 91.1719 33.75 90.4844 33.5625C89.7969 33.375 89.0417 33.2812 88.2188 33.2812C87.3438 33.2812 86.5469 33.3802 85.8281 33.5781C85.1094 33.776 84.4792 34.0417 83.9375 34.375C83.3958 34.7083 82.9427 35.0938 82.5781 35.5312C82.224 35.9688 81.9635 36.4323 81.7969 36.9219H94.375Z" fill="#EDF2F7"/>
<path d="M14.1016 15.1445C14.1016 14.043 14.3086 13.0508 14.7227 12.168C15.1367 11.2773 15.707 10.5195 16.4336 9.89453C17.168 9.26172 18.0352 8.77734 19.0352 8.44141C20.043 8.09766 21.1328 7.92578 22.3047 7.92578C22.8047 7.92578 23.2969 7.95703 23.7812 8.01953C24.2734 8.08203 24.7422 8.16797 25.1875 8.27734C25.6406 8.38672 26.0625 8.51953 26.4531 8.67578C26.8516 8.82422 27.2031 8.98828 27.5078 9.16797V2.55859H30.9766V22H27.5078V20.6992C27.2031 20.9102 26.8438 21.1094 26.4297 21.2969C26.0156 21.4844 25.5703 21.6484 25.0938 21.7891C24.6172 21.9297 24.1211 22.0391 23.6055 22.1172C23.0977 22.2031 22.5938 22.2461 22.0938 22.2461C20.9219 22.2461 19.8438 22.0742 18.8594 21.7305C17.8828 21.3867 17.043 20.9023 16.3398 20.2773C15.6367 19.6523 15.0859 18.9062 14.6875 18.0391C14.2969 17.1641 14.1016 16.1992 14.1016 15.1445ZM17.7461 15.1445C17.7461 15.6992 17.8555 16.2227 18.0742 16.7148C18.3008 17.207 18.6211 17.6406 19.0352 18.0156C19.457 18.3828 19.9609 18.6758 20.5469 18.8945C21.1406 19.1055 21.8047 19.2109 22.5391 19.2109C23.0078 19.2109 23.4766 19.168 23.9453 19.082C24.4141 18.9883 24.8633 18.8594 25.293 18.6953C25.7305 18.5312 26.1367 18.332 26.5117 18.0977C26.8945 17.8633 27.2266 17.6016 27.5078 17.3125V12.5195C27.1562 12.2383 26.7852 12 26.3945 11.8047C26.0039 11.6094 25.6055 11.4492 25.1992 11.3242C24.793 11.1992 24.3828 11.1094 23.9688 11.0547C23.5547 10.9922 23.1523 10.9609 22.7617 10.9609C21.9648 10.9609 21.2539 11.0703 20.6289 11.2891C20.0117 11.5 19.4883 11.793 19.0586 12.168C18.6367 12.543 18.3125 12.9844 18.0859 13.4922C17.8594 14 17.7461 14.5508 17.7461 15.1445ZM34.5742 17.6406C34.5742 16.9766 34.7188 16.3711 35.0078 15.8242C35.2969 15.2773 35.7305 14.8086 36.3086 14.418C36.8867 14.0195 37.6055 13.7148 38.4648 13.5039C39.332 13.2852 40.3398 13.1758 41.4883 13.1758C42.3398 13.1758 43.2344 13.2383 44.1719 13.3633C45.1172 13.4883 46.0898 13.6797 47.0898 13.9375C47.0508 13.5 46.918 13.0977 46.6914 12.7305C46.4648 12.3555 46.1484 12.0352 45.7422 11.7695C45.3438 11.4961 44.8594 11.2852 44.2891 11.1367C43.7266 10.9883 43.0859 10.9141 42.3672 10.9141C41.9766 10.9141 41.5469 10.9375 41.0781 10.9844C40.6094 11.0312 40.125 11.1016 39.625 11.1953C39.125 11.2891 38.6289 11.4062 38.1367 11.5469C37.6523 11.6875 37.1992 11.8555 36.7773 12.0508L35.7227 9.20312C36.2461 9.01562 36.8047 8.84375 37.3984 8.6875C38 8.53125 38.6133 8.39844 39.2383 8.28906C39.8633 8.17188 40.4883 8.08203 41.1133 8.01953C41.7383 7.95703 42.3438 7.92578 42.9297 7.92578C45.5156 7.92578 47.4375 8.58594 48.6953 9.90625C49.9531 11.2266 50.582 13.25 50.582 15.9766V22H47.1133V20.6992C46.7539 20.9102 46.3594 21.1094 45.9297 21.2969C45.5078 21.4844 45.0469 21.6484 44.5469 21.7891C44.0469 21.9297 43.5078 22.0391 42.9297 22.1172C42.3594 22.2031 41.7539 22.2461 41.1133 22.2461C40.0352 22.2461 39.0859 22.1289 38.2656 21.8945C37.4531 21.6602 36.7734 21.3359 36.2266 20.9219C35.6797 20.5078 35.2656 20.0234 34.9844 19.4688C34.7109 18.9062 34.5742 18.2969 34.5742 17.6406ZM38.2305 17.5234C38.2305 17.75 38.2891 17.9688 38.4062 18.1797C38.5234 18.3828 38.7109 18.5664 38.9688 18.7305C39.2266 18.8867 39.5547 19.0156 39.9531 19.1172C40.3594 19.2109 40.8477 19.2578 41.418 19.2578C42.0273 19.2578 42.6172 19.2031 43.1875 19.0938C43.7578 18.9844 44.2891 18.8398 44.7812 18.6602C45.2734 18.4805 45.7188 18.2734 46.1172 18.0391C46.5156 17.8047 46.8477 17.5625 47.1133 17.3125V16.7031C46.582 16.5547 46.0547 16.4297 45.5312 16.3281C45.0156 16.2266 44.5195 16.1484 44.043 16.0938C43.5742 16.0312 43.1289 15.9883 42.707 15.9648C42.293 15.9414 41.9297 15.9297 41.6172 15.9297C40.9688 15.9297 40.4297 15.9727 40 16.0586C39.5703 16.1445 39.2227 16.2617 38.957 16.4102C38.6914 16.5508 38.5039 16.7188 38.3945 16.9141C38.2852 17.1094 38.2305 17.3125 38.2305 17.5234ZM53.2656 8.16016H57.2852L60.8828 16.4805L61.8203 18.8125L62.7578 16.4805L66.3555 8.16016H70.375L63.8242 22H59.8164L53.2656 8.16016Z" fill="#EDF2F7"/>
</g>
<defs>
<clipPath id="clip0_1359_73">
<rect width="102" height="50" fill="white"/>
</clipPath>
</defs>
</svg>
