<svg width="103" height="67" viewBox="0 0 103 67" fill="none" xmlns="http://www.w3.org/2000/svg">
<g clip-path="url(#clip0_1395_11)">
<path d="M46.1172 48.024C44.3158 47.076 42.039 47.81 41.0416 49.6604C40.2385 51.1502 40.5208 52.9048 41.5966 54.0321C40.9787 54.8539 40.2075 55.3932 39.248 55.655C36.5154 56.399 33.0892 54.7954 31.5422 53.9468L34.7504 47.9951C36.3188 48.2863 37.9919 47.5386 38.8084 46.0238C39.8058 44.1735 39.1517 41.8971 37.3503 40.9491C35.5489 40.0011 33.2721 40.7352 32.2747 42.5855C31.4582 44.1003 31.7639 45.8893 32.8836 47.0127L29.6144 53.0776C28.0461 52.7863 26.373 53.5341 25.5564 55.0488C24.559 56.8992 25.2131 59.1755 27.0145 60.1235C28.8159 61.0715 31.0927 60.3375 32.0901 58.4871C32.3749 57.9589 32.5098 57.3973 32.5377 56.841C34.5566 57.6745 37.2757 58.4027 39.7342 57.736C41.2734 57.319 42.5199 56.4157 43.4586 55.0587C45.0442 55.3824 46.7484 54.6326 47.5753 53.0986C48.5727 51.2483 47.9186 48.972 46.1172 48.024ZM34.1415 43.5679C34.5689 42.775 35.5448 42.4604 36.3167 42.8666C37.0886 43.2728 37.369 44.2486 36.9416 45.0414C36.5142 45.8343 35.5383 46.1489 34.7664 45.7427C33.9945 45.3365 33.7141 44.3607 34.1415 43.5679ZM28.0481 58.2061C27.2762 57.7999 26.9958 56.8241 27.4232 56.0312C27.6275 55.6534 27.9684 55.3672 28.3722 55.2346C28.776 55.1021 29.2101 55.1338 29.5806 55.323L29.6968 55.3964C29.8761 55.4998 30.0324 55.6386 30.1566 55.8047C30.2809 55.9709 30.3707 56.1612 30.4209 56.3647C30.4712 56.5683 30.4809 56.7812 30.4495 56.9912C30.4181 57.2012 30.3462 57.4043 30.238 57.5888C30.1297 57.7733 29.9872 57.9356 29.8186 58.0664C29.6499 58.1973 29.4585 58.2941 29.2551 58.3515C29.0518 58.4088 28.8405 58.4255 28.6334 58.4005C28.4263 58.3756 28.2274 58.3095 28.0481 58.2061ZM43.5333 52.8176C42.7614 52.4114 42.481 51.4356 42.9084 50.6427C43.3358 49.8499 44.3117 49.5352 45.0836 49.9414C45.8555 50.3476 46.1359 51.3234 45.7085 52.1163C45.2811 52.9091 44.3052 53.2238 43.5333 52.8176Z" fill="#485461"/>
<path d="M38.5014 66.5816V59.8754C45.6862 59.8754 51.2603 52.8387 48.5048 45.3661C47.994 43.9983 47.1881 42.7566 46.143 41.7273C45.0979 40.698 43.8387 39.9057 42.4527 39.4054C34.8916 36.7018 27.7663 42.1903 27.7663 49.2892H21C21 37.9749 32.073 29.1514 44.0808 32.8582C49.3171 34.4842 53.5047 38.6028 55.1328 43.7782C58.881 55.6409 49.9508 66.5816 38.5014 66.5816Z" fill="#747E99"/>
<path d="M16.192 65L8.832 46.632L16.512 33.32H21.376L13.568 46.632L21.44 65H16.192ZM3.136 65V24.424H7.936V65H3.136ZM67.118 65.512C65.582 65.512 64.302 65.3413 63.278 65C62.254 64.616 61.422 64.0613 60.782 63.336C60.1847 62.568 59.758 61.608 59.502 60.456C59.2887 59.2613 59.182 57.8747 59.182 56.296V40.616C59.182 39.3787 59.31 38.2907 59.566 37.352C59.822 36.3707 60.2487 35.56 60.846 34.92C61.4433 34.2373 62.19 33.7253 63.086 33.384C63.982 33 65.0913 32.808 66.414 32.808C68.1633 32.808 69.486 33.064 70.382 33.576C71.3207 34.088 72.0033 34.7067 72.43 35.432V24.68H77.294V65H73.966L73.454 61.992C73.2407 62.504 72.878 63.0373 72.366 63.592C71.8967 64.104 71.2353 64.552 70.382 64.936C69.5713 65.32 68.4833 65.512 67.118 65.512ZM68.078 62.568C69.1447 62.568 69.9767 62.376 70.574 61.992C71.1713 61.608 71.598 61.096 71.854 60.456C72.11 59.816 72.2593 59.112 72.302 58.344C72.3873 57.576 72.43 56.808 72.43 56.04V38.44C72.3447 38.0987 72.1527 37.736 71.854 37.352C71.5553 36.9253 71.1073 36.5627 70.51 36.264C69.9553 35.9653 69.1873 35.816 68.206 35.816C67.1393 35.816 66.3287 35.9653 65.774 36.264C65.2193 36.5627 64.814 36.9893 64.558 37.544C64.302 38.056 64.1527 38.632 64.11 39.272C64.0673 39.912 64.046 40.5947 64.046 41.32V57.128C64.046 58.0667 64.0887 58.9627 64.174 59.816C64.302 60.6693 64.6433 61.352 65.198 61.864C65.7953 62.3333 66.7553 62.568 68.078 62.568ZM92.087 65.576C89.911 65.576 88.1403 65.3413 86.775 64.872C85.4097 64.36 84.407 63.4213 83.767 62.056C83.127 60.6907 82.807 58.6853 82.807 56.04V40.68C82.807 37.6507 83.511 35.5813 84.919 34.472C86.3697 33.32 88.6737 32.744 91.831 32.744C94.9457 32.744 97.207 33.32 98.615 34.472C100.066 35.5813 100.791 37.6507 100.791 40.68V48.936H87.671V57.832C87.671 59.6667 87.9483 60.9467 88.503 61.672C89.1003 62.3973 90.2523 62.76 91.959 62.76C93.5377 62.76 94.583 62.4187 95.095 61.736C95.6497 61.0107 95.927 59.7093 95.927 57.832V53.48H100.791V55.976C100.791 58.5787 100.471 60.584 99.831 61.992C99.191 63.3573 98.231 64.296 96.951 64.808C95.671 65.32 94.0497 65.576 92.087 65.576ZM87.671 46.568H95.927V40.424C95.927 38.8027 95.6497 37.6293 95.095 36.904C94.583 36.136 93.495 35.752 91.831 35.752C90.2097 35.752 89.1003 36.136 88.503 36.904C87.9483 37.6293 87.671 38.8027 87.671 40.424V46.568Z" fill="#485461"/>
<path d="M27.776 31.384C26.624 31.384 25.664 31.256 24.896 31C24.128 30.712 23.504 30.296 23.024 29.752C22.576 29.176 22.256 28.456 22.064 27.592C21.904 26.696 21.824 25.656 21.824 24.472V12.712C21.824 11.784 21.92 10.968 22.112 10.264C22.304 9.528 22.624 8.92 23.072 8.44C23.52 7.928 24.08 7.544 24.752 7.288C25.424 7 26.256 6.856 27.248 6.856C28.56 6.856 29.552 7.048 30.224 7.432C30.928 7.816 31.44 8.28 31.76 8.824V0.759997H35.408V31H32.912L32.528 28.744C32.368 29.128 32.096 29.528 31.712 29.944C31.36 30.328 30.864 30.664 30.224 30.952C29.616 31.24 28.8 31.384 27.776 31.384ZM28.496 29.176C29.296 29.176 29.92 29.032 30.368 28.744C30.816 28.456 31.136 28.072 31.328 27.592C31.52 27.112 31.632 26.584 31.664 26.008C31.728 25.432 31.76 24.856 31.76 24.28V11.08C31.696 10.824 31.552 10.552 31.328 10.264C31.104 9.944 30.768 9.672 30.32 9.448C29.904 9.224 29.328 9.112 28.592 9.112C27.792 9.112 27.184 9.224 26.768 9.448C26.352 9.672 26.048 9.992 25.856 10.408C25.664 10.792 25.552 11.224 25.52 11.704C25.488 12.184 25.472 12.696 25.472 13.24V25.096C25.472 25.8 25.504 26.472 25.568 27.112C25.664 27.752 25.92 28.264 26.336 28.648C26.784 29 27.504 29.176 28.496 29.176ZM44.3428 31.336C43.5748 31.336 42.8228 31.224 42.0868 31C41.3508 30.808 40.7268 30.344 40.2148 29.608C39.7028 28.872 39.4468 27.72 39.4468 26.152V23.608C39.4468 22.04 39.9108 20.776 40.8388 19.816C41.7988 18.856 43.1588 17.992 44.9188 17.224C45.9748 16.744 46.8388 16.312 47.5108 15.928C48.1828 15.512 48.6788 15.064 48.9988 14.584C49.3188 14.072 49.4788 13.4 49.4788 12.568V11.464C49.4788 10.76 49.3348 10.232 49.0468 9.88C48.7908 9.496 48.4228 9.224 47.9428 9.064C47.4948 8.904 46.9988 8.824 46.4548 8.824C45.1748 8.824 44.3268 9.192 43.9108 9.928C43.5268 10.632 43.3348 11.72 43.3348 13.192V15.208H40.0228V12.856C40.0228 11.672 40.1828 10.632 40.5028 9.736C40.8228 8.808 41.4468 8.088 42.3748 7.576C43.3028 7.032 44.6628 6.76 46.4548 6.76C48.3428 6.76 49.7668 6.968 50.7268 7.384C51.6868 7.768 52.3268 8.344 52.6468 9.112C52.9988 9.88 53.1748 10.84 53.1748 11.992V31H49.5268V28.12C49.1748 29.176 48.5028 29.976 47.5108 30.52C46.5508 31.064 45.4948 31.336 44.3428 31.336ZM45.7828 28.888C47.0948 28.888 48.0228 28.44 48.5668 27.544C49.1428 26.616 49.4308 25.368 49.4308 23.8V16.6C49.1428 17.08 48.6628 17.512 47.9908 17.896C47.3508 18.248 46.6948 18.616 46.0228 19C45.0628 19.576 44.3108 20.168 43.7668 20.776C43.2548 21.384 42.9988 22.232 42.9988 23.32V25.384C42.9988 26.408 43.1428 27.176 43.4308 27.688C43.7188 28.2 44.0708 28.536 44.4868 28.696C44.9348 28.824 45.3668 28.888 45.7828 28.888ZM61.1574 31L55.7334 7.24H59.4774L63.5574 26.872H63.5094L67.3014 7.24H70.7574L65.4774 31H61.1574Z" fill="#747E99"/>
</g>
<defs>
<clipPath id="clip0_1395_11">
<rect width="103" height="67" fill="white"/>
</clipPath>
</defs>
</svg>
