<svg width="217" height="116" viewBox="0 0 217 116" fill="none" xmlns="http://www.w3.org/2000/svg">
<g clip-path="url(#clip0_927_19)">
<path d="M89.058 82.4695C85.9698 80.8443 82.0668 82.1027 80.3569 85.2747C78.9802 87.8287 79.4642 90.8366 81.3083 92.7691C80.249 94.1779 78.927 95.1024 77.2822 95.5512C72.5977 96.8266 66.7243 94.0776 64.0721 92.6228L69.572 82.4199C72.2606 82.9191 75.1288 81.6373 76.5285 79.0405C78.2384 75.8686 77.1171 71.9663 74.029 70.3411C70.9408 68.716 67.0378 69.9744 65.328 73.1463C63.9282 75.7431 64.4522 78.81 66.3718 80.7358L60.7674 91.1327C58.0788 90.6335 55.2107 91.9153 53.8109 94.5121C52.1011 97.684 53.2223 101.586 56.3104 103.211C59.3986 104.837 63.3016 103.578 65.0115 100.406C65.4996 99.5007 65.731 98.538 65.7788 97.5843C69.2398 99.0132 73.901 100.261 78.1157 99.1186C80.7542 98.4037 82.8911 96.8552 84.5004 94.529C87.2186 95.0839 90.14 93.7985 91.5575 91.1689C93.2673 87.9969 92.1461 84.0946 89.058 82.4695ZM68.5281 74.8304C69.2608 73.4712 70.9339 72.9318 72.2571 73.6282C73.5804 74.3245 74.061 75.9973 73.3284 77.3565C72.5957 78.7157 70.9226 79.2551 69.5994 78.5587C68.2761 77.8624 67.7955 76.1896 68.5281 74.8304ZM58.0823 99.9244C56.759 99.2281 56.2784 97.5553 57.0111 96.1961C57.3613 95.5484 57.9457 95.0578 58.6379 94.8305C59.3301 94.6033 60.0743 94.6577 60.7095 94.982L60.9087 95.1079C61.2161 95.2852 61.4839 95.523 61.6969 95.8079C61.9099 96.0927 62.0639 96.4189 62.15 96.7679C62.2362 97.1169 62.2528 97.4818 62.199 97.8418C62.1452 98.2019 62.022 98.5499 61.8364 98.8662C61.6508 99.1825 61.4065 99.4607 61.1174 99.685C60.8283 99.9094 60.5001 100.075 60.1515 100.174C59.8029 100.272 59.4407 100.301 59.0857 100.258C58.7307 100.215 58.3897 100.102 58.0823 99.9244ZM84.6283 90.687C83.3051 89.9907 82.8244 88.3179 83.5571 86.9587C84.2898 85.5995 85.9628 85.0601 87.2861 85.7565C88.6094 86.4528 89.09 88.1256 88.3573 89.4848C87.6247 90.844 85.9516 91.3834 84.6283 90.687Z" fill="#485461"/>
<path d="M76.0025 114.283V102.786C88.3192 102.786 97.8748 90.7234 93.151 77.9133C92.2754 75.5685 90.8938 73.4399 89.1023 71.6754C87.3107 69.9109 85.1521 68.5526 82.7761 67.6949C69.8141 63.0601 57.5994 72.469 57.5994 84.6386H46C46 65.2426 64.9823 50.1166 85.5671 56.4713C94.5436 59.2586 101.722 66.319 104.513 75.1912C110.939 95.5272 95.63 114.283 76.0025 114.283Z" fill="#747E99"/>
<path d="M53.28 115C51.872 115 50.272 115.064 48.48 115.192C47.072 115.32 46.208 115.384 45.888 115.384C44.864 115.384 44.032 115.192 43.392 114.808C42.752 114.424 42.208 113.848 41.76 113.08L31.008 95.32C30.048 93.72 28.768 92.568 27.168 91.864C25.632 91.16 23.552 90.84 20.928 90.904L17.184 91.096V115H8.064V39.064H17.184V83.896L20.352 83.8C22.08 83.736 23.424 83.416 24.384 82.84C25.408 82.264 26.368 81.24 27.264 79.768L39.456 62.2H50.112L35.136 82.456C34.496 83.416 33.92 84.216 33.408 84.856C32.896 85.432 32.224 85.944 31.392 86.392C34.592 87.16 36.96 88.824 38.496 91.384L53.28 115ZM153.882 100.216C153.882 106.36 154.522 110.84 155.802 113.656C153.498 114.872 151.258 115.48 149.082 115.48C146.97 115.48 145.626 113.304 145.05 108.952C143.13 111.384 140.954 113.176 138.522 114.328C136.09 115.416 133.178 115.96 129.786 115.96C122.938 115.96 117.562 113.56 113.658 108.76C109.754 103.96 107.802 97.304 107.802 88.792C107.802 80.216 109.946 73.496 114.234 68.632C118.522 63.704 124.442 61.24 131.994 61.24C134.17 61.24 136.442 61.624 138.81 62.392C141.242 63.096 143.226 63.992 144.762 65.08V39.064H153.882V100.216ZM130.938 109.336C133.882 109.336 136.474 108.696 138.714 107.416C140.954 106.072 142.97 104.024 144.762 101.272V72.472C143.418 71.064 141.594 69.912 139.29 69.016C137.05 68.12 134.778 67.672 132.474 67.672C127.482 67.672 123.642 69.496 120.954 73.144C118.33 76.728 117.018 81.944 117.018 88.792C117.018 95.576 118.202 100.696 120.57 104.152C122.938 107.608 126.394 109.336 130.938 109.336ZM212.505 84.952C212.505 86.232 212.409 87.896 212.217 89.944H175.353C175.609 96.024 177.017 100.76 179.577 104.152C182.137 107.48 185.657 109.144 190.137 109.144C193.145 109.144 195.641 108.536 197.625 107.32C199.673 106.104 201.657 103.992 203.577 100.984C204.089 100.28 204.793 99.928 205.689 99.928C207.161 99.928 209.081 100.792 211.449 102.52C209.785 106.744 207.097 110.04 203.385 112.408C199.673 114.776 195.257 115.96 190.137 115.96C185.209 115.96 180.921 114.872 177.273 112.696C173.689 110.456 170.937 107.288 169.017 103.192C167.097 99.032 166.137 94.136 166.137 88.504C166.137 79.992 168.281 73.336 172.569 68.536C176.921 63.672 182.905 61.24 190.521 61.24C197.497 61.24 202.905 63.32 206.745 67.48C210.585 71.64 212.505 77.464 212.505 84.952ZM203.193 83.8C203.193 73.24 198.873 67.96 190.233 67.96C185.945 67.96 182.553 69.304 180.057 71.992C177.561 74.68 176.057 78.616 175.545 83.8H203.193Z" fill="#485461"/>
<path d="M63.088 41.144C63.088 45.24 63.5147 48.2267 64.368 50.104C62.832 50.9147 61.3387 51.32 59.888 51.32C58.48 51.32 57.584 49.8693 57.2 46.968C55.92 48.5893 54.4693 49.784 52.848 50.552C51.2267 51.2773 49.2853 51.64 47.024 51.64C42.4587 51.64 38.8747 50.04 36.272 46.84C33.6693 43.64 32.368 39.2027 32.368 33.528C32.368 27.8107 33.7973 23.3307 36.656 20.088C39.5147 16.8027 43.4613 15.16 48.496 15.16C49.9467 15.16 51.4613 15.416 53.04 15.928C54.6613 16.3973 55.984 16.9947 57.008 17.72V0.375999H63.088V41.144ZM47.792 47.224C49.7547 47.224 51.4827 46.7973 52.976 45.944C54.4693 45.048 55.8133 43.6827 57.008 41.848V22.648C56.112 21.7093 54.896 20.9413 53.36 20.344C51.8667 19.7467 50.352 19.448 48.816 19.448C45.488 19.448 42.928 20.664 41.136 23.096C39.3867 25.4853 38.512 28.9627 38.512 33.528C38.512 38.0507 39.3013 41.464 40.88 43.768C42.4587 46.072 44.7627 47.224 47.792 47.224ZM99.354 40.76C99.354 43.2347 99.5033 45.112 99.802 46.392C100.143 47.672 100.719 48.7813 101.53 49.72C100.933 50.1893 100.207 50.5947 99.354 50.936C98.5007 51.2347 97.7113 51.384 96.986 51.384C95.0233 51.384 93.85 49.6347 93.466 46.136C92.186 47.8853 90.5433 49.2507 88.538 50.232C86.5753 51.1707 84.3567 51.64 81.882 51.64C78.682 51.64 76.1007 50.808 74.138 49.144C72.218 47.48 71.258 45.2613 71.258 42.488C71.258 34.6373 78.5967 30.3493 93.274 29.624V27.128C93.274 24.6533 92.6553 22.8187 91.418 21.624C90.1807 20.4293 88.2607 19.832 85.658 19.832C83.9513 19.832 82.3513 20.1733 80.858 20.856C79.3647 21.5387 77.658 22.7333 75.738 24.44C75.4393 24.6533 75.162 24.76 74.906 24.76C74.3513 24.76 73.754 24.4827 73.114 23.928C72.474 23.3307 71.8767 22.52 71.322 21.496C73.114 19.4907 75.3327 17.9333 77.978 16.824C80.6233 15.7147 83.3753 15.16 86.234 15.16C90.33 15.16 93.53 16.2267 95.834 18.36C98.1807 20.4507 99.354 23.3733 99.354 27.128V40.76ZM83.226 47.224C85.1887 47.224 87.0233 46.648 88.73 45.496C90.4367 44.3013 91.9513 42.616 93.274 40.44V33.592C82.6927 34.0613 77.402 36.8987 77.402 42.104C77.402 43.768 77.8927 45.048 78.874 45.944C79.898 46.7973 81.3487 47.224 83.226 47.224ZM136.061 15.8C135.549 22.456 134.29 28.664 132.285 34.424C130.28 40.1413 127.4 45.6667 123.645 51H117.885C114.045 45.6667 111.101 40.1413 109.053 34.424C107.048 28.664 105.789 22.456 105.277 15.8H111.485C111.912 21.56 112.85 26.7867 114.301 31.48C115.752 36.1307 117.906 40.6747 120.765 45.112C123.581 40.6747 125.693 36.1307 127.101 31.48C128.552 26.8293 129.469 21.6027 129.853 15.8H136.061Z" fill="#747E99"/>
</g>
<defs>
<clipPath id="clip0_927_19">
<rect width="217" height="116" fill="white"/>
</clipPath>
</defs>
</svg>
