<svg width="366" height="119" viewBox="0 0 366 119" fill="none" xmlns="http://www.w3.org/2000/svg">
<g clip-path="url(#clip0_925_105)">
<path d="M295.881 88.8914C293.308 87.5372 290.055 88.5858 288.63 91.2291C287.483 93.3575 287.886 95.864 289.423 97.4744C288.54 98.6484 287.438 99.4189 286.068 99.7929C282.164 100.856 277.27 98.5649 275.059 97.3526L279.643 88.8501C281.883 89.2662 284.273 88.198 285.44 86.034C286.865 83.3907 285.93 80.1388 283.357 78.7845C280.783 77.4303 277.531 78.4789 276.106 81.1222C274.939 83.2862 275.376 85.8419 276.976 87.4468L272.305 96.1108C270.065 95.6948 267.675 96.763 266.508 98.927C265.083 101.57 266.018 104.822 268.591 106.176C271.165 107.531 274.417 106.482 275.842 103.839C276.249 103.084 276.442 102.282 276.482 101.487C279.366 102.678 283.25 103.718 286.762 102.766C288.961 102.17 290.742 100.88 292.083 98.9411C294.348 99.4035 296.783 98.3323 297.964 96.1409C299.389 93.4976 298.454 90.2457 295.881 88.8914ZM278.773 82.5256C279.383 81.3929 280.778 80.9434 281.88 81.5237C282.983 82.104 283.384 83.498 282.773 84.6306C282.162 85.7633 280.768 86.2128 279.665 85.6325C278.563 85.0522 278.162 83.6582 278.773 82.5256ZM270.068 103.437C268.965 102.857 268.565 101.463 269.175 100.33C269.467 99.7906 269.954 99.3817 270.531 99.1924C271.108 99.003 271.728 99.0484 272.257 99.3186L272.423 99.4235C272.679 99.5712 272.903 99.7694 273.08 100.007C273.258 100.244 273.386 100.516 273.458 100.807C273.529 101.098 273.543 101.402 273.498 101.702C273.454 102.002 273.351 102.292 273.196 102.555C273.042 102.819 272.838 103.051 272.597 103.238C272.356 103.425 272.083 103.563 271.792 103.645C271.502 103.727 271.2 103.751 270.904 103.715C270.608 103.679 270.324 103.585 270.068 103.437ZM292.19 95.7394C291.087 95.1591 290.686 93.7651 291.297 92.6325C291.907 91.4998 293.302 91.0503 294.404 91.6306C295.507 92.2109 295.908 93.6049 295.297 94.7375C294.687 95.8702 293.292 96.3197 292.19 95.7394Z" fill="#485461"/>
<path d="M285.002 115.402V105.822C295.266 105.822 303.229 95.7696 299.293 85.0945C298.563 83.1404 297.412 81.3666 295.919 79.8962C294.426 78.4257 292.627 77.2939 290.647 76.5791C279.845 72.7168 269.666 80.5576 269.666 90.6989H260C260 74.5355 275.819 61.9305 292.973 67.226C300.453 69.5489 306.435 75.4325 308.761 82.826C314.116 99.7727 301.358 115.402 285.002 115.402Z" fill="#747E99"/>
<path d="M242.941 62V70.25H239.647C238 70.25 238 72.3125 238 72.3125V106.688C238.145 108.511 238.785 108.839 240.471 108.75H242.941V117H247.059V108.75H250.353C251.769 108.314 251.954 107.779 252 106.688V72.3125C251.927 71.3317 252 70.25 250.353 70.25H247.059V62H242.941Z" fill="#747E99" stroke="#485461" stroke-width="3"/>
<path d="M97.881 88.8914C95.3076 87.5372 92.055 88.5858 90.6301 91.2291C89.4829 93.3575 89.8861 95.864 91.4229 97.4744C90.5402 98.6484 89.4385 99.4189 88.0678 99.7929C84.164 100.856 79.2695 98.5649 77.0594 97.3526L81.6426 88.8501C83.8832 89.2662 86.2733 88.198 87.4398 86.034C88.8647 83.3907 87.9303 80.1388 85.3568 78.7845C82.7834 77.4303 79.5308 78.4789 78.106 81.1222C76.9395 83.2862 77.3762 85.8419 78.9758 87.4468L74.3055 96.1108C72.065 95.6948 69.6748 96.763 68.5084 98.927C67.0835 101.57 68.0178 104.822 70.5913 106.176C73.1648 107.531 76.4173 106.482 77.8422 103.839C78.249 103.084 78.4418 102.282 78.4816 101.487C81.3658 102.678 85.2502 103.718 88.7624 102.766C90.9612 102.17 92.7419 100.88 94.083 98.9411C96.3482 99.4035 98.7827 98.3323 99.964 96.1409C101.389 93.4976 100.454 90.2457 97.881 88.8914ZM80.7728 82.5256C81.3833 81.3929 82.7776 80.9434 83.8803 81.5237C84.983 82.104 85.3835 83.498 84.773 84.6306C84.1624 85.7633 82.7682 86.2128 81.6655 85.6325C80.5627 85.0522 80.1622 83.6582 80.7728 82.5256ZM72.0679 103.437C70.9651 102.857 70.5646 101.463 71.1752 100.33C71.467 99.7906 71.954 99.3817 72.5309 99.1924C73.1077 99.003 73.7279 99.0484 74.2572 99.3186L74.4232 99.4235C74.6793 99.5712 74.9025 99.7694 75.08 100.007C75.2575 100.244 75.3858 100.516 75.4576 100.807C75.5294 101.098 75.5433 101.402 75.4984 101.702C75.4536 102.002 75.3509 102.292 75.1963 102.555C75.0416 102.819 74.838 103.051 74.5971 103.238C74.3562 103.425 74.0827 103.563 73.7922 103.645C73.5017 103.727 73.1999 103.751 72.904 103.715C72.6082 103.679 72.324 103.585 72.0679 103.437ZM94.1896 95.7394C93.0869 95.1591 92.6864 93.7651 93.2969 92.6325C93.9075 91.4998 95.3017 91.0503 96.4045 91.6306C97.5072 92.2109 97.9077 93.6049 97.2971 94.7375C96.6866 95.8702 95.2924 96.3197 94.1896 95.7394Z" fill="#485461"/>
<path d="M87.0021 115.402V105.822C97.266 105.822 105.229 95.7696 101.293 85.0945C100.563 83.1404 99.4115 81.3666 97.9186 79.8962C96.4256 78.4257 94.6267 77.2939 92.6467 76.5791C81.8451 72.7168 71.6662 80.5576 71.6662 90.6989H62C62 74.5355 77.8185 61.9305 94.9726 67.226C102.453 69.5489 108.435 75.4325 110.761 82.826C116.116 99.7727 103.358 115.402 87.0021 115.402Z" fill="#747E99"/>
<path d="M31.2 116.96C26.528 116.96 22.304 116.32 18.528 115.04C14.816 113.696 11.904 111.872 9.792 109.568C7.68 107.2 6.624 104.544 6.624 101.6C6.624 100 7.232 98.72 8.448 97.76C9.728 96.8 11.456 96.288 13.632 96.224C14.464 100.512 16.384 103.808 19.392 106.112C22.464 108.352 26.464 109.472 31.392 109.472C36.32 109.472 40.192 108.416 43.008 106.304C45.888 104.128 47.328 101.216 47.328 97.568C47.328 94.432 46.048 91.936 43.488 90.08C40.928 88.16 36.448 86.336 30.048 84.608C24.672 83.136 20.416 81.568 17.28 79.904C14.144 78.176 11.84 76.192 10.368 73.952C8.96 71.648 8.256 68.896 8.256 65.696C8.256 60.192 10.336 55.84 14.496 52.64C18.656 49.44 24.352 47.84 31.584 47.84C37.728 47.84 42.88 49.28 47.04 52.16C51.264 55.04 54.112 59.104 55.584 64.352C54.944 64.992 54.08 65.536 52.992 65.984C51.904 66.368 50.848 66.56 49.824 66.56C48.864 66.56 48.032 66.336 47.328 65.888C46.688 65.44 46.144 64.704 45.696 63.68C44.352 60.992 42.432 58.912 39.936 57.44C37.504 55.968 34.72 55.232 31.584 55.232C27.04 55.232 23.616 56.064 21.312 57.728C19.008 59.392 17.856 61.888 17.856 65.216C17.856 67.072 18.272 68.64 19.104 69.92C20 71.136 21.472 72.288 23.52 73.376C25.632 74.4 28.64 75.488 32.544 76.64C39.264 78.624 44.352 80.48 47.808 82.208C51.264 83.936 53.664 85.888 55.008 88.064C56.416 90.176 57.12 92.896 57.12 96.224C57.12 100.384 56.032 104.032 53.856 107.168C51.744 110.304 48.736 112.736 44.832 114.464C40.928 116.128 36.384 116.96 31.2 116.96ZM119.446 40.064H128.47V116H119.446V40.064ZM187.661 104.48C187.661 108.64 188.141 112.16 189.101 115.04C187.309 116 185.325 116.48 183.149 116.48C181.613 116.48 180.493 115.968 179.789 114.944C179.149 113.92 178.765 112.032 178.637 109.28C176.781 111.648 174.317 113.536 171.245 114.944C168.237 116.288 164.941 116.96 161.357 116.96C155.853 116.96 151.693 115.488 148.877 112.544C146.125 109.536 144.749 105.088 144.749 99.2V63.2H153.869V98.528C153.869 102.752 154.605 105.824 156.077 107.744C157.613 109.6 160.077 110.528 163.469 110.528C166.477 110.528 169.293 109.76 171.917 108.224C174.541 106.624 176.749 104.384 178.541 101.504V63.2H187.661V104.48ZM229.823 108.608C230.335 108.864 230.751 109.312 231.071 109.952C231.391 110.528 231.551 111.2 231.551 111.968C231.551 113.248 231.071 114.176 230.111 114.752C229.151 115.456 227.807 116 226.079 116.384C224.415 116.768 222.591 116.96 220.607 116.96C216.319 116.96 212.895 115.808 210.335 113.504C207.775 111.136 206.495 108 206.495 104.096V69.632H197.183V63.2H206.495V48.8H215.615V63.2H228.191V69.632H215.615V102.848C215.615 105.408 216.127 107.296 217.151 108.512C218.175 109.664 219.743 110.24 221.855 110.24C224.415 110.24 227.071 109.696 229.823 108.608ZM357.717 103.424C357.717 107.008 357.781 109.536 357.909 111.008C358.101 112.48 358.421 113.824 358.869 115.04C356.565 116 354.165 116.48 351.669 116.48C350.453 116.48 349.621 115.776 349.173 114.368C348.789 112.896 348.597 110.176 348.597 106.208V80.48C348.597 76.384 347.861 73.472 346.389 71.744C344.981 69.952 342.613 69.056 339.285 69.056C334.357 69.056 329.237 71.456 323.925 76.256V116H314.805V80.96C314.805 72.128 314.421 66.656 313.653 64.544C316.661 63.392 319.029 62.816 320.757 62.816C322.869 62.816 323.925 64.672 323.925 68.384V69.344C326.997 66.848 329.877 65.056 332.565 63.968C335.317 62.816 338.229 62.24 341.301 62.24C346.805 62.24 350.901 63.744 353.589 66.752C356.341 69.696 357.717 74.208 357.717 80.288V103.424Z" fill="#747E99"/>
<path d="M164.088 41.144C164.088 45.24 164.515 48.2267 165.368 50.104C163.832 50.9147 162.339 51.32 160.888 51.32C159.48 51.32 158.584 49.8693 158.2 46.968C156.92 48.5893 155.469 49.784 153.848 50.552C152.227 51.2773 150.285 51.64 148.024 51.64C143.459 51.64 139.875 50.04 137.272 46.84C134.669 43.64 133.368 39.2027 133.368 33.528C133.368 27.8107 134.797 23.3307 137.656 20.088C140.515 16.8027 144.461 15.16 149.496 15.16C150.947 15.16 152.461 15.416 154.04 15.928C155.661 16.3973 156.984 16.9947 158.008 17.72V0.375999H164.088V41.144ZM148.792 47.224C150.755 47.224 152.483 46.7973 153.976 45.944C155.469 45.048 156.813 43.6827 158.008 41.848V22.648C157.112 21.7093 155.896 20.9413 154.36 20.344C152.867 19.7467 151.352 19.448 149.816 19.448C146.488 19.448 143.928 20.664 142.136 23.096C140.387 25.4853 139.512 28.9627 139.512 33.528C139.512 38.0507 140.301 41.464 141.88 43.768C143.459 46.072 145.763 47.224 148.792 47.224ZM200.354 40.76C200.354 43.2347 200.503 45.112 200.802 46.392C201.143 47.672 201.719 48.7813 202.53 49.72C201.933 50.1893 201.207 50.5947 200.354 50.936C199.501 51.2347 198.711 51.384 197.986 51.384C196.023 51.384 194.85 49.6347 194.466 46.136C193.186 47.8853 191.543 49.2507 189.538 50.232C187.575 51.1707 185.357 51.64 182.882 51.64C179.682 51.64 177.101 50.808 175.138 49.144C173.218 47.48 172.258 45.2613 172.258 42.488C172.258 34.6373 179.597 30.3493 194.274 29.624V27.128C194.274 24.6533 193.655 22.8187 192.418 21.624C191.181 20.4293 189.261 19.832 186.658 19.832C184.951 19.832 183.351 20.1733 181.858 20.856C180.365 21.5387 178.658 22.7333 176.738 24.44C176.439 24.6533 176.162 24.76 175.906 24.76C175.351 24.76 174.754 24.4827 174.114 23.928C173.474 23.3307 172.877 22.52 172.322 21.496C174.114 19.4907 176.333 17.9333 178.978 16.824C181.623 15.7147 184.375 15.16 187.234 15.16C191.33 15.16 194.53 16.2267 196.834 18.36C199.181 20.4507 200.354 23.3733 200.354 27.128V40.76ZM184.226 47.224C186.189 47.224 188.023 46.648 189.73 45.496C191.437 44.3013 192.951 42.616 194.274 40.44V33.592C183.693 34.0613 178.402 36.8987 178.402 42.104C178.402 43.768 178.893 45.048 179.874 45.944C180.898 46.7973 182.349 47.224 184.226 47.224ZM237.061 15.8C236.549 22.456 235.29 28.664 233.285 34.424C231.28 40.1413 228.4 45.6667 224.645 51H218.885C215.045 45.6667 212.101 40.1413 210.053 34.424C208.048 28.664 206.789 22.456 206.277 15.8H212.485C212.912 21.56 213.85 26.7867 215.301 31.48C216.752 36.1307 218.906 40.6747 221.765 45.112C224.581 40.6747 226.693 36.1307 228.101 31.48C229.552 26.8293 230.469 21.6027 230.853 15.8H237.061Z" fill="#485461"/>
</g>
<defs>
<clipPath id="clip0_925_105">
<rect width="366" height="119" fill="white"/>
</clipPath>
</defs>
</svg>
