<svg width="270" height="100" viewBox="0 0 270 100" fill="none" xmlns="http://www.w3.org/2000/svg">
<g clip-path="url(#clip0_1377_45)">
<path d="M220.881 69.8913C218.307 68.537 215.055 69.5857 213.63 72.229C212.482 74.3573 212.886 76.8639 214.422 78.4743C213.54 79.6483 212.438 80.4188 211.067 80.7928C207.164 81.8556 202.269 79.5647 200.059 78.3525L204.642 69.85C206.883 70.266 209.273 69.1979 210.439 67.0339C211.864 64.3906 210.93 61.1386 208.356 59.7844C205.783 58.4301 202.53 59.4788 201.105 62.1221C199.939 64.286 200.376 66.8418 201.975 68.4466L197.305 77.1107C195.064 76.6947 192.674 77.7629 191.508 79.9268C190.083 82.5702 191.017 85.8221 193.591 87.1763C196.164 88.5306 199.417 87.482 200.842 84.8387C201.248 84.084 201.441 83.2818 201.481 82.487C204.365 83.6777 208.25 84.718 211.762 83.7656C213.961 83.1698 215.741 81.8794 217.083 79.9409C219.348 80.4033 221.782 79.3321 222.963 77.1408C224.388 74.4975 223.454 71.2456 220.881 69.8913ZM203.772 63.5255C204.383 62.3928 205.777 61.9433 206.88 62.5236C207.983 63.1039 208.383 64.4979 207.772 65.6305C207.162 66.7632 205.768 67.2127 204.665 66.6324C203.562 66.0521 203.162 64.6581 203.772 63.5255ZM195.067 84.4371C193.965 83.8569 193.564 82.4629 194.175 81.3302C194.467 80.7904 194.954 80.3816 195.53 80.1922C196.107 80.0029 196.727 80.0482 197.257 80.3185L197.423 80.4234C197.679 80.5711 197.902 80.7693 198.08 81.0067C198.257 81.244 198.385 81.5159 198.457 81.8067C198.529 82.0975 198.543 82.4016 198.498 82.7016C198.453 83.0017 198.35 83.2917 198.196 83.5553C198.041 83.8188 197.838 84.0507 197.597 84.2376C197.356 84.4246 197.082 84.563 196.792 84.6449C196.501 84.7267 196.199 84.7505 195.904 84.7149C195.608 84.6793 195.324 84.5849 195.067 84.4371ZM217.189 76.7393C216.086 76.159 215.686 74.765 216.296 73.6324C216.907 72.4997 218.301 72.0502 219.404 72.6305C220.507 73.2108 220.907 74.6048 220.297 75.7374C219.686 76.8701 218.292 77.3196 217.189 76.7393Z" fill="#485461"/>
<path d="M210.002 96.4023V86.8219C220.266 86.8219 228.229 76.7696 224.293 66.0945C223.563 64.1404 222.412 62.3666 220.919 60.8962C219.426 59.4257 217.627 58.2939 215.647 57.5791C204.845 53.7168 194.666 61.5576 194.666 71.6989H185C185 55.5355 200.819 42.9305 217.973 48.226C225.453 50.5489 231.435 56.4325 233.761 63.826C239.116 80.7727 226.358 96.4023 210.002 96.4023Z" fill="#747E99"/>
<path d="M172.529 43V51.25H170.176C169 51.25 169 53.3125 169 53.3125V87.6875C169.104 89.5105 169.561 89.8387 170.765 89.75H172.529V98H175.471V89.75H177.824C178.835 89.3139 178.967 88.7789 179 87.6875V53.3125C178.948 52.3317 179 51.25 177.824 51.25H175.471V43H172.529Z" fill="#747E99" stroke="#485461" stroke-width="3"/>
<path d="M72.8805 70.8913C70.3071 69.537 67.0545 70.5857 65.6296 73.229C64.4824 75.3573 64.8857 77.8639 66.4224 79.4743C65.5397 80.6483 64.438 81.4188 63.0673 81.7928C59.1636 82.8556 54.269 80.5647 52.0589 79.3525L56.6422 70.85C58.8827 71.266 61.2728 70.1979 62.4393 68.0339C63.8642 65.3906 62.9298 62.1386 60.3564 60.7844C57.7829 59.4301 54.5304 60.4788 53.1055 63.1221C51.939 65.286 52.3757 67.8418 53.9754 69.4466L49.305 78.1107C47.0645 77.6947 44.6743 78.7629 43.5079 80.9268C42.083 83.5702 43.0173 86.8221 45.5908 88.1763C48.1643 89.5306 51.4168 88.482 52.8417 85.8387C53.2485 85.084 53.4413 84.2818 53.4812 83.487C56.3653 84.6778 60.2497 85.718 63.7619 84.7656C65.9607 84.1698 67.7415 82.8794 69.0825 80.9409C71.3477 81.4033 73.7822 80.3321 74.9635 78.1408C76.3883 75.4975 75.454 72.2456 72.8805 70.8913ZM55.7723 64.5255C56.3828 63.3928 57.7771 62.9433 58.8798 63.5236C59.9825 64.1039 60.383 65.4979 59.7725 66.6305C59.1619 67.7632 57.7677 68.2127 56.665 67.6324C55.5622 67.0521 55.1617 65.6581 55.7723 64.5255ZM47.0674 85.4371C45.9646 84.8569 45.5641 83.4629 46.1747 82.3302C46.4665 81.7904 46.9535 81.3816 47.5304 81.1922C48.1072 81.0029 48.7274 81.0482 49.2567 81.3185L49.4227 81.4234C49.6789 81.5711 49.9021 81.7693 50.0796 82.0067C50.257 82.244 50.3854 82.5159 50.4571 82.8067C50.5289 83.0975 50.5428 83.4016 50.498 83.7016C50.4531 84.0017 50.3504 84.2917 50.1958 84.5553C50.0411 84.8188 49.8375 85.0507 49.5966 85.2376C49.3557 85.4246 49.0822 85.563 48.7917 85.6449C48.5012 85.7267 48.1994 85.7505 47.9035 85.7149C47.6077 85.6793 47.3235 85.5849 47.0674 85.4371ZM69.1891 77.7393C68.0864 77.159 67.6859 75.765 68.2965 74.6324C68.907 73.4997 70.3012 73.0502 71.404 73.6305C72.5067 74.2108 72.9072 75.6048 72.2967 76.7374C71.6861 77.8701 70.2919 78.3196 69.1891 77.7393Z" fill="#485461"/>
<path d="M62.0021 97.4023V87.8219C72.266 87.8219 80.229 77.7696 76.2925 67.0945C75.5628 65.1404 74.4115 63.3666 72.9186 61.8962C71.4256 60.4257 69.6267 59.2939 67.6467 58.5791C56.8451 54.7168 46.6662 62.5576 46.6662 72.6989H37C37 56.5355 52.8185 43.9305 69.9726 49.226C77.453 51.5489 83.4353 57.4325 85.7611 64.826C91.1157 81.7727 78.3583 97.4023 62.0021 97.4023Z" fill="#747E99"/>
<path d="M17.76 98.672C14.752 98.672 12.16 98.192 9.984 97.232C7.808 96.208 6.144 94.48 4.992 92.048C3.84 89.616 3.264 86.256 3.264 81.968V78.704C4.544 78.704 5.824 78.704 7.104 78.704C8.384 78.704 9.632 78.704 10.848 78.704V82.448C10.848 85.456 11.136 87.792 11.712 89.456C12.288 91.056 13.12 92.176 14.208 92.816C15.296 93.456 16.512 93.776 17.856 93.776C20.032 93.776 21.824 93.072 23.232 91.664C24.64 90.192 25.344 87.568 25.344 83.792C25.344 81.04 24.928 78.992 24.096 77.648C23.264 76.24 22.016 75.12 20.352 74.288C18.688 73.456 16.608 72.528 14.112 71.504C12 70.608 10.144 69.552 8.544 68.336C6.944 67.12 5.728 65.552 4.896 63.632C4.064 61.648 3.648 59.184 3.648 56.24C3.648 52.784 4.096 49.968 4.992 47.792C5.952 45.552 7.488 43.888 9.6 42.8C11.712 41.712 14.56 41.168 18.144 41.168C22.688 41.168 26.208 42.288 28.704 44.528C31.2 46.704 32.448 49.84 32.448 53.936V60.368C31.232 60.368 30.016 60.368 28.8 60.368C27.584 60.368 26.368 60.368 25.152 60.368V55.952C25.152 52.944 24.576 50.704 23.424 49.232C22.272 47.76 20.512 47.024 18.144 47.024C15.648 47.024 13.856 47.76 12.768 49.232C11.68 50.704 11.136 52.976 11.136 56.048C11.136 58.416 11.584 60.304 12.48 61.712C13.44 63.056 14.656 64.112 16.128 64.88C17.664 65.584 19.264 66.256 20.928 66.896C23.808 67.984 26.112 69.136 27.84 70.352C29.632 71.504 30.944 73.008 31.776 74.864C32.608 76.72 33.024 79.376 33.024 82.832C33.024 86.736 32.384 89.872 31.104 92.24C29.824 94.544 28.032 96.208 25.728 97.232C23.488 98.192 20.832 98.672 17.76 98.672ZM92.7353 98V37.136H99.9353V98H92.7353ZM119.793 98.768C116.529 98.768 114.097 98.192 112.497 97.04C110.961 95.888 109.937 94.352 109.425 92.432C108.977 90.512 108.753 88.432 108.753 86.192V50.48H116.049V85.424C116.049 86.704 116.113 87.952 116.241 89.168C116.433 90.384 116.977 91.408 117.873 92.24C118.769 93.008 120.241 93.392 122.289 93.392C123.761 93.392 124.913 93.136 125.745 92.624C126.641 92.112 127.313 91.536 127.761 90.896C128.209 90.192 128.497 89.552 128.625 88.976V50.48H135.921V98H129.681L129.105 92.72C128.593 94.32 127.537 95.728 125.937 96.944C124.401 98.16 122.353 98.768 119.793 98.768ZM156.561 98.192C155.153 98.192 153.809 98.032 152.529 97.712C151.313 97.392 150.257 96.88 149.361 96.176C148.465 95.408 147.761 94.416 147.249 93.2C146.737 91.92 146.481 90.32 146.481 88.4V54.992H142.161V51.248L146.961 50.48L148.209 41.648H153.681V50.48H163.665V54.992H153.681V87.152C153.681 88.816 154.001 90.224 154.641 91.376C155.281 92.528 156.625 93.104 158.673 93.104C159.569 93.104 160.529 93.072 161.553 93.008C162.577 92.944 163.281 92.88 163.665 92.816V97.424C163.281 97.488 162.385 97.648 160.977 97.904C159.633 98.096 158.161 98.192 156.561 98.192ZM238.423 98V50.48H244.471L245.239 55.664C245.815 53.744 246.999 52.272 248.791 51.248C250.583 50.16 252.503 49.616 254.551 49.616C257.815 49.616 260.215 50.192 261.751 51.344C263.351 52.496 264.375 54.032 264.823 55.952C265.335 57.808 265.591 59.888 265.591 62.192V98H258.295V62.96C258.295 61.936 258.263 60.944 258.199 59.984C258.135 59.024 257.911 58.16 257.527 57.392C257.143 56.624 256.535 56.016 255.703 55.568C254.871 55.12 253.655 54.896 252.055 54.896C250.647 54.896 249.495 55.152 248.599 55.664C247.703 56.176 247.031 56.784 246.583 57.488C246.199 58.128 245.911 58.768 245.719 59.408V98H238.423Z" fill="#747E99"/>
<path d="M111.368 41.512C109.832 41.512 108.552 41.3413 107.528 41C106.504 40.616 105.672 40.0613 105.032 39.336C104.435 38.568 104.008 37.608 103.752 36.456C103.539 35.2613 103.432 33.8747 103.432 32.296V16.616C103.432 15.3787 103.56 14.2907 103.816 13.352C104.072 12.3707 104.499 11.56 105.096 10.92C105.693 10.2373 106.44 9.72533 107.336 9.384C108.232 9 109.341 8.808 110.664 8.808C112.413 8.808 113.736 9.064 114.632 9.576C115.571 10.088 116.253 10.7067 116.68 11.432V0.679996H121.544V41H118.216L117.704 37.992C117.491 38.504 117.128 39.0373 116.616 39.592C116.147 40.104 115.485 40.552 114.632 40.936C113.821 41.32 112.733 41.512 111.368 41.512ZM112.328 38.568C113.395 38.568 114.227 38.376 114.824 37.992C115.421 37.608 115.848 37.096 116.104 36.456C116.36 35.816 116.509 35.112 116.552 34.344C116.637 33.576 116.68 32.808 116.68 32.04V14.44C116.595 14.0987 116.403 13.736 116.104 13.352C115.805 12.9253 115.357 12.5627 114.76 12.264C114.205 11.9653 113.437 11.816 112.456 11.816C111.389 11.816 110.579 11.9653 110.024 12.264C109.469 12.5627 109.064 12.9893 108.808 13.544C108.552 14.056 108.403 14.632 108.36 15.272C108.317 15.912 108.296 16.5947 108.296 17.32V33.128C108.296 34.0667 108.339 34.9627 108.424 35.816C108.552 36.6693 108.893 37.352 109.448 37.864C110.045 38.3333 111.005 38.568 112.328 38.568ZM133.457 41.448C132.433 41.448 131.43 41.2987 130.449 41C129.468 40.744 128.636 40.1253 127.953 39.144C127.27 38.1627 126.929 36.6267 126.929 34.536V31.144C126.929 29.0533 127.548 27.368 128.785 26.088C130.065 24.808 131.878 23.656 134.225 22.632C135.633 21.992 136.785 21.416 137.681 20.904C138.577 20.3493 139.238 19.752 139.665 19.112C140.092 18.4293 140.305 17.5333 140.305 16.424V14.952C140.305 14.0133 140.113 13.3093 139.729 12.84C139.388 12.328 138.897 11.9653 138.257 11.752C137.66 11.5387 136.998 11.432 136.273 11.432C134.566 11.432 133.436 11.9227 132.881 12.904C132.369 13.8427 132.113 15.2933 132.113 17.256V19.944H127.697V16.808C127.697 15.2293 127.91 13.8427 128.337 12.648C128.764 11.4107 129.596 10.4507 130.833 9.768C132.07 9.04267 133.884 8.68 136.273 8.68C138.79 8.68 140.689 8.95733 141.969 9.512C143.249 10.024 144.102 10.792 144.529 11.816C144.998 12.84 145.233 14.12 145.233 15.656V41H140.369V37.16C139.9 38.568 139.004 39.6347 137.681 40.36C136.401 41.0853 134.993 41.448 133.457 41.448ZM135.377 38.184C137.126 38.184 138.364 37.5867 139.089 36.392C139.857 35.1547 140.241 33.4907 140.241 31.4V21.8C139.857 22.44 139.217 23.016 138.321 23.528C137.468 23.9973 136.593 24.488 135.697 25C134.417 25.768 133.414 26.5573 132.689 27.368C132.006 28.1787 131.665 29.3093 131.665 30.76V33.512C131.665 34.8773 131.857 35.9013 132.241 36.584C132.625 37.2667 133.094 37.7147 133.649 37.928C134.246 38.0987 134.822 38.184 135.377 38.184ZM155.877 41L148.645 9.32H153.637L159.077 35.496H159.013L164.069 9.32H168.677L161.637 41H155.877Z" fill="#485461"/>
</g>
<defs>
<clipPath id="clip0_1377_45">
<rect width="270" height="100" fill="white"/>
</clipPath>
</defs>
</svg>
