<svg width="321" height="108" viewBox="0 0 321 108" fill="none" xmlns="http://www.w3.org/2000/svg">
<g clip-path="url(#clip0_532_2)">
<path d="M209.633 91.5522H211.955L216.115 95.7271L220.275 91.5522H222.597V103H220.275V94.7676L216.115 98.7739L211.955 94.7676V103H209.633V91.5522ZM225.065 98.6787C225.065 98.0586 225.19 97.4775 225.439 96.9355C225.693 96.3936 226.052 95.9199 226.516 95.5146C226.984 95.1094 227.548 94.7896 228.208 94.5552C228.872 94.3208 229.616 94.2036 230.441 94.2036C231.267 94.2036 232.009 94.3208 232.668 94.5552C233.332 94.7896 233.896 95.1094 234.36 95.5146C234.829 95.9199 235.188 96.3936 235.437 96.9355C235.69 97.4775 235.817 98.0586 235.817 98.6787C235.817 99.2988 235.69 99.8799 235.437 100.422C235.188 100.964 234.829 101.438 234.36 101.843C233.896 102.248 233.332 102.568 232.668 102.802C232.009 103.037 231.267 103.154 230.441 103.154C229.616 103.154 228.872 103.037 228.208 102.802C227.548 102.568 226.984 102.248 226.516 101.843C226.052 101.438 225.693 100.964 225.439 100.422C225.19 99.8799 225.065 99.2988 225.065 98.6787ZM227.343 98.6787C227.343 99.0254 227.412 99.355 227.548 99.6675C227.69 99.9751 227.893 100.249 228.156 100.488C228.425 100.722 228.75 100.91 229.13 101.052C229.516 101.188 229.953 101.257 230.441 101.257C230.93 101.257 231.364 101.188 231.745 101.052C232.131 100.91 232.456 100.722 232.719 100.488C232.988 100.249 233.19 99.9751 233.327 99.6675C233.469 99.355 233.54 99.0254 233.54 98.6787C233.54 98.332 233.469 98.0024 233.327 97.6899C233.19 97.3774 232.988 97.104 232.719 96.8696C232.456 96.6304 232.131 96.4424 231.745 96.3057C231.364 96.1641 230.93 96.0933 230.441 96.0933C229.953 96.0933 229.516 96.1641 229.13 96.3057C228.75 96.4424 228.425 96.6304 228.156 96.8696C227.893 97.104 227.69 97.3774 227.548 97.6899C227.412 98.0024 227.343 98.332 227.343 98.6787ZM238.007 94.3574H240.175V95.0898C240.751 94.7627 241.301 94.5332 241.823 94.4014C242.351 94.2695 242.866 94.2036 243.369 94.2036C244.028 94.2036 244.638 94.3013 245.2 94.4966C245.761 94.687 246.247 94.9727 246.657 95.3535C247.067 95.7344 247.387 96.2104 247.617 96.7817C247.851 97.3481 247.968 98.0049 247.968 98.752V103H245.808V99.1035C245.808 98.6299 245.739 98.2075 245.603 97.8364C245.471 97.4604 245.278 97.1455 245.024 96.8916C244.775 96.6328 244.47 96.4375 244.108 96.3057C243.752 96.1689 243.352 96.1006 242.907 96.1006C242.673 96.1006 242.431 96.125 242.182 96.1738C241.938 96.2227 241.696 96.2935 241.457 96.3862C241.223 96.4741 240.996 96.5864 240.776 96.7231C240.556 96.855 240.356 97.0063 240.175 97.1772V103H238.007V94.3574ZM250.224 98.6494C250.224 98.0635 250.344 97.5044 250.583 96.9722C250.822 96.4351 251.167 95.9614 251.616 95.5513C252.065 95.1411 252.614 94.814 253.264 94.5698C253.918 94.3257 254.66 94.2036 255.49 94.2036C256.315 94.2036 257.058 94.3281 257.717 94.5771C258.381 94.8213 258.942 95.1582 259.401 95.5879C259.865 96.0176 260.219 96.5229 260.463 97.104C260.712 97.6851 260.837 98.3076 260.837 98.9717C260.837 99.0547 260.834 99.145 260.83 99.2427C260.83 99.3354 260.825 99.4209 260.815 99.499H252.641C252.734 99.7578 252.883 99.9946 253.088 100.209C253.298 100.424 253.559 100.61 253.872 100.766C254.184 100.922 254.545 101.044 254.956 101.132C255.366 101.215 255.82 101.257 256.318 101.257C256.816 101.257 257.312 101.206 257.805 101.103C258.298 100.996 258.769 100.861 259.218 100.7L259.951 102.355C259.667 102.487 259.379 102.604 259.086 102.707C258.798 102.805 258.496 102.888 258.178 102.956C257.866 103.02 257.536 103.068 257.189 103.103C256.848 103.137 256.486 103.154 256.105 103.154C255.134 103.154 254.282 103.037 253.549 102.802C252.817 102.568 252.204 102.248 251.711 101.843C251.218 101.438 250.847 100.961 250.598 100.415C250.349 99.8677 250.224 99.2793 250.224 98.6494ZM258.537 97.8071C258.459 97.5679 258.337 97.3457 258.171 97.1406C258.01 96.9307 257.807 96.75 257.563 96.5986C257.319 96.4424 257.036 96.3203 256.713 96.2324C256.391 96.1445 256.037 96.1006 255.651 96.1006C255.241 96.1006 254.868 96.147 254.531 96.2397C254.194 96.3325 253.898 96.457 253.645 96.6133C253.391 96.7695 253.178 96.9502 253.007 97.1553C252.841 97.3604 252.719 97.5776 252.641 97.8071H258.537ZM264.206 104.084C264.431 104.23 264.675 104.36 264.938 104.472C265.202 104.584 265.476 104.677 265.759 104.75C266.047 104.824 266.34 104.877 266.638 104.912C266.936 104.951 267.231 104.97 267.524 104.97C268.52 104.97 269.287 104.755 269.824 104.326C270.366 103.901 270.637 103.261 270.637 102.407V102.114C270.446 102.246 270.231 102.368 269.992 102.48C269.758 102.587 269.504 102.68 269.23 102.758C268.962 102.836 268.676 102.897 268.374 102.941C268.076 102.98 267.773 103 267.465 103C266.806 103 266.215 102.905 265.693 102.714C265.175 102.519 264.736 102.236 264.375 101.865C264.018 101.489 263.745 101.027 263.554 100.48C263.364 99.9336 263.269 99.3086 263.269 98.6055V94.3574H265.429V98.0049C265.429 99.0498 265.627 99.8213 266.022 100.319C266.423 100.812 267.053 101.059 267.912 101.059C268.518 101.059 269.052 100.954 269.516 100.744C269.985 100.529 270.358 100.256 270.637 99.9238V94.3574H272.805V102.011C272.805 102.836 272.688 103.552 272.453 104.157C272.219 104.768 271.877 105.273 271.428 105.673C270.983 106.074 270.437 106.372 269.787 106.567C269.138 106.767 268.4 106.867 267.575 106.867C266.77 106.867 266.018 106.782 265.319 106.611C264.621 106.44 263.981 106.208 263.4 105.915L264.206 104.084Z" fill="#747E99"/>
<path d="M136.161 99.5942C136.576 99.8286 136.996 100.041 137.42 100.231C137.85 100.417 138.294 100.576 138.753 100.708C139.212 100.834 139.693 100.932 140.196 101C140.704 101.069 141.244 101.103 141.815 101.103C142.503 101.103 143.089 101.059 143.573 100.971C144.056 100.878 144.449 100.754 144.752 100.598C145.06 100.437 145.282 100.246 145.418 100.026C145.56 99.8066 145.631 99.5674 145.631 99.3086C145.631 98.8936 145.458 98.5664 145.111 98.3271C144.764 98.083 144.229 97.9609 143.507 97.9609C143.189 97.9609 142.855 97.9829 142.503 98.0269C142.152 98.0659 141.795 98.1099 141.434 98.1587C141.078 98.2075 140.724 98.2539 140.372 98.2979C140.025 98.3369 139.698 98.3564 139.391 98.3564C138.878 98.3564 138.385 98.2905 137.911 98.1587C137.442 98.0269 137.025 97.8291 136.659 97.5654C136.297 97.3018 136.009 96.9722 135.794 96.5767C135.58 96.1812 135.472 95.7197 135.472 95.1924C135.472 94.8799 135.514 94.5698 135.597 94.2622C135.685 93.9546 135.821 93.6616 136.007 93.3833C136.197 93.1001 136.441 92.8389 136.739 92.5996C137.037 92.3555 137.396 92.1455 137.816 91.9697C138.241 91.7939 138.729 91.6572 139.281 91.5596C139.837 91.457 140.47 91.4058 141.178 91.4058C141.69 91.4058 142.206 91.4351 142.723 91.4937C143.241 91.5474 143.744 91.6255 144.232 91.728C144.725 91.8306 145.199 91.9551 145.653 92.1016C146.107 92.2432 146.529 92.4019 146.92 92.5776L145.902 94.4526C145.58 94.311 145.233 94.1816 144.862 94.0645C144.491 93.9424 144.103 93.8374 143.697 93.7495C143.292 93.6616 142.872 93.5933 142.438 93.5444C142.008 93.4907 141.568 93.4639 141.119 93.4639C140.479 93.4639 139.952 93.5103 139.537 93.603C139.127 93.6958 138.8 93.8154 138.556 93.9619C138.312 94.1035 138.141 94.2646 138.043 94.4453C137.95 94.6211 137.904 94.7969 137.904 94.9727C137.904 95.3145 138.058 95.5952 138.365 95.8149C138.673 96.0298 139.142 96.1372 139.771 96.1372C140.025 96.1372 140.316 96.1201 140.643 96.0859C140.975 96.0469 141.322 96.0054 141.683 95.9614C142.049 95.9175 142.42 95.8784 142.796 95.8442C143.177 95.8052 143.546 95.7856 143.902 95.7856C144.576 95.7856 145.172 95.8613 145.689 96.0127C146.212 96.1641 146.649 96.3813 147 96.6646C147.352 96.9429 147.618 97.2822 147.799 97.6826C147.979 98.0781 148.07 98.5225 148.07 99.0156C148.07 99.6748 147.916 100.263 147.608 100.781C147.306 101.293 146.871 101.728 146.305 102.084C145.743 102.436 145.064 102.705 144.269 102.89C143.473 103.071 142.586 103.161 141.61 103.161C140.965 103.161 140.335 103.12 139.72 103.037C139.105 102.958 138.514 102.846 137.948 102.7C137.386 102.548 136.849 102.37 136.336 102.165C135.829 101.955 135.357 101.726 134.923 101.477L136.161 99.5942ZM150.414 94.3574H152.582V95.0898C153.124 94.7578 153.651 94.5283 154.164 94.4014C154.681 94.2695 155.187 94.2036 155.68 94.2036C156.368 94.2036 157 94.3135 157.577 94.5332C158.153 94.7529 158.646 95.085 159.056 95.5293C159.374 95.2852 159.686 95.0801 159.994 94.9141C160.301 94.7432 160.609 94.6064 160.917 94.5039C161.224 94.3965 161.537 94.3208 161.854 94.2769C162.171 94.228 162.499 94.2036 162.835 94.2036C163.543 94.2036 164.186 94.3013 164.762 94.4966C165.338 94.687 165.829 94.9727 166.234 95.3535C166.644 95.7344 166.959 96.2104 167.179 96.7817C167.403 97.3481 167.516 98.0049 167.516 98.752V103H165.355V99.1035C165.355 98.6299 165.287 98.2075 165.15 97.8364C165.018 97.4604 164.83 97.1455 164.586 96.8916C164.347 96.6328 164.059 96.4375 163.722 96.3057C163.39 96.1689 163.023 96.1006 162.623 96.1006C162.403 96.1006 162.179 96.1226 161.949 96.1665C161.72 96.2056 161.495 96.269 161.275 96.3569C161.061 96.4448 160.858 96.5571 160.667 96.6938C160.477 96.8257 160.311 96.9819 160.169 97.1626V103H158.009V99.1035C158.009 98.6299 157.94 98.2075 157.804 97.8364C157.672 97.4604 157.484 97.1455 157.24 96.8916C157 96.6328 156.71 96.4375 156.368 96.3057C156.031 96.1689 155.66 96.1006 155.255 96.1006C155.006 96.1006 154.754 96.1274 154.5 96.1812C154.251 96.23 154.01 96.3008 153.775 96.3936C153.546 96.4863 153.329 96.5986 153.124 96.7305C152.923 96.8623 152.743 97.0112 152.582 97.1772V103H150.414V94.3574ZM169.837 100.275C169.837 99.8604 169.928 99.4819 170.108 99.1401C170.289 98.7983 170.56 98.5054 170.921 98.2612C171.283 98.0122 171.732 97.8218 172.269 97.6899C172.811 97.5532 173.441 97.4849 174.159 97.4849C174.691 97.4849 175.25 97.5239 175.836 97.6021C176.427 97.6802 177.035 97.7998 177.66 97.9609C177.635 97.6875 177.552 97.436 177.411 97.2065C177.269 96.9722 177.071 96.772 176.817 96.606C176.568 96.4351 176.266 96.3032 175.909 96.2104C175.558 96.1177 175.157 96.0713 174.708 96.0713C174.464 96.0713 174.195 96.0859 173.902 96.1152C173.609 96.1445 173.307 96.1885 172.994 96.2471C172.682 96.3057 172.372 96.3789 172.064 96.4668C171.761 96.5547 171.478 96.6597 171.214 96.7817L170.555 95.002C170.882 94.8848 171.231 94.7773 171.603 94.6797C171.979 94.582 172.362 94.499 172.752 94.4307C173.143 94.3574 173.534 94.3013 173.924 94.2622C174.315 94.2231 174.693 94.2036 175.06 94.2036C176.676 94.2036 177.877 94.6162 178.663 95.4414C179.449 96.2666 179.842 97.5312 179.842 99.2354V103H177.674V102.187C177.45 102.319 177.203 102.443 176.935 102.561C176.671 102.678 176.383 102.78 176.07 102.868C175.758 102.956 175.421 103.024 175.06 103.073C174.703 103.127 174.325 103.154 173.924 103.154C173.25 103.154 172.657 103.081 172.145 102.934C171.637 102.788 171.212 102.585 170.87 102.326C170.528 102.067 170.27 101.765 170.094 101.418C169.923 101.066 169.837 100.686 169.837 100.275ZM172.123 100.202C172.123 100.344 172.159 100.48 172.232 100.612C172.306 100.739 172.423 100.854 172.584 100.957C172.745 101.054 172.95 101.135 173.199 101.198C173.453 101.257 173.758 101.286 174.115 101.286C174.496 101.286 174.864 101.252 175.221 101.184C175.577 101.115 175.909 101.025 176.217 100.913C176.524 100.8 176.803 100.671 177.052 100.524C177.301 100.378 177.508 100.227 177.674 100.07V99.6895C177.342 99.5967 177.013 99.5186 176.686 99.4551C176.363 99.3916 176.053 99.3428 175.755 99.3086C175.462 99.2695 175.184 99.2427 174.92 99.228C174.662 99.2134 174.435 99.2061 174.239 99.2061C173.834 99.2061 173.497 99.2329 173.229 99.2866C172.96 99.3403 172.743 99.4136 172.577 99.5063C172.411 99.5942 172.293 99.6992 172.225 99.8213C172.157 99.9434 172.123 100.07 172.123 100.202ZM182.713 94.3574H184.881V95.6025C185.36 95.2461 185.865 94.9385 186.397 94.6797C186.93 94.4209 187.459 94.2231 187.987 94.0864L188.624 96.0713C187.789 96.1543 187.054 96.3423 186.419 96.6353C185.79 96.9233 185.277 97.3311 184.881 97.8584V103H182.713V94.3574ZM191.546 95.9834H189.459V94.3574H191.546V91.6694H193.714V94.3574H195.802V95.9834H193.714V103H191.546V95.9834Z" fill="#747E99"/>
<path d="M21.6562 47.8438H3.625V39.1562H49.5938V47.8438H31.5625V88H21.6562V47.8438ZM59.0312 51.125H68.2812V56.4375C70.3229 54.9167 72.4792 53.6042 74.75 52.5C77.0208 51.3958 79.2812 50.5521 81.5312 49.9688L84.25 58.4375C80.6875 58.7917 77.5521 59.5938 74.8438 60.8438C72.1562 62.0729 69.9688 63.8125 68.2812 66.0625V88H59.0312V51.125ZM89.4062 76.375C89.4062 74.6042 89.7917 72.9896 90.5625 71.5312C91.3333 70.0729 92.4896 68.8229 94.0312 67.7812C95.5729 66.7188 97.4896 65.9062 99.7812 65.3438C102.094 64.7604 104.781 64.4688 107.844 64.4688C110.115 64.4688 112.5 64.6354 115 64.9688C117.521 65.3021 120.115 65.8125 122.781 66.5C122.677 65.3333 122.323 64.2604 121.719 63.2812C121.115 62.2812 120.271 61.4271 119.188 60.7188C118.125 59.9896 116.833 59.4271 115.312 59.0312C113.812 58.6354 112.104 58.4375 110.188 58.4375C109.146 58.4375 108 58.5 106.75 58.625C105.5 58.75 104.208 58.9375 102.875 59.1875C101.542 59.4375 100.219 59.75 98.9062 60.125C97.6146 60.5 96.4062 60.9479 95.2812 61.4688L92.4688 53.875C93.8646 53.375 95.3542 52.9167 96.9375 52.5C98.5417 52.0833 100.177 51.7292 101.844 51.4375C103.51 51.125 105.177 50.8854 106.844 50.7188C108.51 50.5521 110.125 50.4688 111.688 50.4688C118.583 50.4688 123.708 52.2292 127.062 55.75C130.417 59.2708 132.094 64.6667 132.094 71.9375V88H122.844V84.5312C121.885 85.0938 120.833 85.625 119.688 86.125C118.562 86.625 117.333 87.0625 116 87.4375C114.667 87.8125 113.229 88.1042 111.688 88.3125C110.167 88.5417 108.552 88.6562 106.844 88.6562C103.969 88.6562 101.438 88.3438 99.25 87.7188C97.0833 87.0938 95.2708 86.2292 93.8125 85.125C92.3542 84.0208 91.25 82.7292 90.5 81.25C89.7708 79.75 89.4062 78.125 89.4062 76.375ZM99.1562 76.0625C99.1562 76.6667 99.3125 77.25 99.625 77.8125C99.9375 78.3542 100.438 78.8438 101.125 79.2812C101.812 79.6979 102.688 80.0417 103.75 80.3125C104.833 80.5625 106.135 80.6875 107.656 80.6875C109.281 80.6875 110.854 80.5417 112.375 80.25C113.896 79.9583 115.312 79.5729 116.625 79.0938C117.938 78.6146 119.125 78.0625 120.188 77.4375C121.25 76.8125 122.135 76.1667 122.844 75.5V73.875C121.427 73.4792 120.021 73.1458 118.625 72.875C117.25 72.6042 115.927 72.3958 114.656 72.25C113.406 72.0833 112.219 71.9688 111.094 71.9062C109.99 71.8438 109.021 71.8125 108.188 71.8125C106.458 71.8125 105.021 71.9271 103.875 72.1562C102.729 72.3854 101.802 72.6979 101.094 73.0938C100.385 73.4688 99.8854 73.9167 99.5938 74.4375C99.3021 74.9583 99.1562 75.5 99.1562 76.0625ZM141.5 69.7188C141.5 66.7812 142.052 64.1354 143.156 61.7812C144.26 59.4062 145.781 57.3854 147.719 55.7188C149.677 54.0312 151.99 52.7396 154.656 51.8438C157.344 50.9271 160.25 50.4688 163.375 50.4688C164.708 50.4688 166.021 50.5521 167.312 50.7188C168.625 50.8854 169.875 51.1146 171.062 51.4062C172.271 51.6979 173.396 52.0521 174.438 52.4688C175.5 52.8646 176.438 53.3021 177.25 53.7812V36.1562H186.5V88H177.25V84.5312C176.438 85.0938 175.479 85.625 174.375 86.125C173.271 86.625 172.083 87.0625 170.812 87.4375C169.542 87.8125 168.219 88.1042 166.844 88.3125C165.49 88.5417 164.146 88.6562 162.812 88.6562C159.688 88.6562 156.812 88.1979 154.188 87.2812C151.583 86.3646 149.344 85.0729 147.469 83.4062C145.594 81.7396 144.125 79.75 143.062 77.4375C142.021 75.1042 141.5 72.5312 141.5 69.7188ZM151.219 69.7188C151.219 71.1979 151.51 72.5938 152.094 73.9062C152.698 75.2188 153.552 76.375 154.656 77.375C155.781 78.3542 157.125 79.1354 158.688 79.7188C160.271 80.2812 162.042 80.5625 164 80.5625C165.25 80.5625 166.5 80.4479 167.75 80.2188C169 79.9688 170.198 79.625 171.344 79.1875C172.51 78.75 173.594 78.2188 174.594 77.5938C175.615 76.9688 176.5 76.2708 177.25 75.5V62.7188C176.312 61.9688 175.323 61.3333 174.281 60.8125C173.24 60.2917 172.177 59.8646 171.094 59.5312C170.01 59.1979 168.917 58.9583 167.812 58.8125C166.708 58.6458 165.635 58.5625 164.594 58.5625C162.469 58.5625 160.573 58.8542 158.906 59.4375C157.26 60 155.865 60.7812 154.719 61.7812C153.594 62.7812 152.729 63.9583 152.125 65.3125C151.521 66.6667 151.219 68.1354 151.219 69.7188ZM219.094 51.125H228.344V54.25C230.802 52.8542 233.146 51.875 235.375 51.3125C237.625 50.75 239.823 50.4688 241.969 50.4688C244.781 50.4688 247.385 50.8854 249.781 51.7188C252.177 52.5312 254.25 53.75 256 55.375C257.75 57 259.115 59.0312 260.094 61.4688C261.094 63.8854 261.594 66.6875 261.594 69.875V88H252.375V71.375C252.375 69.3542 252.083 67.5521 251.5 65.9688C250.938 64.3646 250.115 63.0208 249.031 61.9375C247.969 60.8333 246.667 60 245.125 59.4375C243.604 58.8542 241.896 58.5625 240 58.5625C239 58.5625 237.969 58.6667 236.906 58.875C235.865 59.0833 234.833 59.3854 233.812 59.7812C232.812 60.1562 231.844 60.6354 230.906 61.2188C229.969 61.7812 229.115 62.4271 228.344 63.1562V88H219.094V51.125ZM278.75 94.25C279.917 94.6667 281.104 95.0104 282.312 95.2812C283.521 95.5729 284.688 95.8021 285.812 95.9688C286.958 96.1562 288.052 96.2812 289.094 96.3438C290.135 96.4271 291.062 96.4688 291.875 96.4688C294.333 96.4688 296.469 96.1667 298.281 95.5625C300.115 94.9792 301.635 94.1875 302.844 93.1875C304.073 92.1875 304.99 91.0208 305.594 89.6875C306.198 88.375 306.5 86.9792 306.5 85.5V83.9062C305.708 84.4479 304.781 84.9688 303.719 85.4688C302.656 85.9688 301.49 86.4062 300.219 86.7812C298.948 87.1562 297.594 87.4583 296.156 87.6875C294.74 87.9167 293.271 88.0312 291.75 88.0312C288.729 88.0312 285.938 87.5833 283.375 86.6875C280.812 85.7708 278.594 84.5 276.719 82.875C274.844 81.2292 273.375 79.2604 272.312 76.9688C271.271 74.6771 270.75 72.1354 270.75 69.3438C270.75 66.4896 271.302 63.9062 272.406 61.5938C273.51 59.2604 275.031 57.2708 276.969 55.625C278.927 53.9792 281.24 52.7083 283.906 51.8125C286.573 50.9167 289.469 50.4688 292.594 50.4688C293.927 50.4688 295.25 50.5521 296.562 50.7188C297.875 50.8854 299.125 51.1146 300.312 51.4062C301.521 51.6979 302.646 52.0521 303.688 52.4688C304.75 52.8646 305.688 53.3021 306.5 53.7812V51.125H315.75V83.7812C315.75 87.1354 315.24 90.1042 314.219 92.6875C313.198 95.2708 311.698 97.4375 309.719 99.1875C307.76 100.958 305.323 102.292 302.406 103.188C299.49 104.104 296.146 104.562 292.375 104.562C291.021 104.562 289.615 104.5 288.156 104.375C286.698 104.271 285.229 104.104 283.75 103.875C282.292 103.667 280.844 103.406 279.406 103.094C277.99 102.802 276.625 102.458 275.312 102.062L278.75 94.25ZM280.469 69.25C280.469 70.7292 280.76 72.125 281.344 73.4375C281.948 74.7292 282.802 75.8646 283.906 76.8438C285.01 77.8021 286.344 78.5625 287.906 79.125C289.469 79.6667 291.229 79.9375 293.188 79.9375C294.458 79.9375 295.719 79.8229 296.969 79.5938C298.24 79.3438 299.448 79 300.594 78.5625C301.76 78.125 302.844 77.5938 303.844 76.9688C304.865 76.3438 305.75 75.6458 306.5 74.875V62.7188C305.562 61.9688 304.573 61.3333 303.531 60.8125C302.49 60.2917 301.427 59.8646 300.344 59.5312C299.26 59.1979 298.167 58.9583 297.062 58.8125C295.958 58.6458 294.885 58.5625 293.844 58.5625C291.719 58.5625 289.823 58.8438 288.156 59.4062C286.51 59.9688 285.115 60.7396 283.969 61.7188C282.844 62.6771 281.979 63.8021 281.375 65.0938C280.771 66.3854 280.469 67.7708 280.469 69.25Z" fill="#485461"/>
<path d="M65.2031 34.2891C65.2031 32.0859 65.6172 30.1016 66.4453 28.3359C67.2734 26.5547 68.4141 25.0391 69.8672 23.7891C71.3359 22.5234 73.0703 21.5547 75.0703 20.8828C77.0859 20.1953 79.2656 19.8516 81.6094 19.8516C82.6094 19.8516 83.5938 19.9141 84.5625 20.0391C85.5469 20.1641 86.4844 20.3359 87.375 20.5547C88.2812 20.7734 89.125 21.0391 89.9062 21.3516C90.7031 21.6484 91.4062 21.9766 92.0156 22.3359V9.11719H98.9531V48H92.0156V45.3984C91.4062 45.8203 90.6875 46.2188 89.8594 46.5938C89.0312 46.9688 88.1406 47.2969 87.1875 47.5781C86.2344 47.8594 85.2422 48.0781 84.2109 48.2344C83.1953 48.4062 82.1875 48.4922 81.1875 48.4922C78.8438 48.4922 76.6875 48.1484 74.7188 47.4609C72.7656 46.7734 71.0859 45.8047 69.6797 44.5547C68.2734 43.3047 67.1719 41.8125 66.375 40.0781C65.5938 38.3281 65.2031 36.3984 65.2031 34.2891ZM72.4922 34.2891C72.4922 35.3984 72.7109 36.4453 73.1484 37.4297C73.6016 38.4141 74.2422 39.2812 75.0703 40.0312C75.9141 40.7656 76.9219 41.3516 78.0938 41.7891C79.2812 42.2109 80.6094 42.4219 82.0781 42.4219C83.0156 42.4219 83.9531 42.3359 84.8906 42.1641C85.8281 41.9766 86.7266 41.7188 87.5859 41.3906C88.4609 41.0625 89.2734 40.6641 90.0234 40.1953C90.7891 39.7266 91.4531 39.2031 92.0156 38.625V29.0391C91.3125 28.4766 90.5703 28 89.7891 27.6094C89.0078 27.2188 88.2109 26.8984 87.3984 26.6484C86.5859 26.3984 85.7656 26.2188 84.9375 26.1094C84.1094 25.9844 83.3047 25.9219 82.5234 25.9219C80.9297 25.9219 79.5078 26.1406 78.2578 26.5781C77.0234 27 75.9766 27.5859 75.1172 28.3359C74.2734 29.0859 73.625 29.9688 73.1719 30.9844C72.7188 32 72.4922 33.1016 72.4922 34.2891ZM106.148 39.2812C106.148 37.9531 106.438 36.7422 107.016 35.6484C107.594 34.5547 108.461 33.6172 109.617 32.8359C110.773 32.0391 112.211 31.4297 113.93 31.0078C115.664 30.5703 117.68 30.3516 119.977 30.3516C121.68 30.3516 123.469 30.4766 125.344 30.7266C127.234 30.9766 129.18 31.3594 131.18 31.875C131.102 31 130.836 30.1953 130.383 29.4609C129.93 28.7109 129.297 28.0703 128.484 27.5391C127.688 26.9922 126.719 26.5703 125.578 26.2734C124.453 25.9766 123.172 25.8281 121.734 25.8281C120.953 25.8281 120.094 25.875 119.156 25.9688C118.219 26.0625 117.25 26.2031 116.25 26.3906C115.25 26.5781 114.258 26.8125 113.273 27.0938C112.305 27.375 111.398 27.7109 110.555 28.1016L108.445 22.4062C109.492 22.0312 110.609 21.6875 111.797 21.375C113 21.0625 114.227 20.7969 115.477 20.5781C116.727 20.3438 117.977 20.1641 119.227 20.0391C120.477 19.9141 121.688 19.8516 122.859 19.8516C128.031 19.8516 131.875 21.1719 134.391 23.8125C136.906 26.4531 138.164 30.5 138.164 35.9531V48H131.227V45.3984C130.508 45.8203 129.719 46.2188 128.859 46.5938C128.016 46.9688 127.094 47.2969 126.094 47.5781C125.094 47.8594 124.016 48.0781 122.859 48.2344C121.719 48.4062 120.508 48.4922 119.227 48.4922C117.07 48.4922 115.172 48.2578 113.531 47.7891C111.906 47.3203 110.547 46.6719 109.453 45.8438C108.359 45.0156 107.531 44.0469 106.969 42.9375C106.422 41.8125 106.148 40.5938 106.148 39.2812ZM113.461 39.0469C113.461 39.5 113.578 39.9375 113.812 40.3594C114.047 40.7656 114.422 41.1328 114.938 41.4609C115.453 41.7734 116.109 42.0312 116.906 42.2344C117.719 42.4219 118.695 42.5156 119.836 42.5156C121.055 42.5156 122.234 42.4062 123.375 42.1875C124.516 41.9688 125.578 41.6797 126.562 41.3203C127.547 40.9609 128.438 40.5469 129.234 40.0781C130.031 39.6094 130.695 39.125 131.227 38.625V37.4062C130.164 37.1094 129.109 36.8594 128.062 36.6562C127.031 36.4531 126.039 36.2969 125.086 36.1875C124.148 36.0625 123.258 35.9766 122.414 35.9297C121.586 35.8828 120.859 35.8594 120.234 35.8594C118.938 35.8594 117.859 35.9453 117 36.1172C116.141 36.2891 115.445 36.5234 114.914 36.8203C114.383 37.1016 114.008 37.4375 113.789 37.8281C113.57 38.2188 113.461 38.625 113.461 39.0469ZM143.531 20.3203H151.57L158.766 36.9609L160.641 41.625L162.516 36.9609L169.711 20.3203H177.75L164.648 48H156.633L143.531 20.3203Z" fill="#747E99"/>
<path d="M200.294 2V16.4H196.765C195 16.4 195 20 195 20V80C195.156 83.182 195.841 83.7548 197.647 83.6H200.294V98H204.706V83.6H208.235C209.752 82.8389 209.951 81.905 210 80V20C209.921 18.288 210 16.4 208.235 16.4H204.706V2H200.294Z" fill="#747E99" stroke="#747E99" stroke-width="3"/>
</g>
<defs>
<clipPath id="clip0_532_2">
<rect width="321" height="108" fill="white"/>
</clipPath>
</defs>
</svg>
