<svg width="208" height="208" viewBox="0 0 208 208" fill="none" xmlns="http://www.w3.org/2000/svg">
<g clip-path="url(#clip0_101_7)">
<path d="M104 208C161.438 208 208 161.438 208 104C208 46.5624 161.438 0 104 0C46.5624 0 0 46.5624 0 104C0 161.438 46.5624 208 104 208Z" fill="#E34F26"/>
<path d="M23 127V80.4545H55.7273V90.6364H35.6364V98.6364H53.7273V108.818H35.6364V127H23ZM60.375 127V80.4545H93.9205V90.6364H73.0114V98.6364H92.1932V108.818H73.0114V116.818H93.8295V127H60.375ZM125.278 95C125.157 93.4848 124.589 92.303 123.574 91.4545C122.574 90.6061 121.051 90.1818 119.006 90.1818C117.703 90.1818 116.634 90.3409 115.801 90.6591C114.983 90.9621 114.377 91.3788 113.983 91.9091C113.589 92.4394 113.384 93.0455 113.369 93.7273C113.339 94.2879 113.438 94.7955 113.665 95.25C113.907 95.6894 114.286 96.0909 114.801 96.4545C115.316 96.803 115.975 97.1212 116.778 97.4091C117.581 97.697 118.536 97.9545 119.642 98.1818L123.46 99C126.036 99.5455 128.241 100.265 130.074 101.159C131.907 102.053 133.407 103.106 134.574 104.318C135.741 105.515 136.597 106.864 137.142 108.364C137.703 109.864 137.991 111.5 138.006 113.273C137.991 116.333 137.225 118.924 135.71 121.045C134.195 123.167 132.028 124.78 129.21 125.886C126.407 126.992 123.036 127.545 119.097 127.545C115.051 127.545 111.521 126.947 108.506 125.75C105.506 124.553 103.172 122.712 101.506 120.227C99.8542 117.727 99.0208 114.53 99.0057 110.636H111.006C111.081 112.061 111.438 113.258 112.074 114.227C112.71 115.197 113.604 115.932 114.756 116.432C115.922 116.932 117.309 117.182 118.915 117.182C120.263 117.182 121.392 117.015 122.301 116.682C123.21 116.348 123.9 115.886 124.369 115.295C124.839 114.705 125.081 114.03 125.097 113.273C125.081 112.561 124.847 111.939 124.392 111.409C123.953 110.864 123.225 110.379 122.21 109.955C121.195 109.515 119.824 109.106 118.097 108.727L113.46 107.727C109.339 106.833 106.089 105.341 103.71 103.25C101.347 101.144 100.172 98.2727 100.188 94.6364C100.172 91.6818 100.96 89.0985 102.551 86.8864C104.157 84.6591 106.377 82.9242 109.21 81.6818C112.059 80.4394 115.324 79.8182 119.006 79.8182C122.763 79.8182 126.013 80.447 128.756 81.7045C131.498 82.9621 133.612 84.7348 135.097 87.0227C136.597 89.2955 137.354 91.9545 137.369 95H125.278ZM186.267 97.9091H173.449C173.358 96.8485 173.116 95.8864 172.722 95.0227C172.343 94.1591 171.813 93.4167 171.131 92.7955C170.464 92.1591 169.653 91.6742 168.699 91.3409C167.744 90.9924 166.661 90.8182 165.449 90.8182C163.328 90.8182 161.532 91.3333 160.062 92.3636C158.608 93.3939 157.502 94.8712 156.744 96.7955C156.002 98.7197 155.631 101.03 155.631 103.727C155.631 106.576 156.009 108.962 156.767 110.886C157.54 112.795 158.653 114.235 160.108 115.205C161.563 116.159 163.313 116.636 165.358 116.636C166.525 116.636 167.57 116.492 168.494 116.205C169.419 115.902 170.222 115.47 170.903 114.909C171.585 114.348 172.138 113.674 172.562 112.886C173.002 112.083 173.297 111.182 173.449 110.182L186.267 110.273C186.116 112.242 185.563 114.25 184.608 116.295C183.653 118.326 182.297 120.205 180.54 121.932C178.797 123.644 176.638 125.023 174.062 126.068C171.487 127.114 168.494 127.636 165.085 127.636C160.812 127.636 156.979 126.72 153.585 124.886C150.206 123.053 147.532 120.356 145.562 116.795C143.608 113.235 142.631 108.879 142.631 103.727C142.631 98.5455 143.631 94.1818 145.631 90.6364C147.631 87.0758 150.328 84.3864 153.722 82.5682C157.116 80.7348 160.903 79.8182 165.085 79.8182C168.025 79.8182 170.729 80.2197 173.199 81.0227C175.669 81.8258 177.835 83 179.699 84.5455C181.563 86.0758 183.063 87.9621 184.199 90.2045C185.335 92.447 186.025 95.0152 186.267 97.9091Z" fill="black"/>
</g>
<defs>
<clipPath id="clip0_101_7">
<rect width="208" height="208" fill="white"/>
</clipPath>
</defs>
</svg>
