<svg width="576" height="297" viewBox="0 0 576 297" fill="none" xmlns="http://www.w3.org/2000/svg">
<g clip-path="url(#clip0_2_8)" filter="url(#filter0_d_2_8)">
<path d="M152.96 154.152C152.96 160.104 153.504 163.08 154.592 163.08C155.04 163.08 155.616 162.568 156.32 161.544C157.344 159.816 158.528 157.512 159.872 154.632C165.632 142.408 168.512 129.768 168.512 116.712C168.512 113.512 168.384 110.696 168.128 108.264C167.872 105.768 167.744 104.392 167.744 104.136C167.744 101.768 168.64 100.584 170.432 100.584C171.584 100.584 172.448 101.608 173.024 103.656C174.368 108.776 175.04 114.536 175.04 120.936C175.04 136.552 170.496 152.328 161.408 168.264C159.488 171.528 157.312 173.16 154.88 173.16C153.472 173.16 152.064 172.52 150.656 171.24C146.624 167.528 144.608 161.896 144.608 154.344C144.608 142.312 147.36 129.384 152.864 115.56C153.12 114.92 153.248 114.408 153.248 114.024C153.248 113.064 152.864 112.584 152.096 112.584C151.712 112.584 151.168 112.84 150.464 113.352C149.76 113.8 149.184 114.344 148.736 114.984C148.352 115.56 147.936 116.264 147.488 117.096C147.04 117.928 146.688 118.536 146.432 118.92C142.784 123.912 139.904 127.016 137.792 128.232C136.832 128.744 135.84 129 134.816 129C133.856 129 132.8 128.424 131.648 127.272C130.56 126.12 130.016 125.096 130.016 124.2C130.016 123.304 130.208 122.344 130.592 121.32C132.96 116.136 138.368 110.952 146.816 105.768C148.352 104.808 150.208 104.328 152.384 104.328C154.56 104.328 156.512 105.256 158.24 107.112C159.968 108.904 160.832 111.144 160.832 113.832C160.832 115.368 160.672 116.68 160.352 117.768C160.032 118.792 159.584 120.232 159.008 122.088C158.496 123.944 158.144 125.16 157.952 125.736C157.824 126.312 157.504 127.464 156.992 129.192C156.544 130.856 156.224 132.04 156.032 132.744C155.904 133.448 155.648 134.568 155.264 136.104C154.88 137.64 154.592 138.856 154.4 139.752C154.272 140.648 154.08 141.8 153.824 143.208C153.632 144.616 153.504 145.832 153.44 146.856C153.12 150.056 152.96 152.488 152.96 154.152ZM203.479 159.528C203.479 169.256 198.551 174.12 188.695 174.12C184.599 174.12 181.591 173.064 179.671 170.952C177.815 168.84 176.183 165.608 174.775 161.256C174.263 159.592 174.007 157.832 174.007 155.976C174.007 154.056 174.839 151.528 176.503 148.392C178.231 145.192 180.119 142.408 182.167 140.04C182.423 136.52 183.223 134.76 184.567 134.76C185.271 134.76 185.751 135.176 186.007 136.008C187.351 134.792 188.983 133.608 190.903 132.456C192.823 131.304 194.551 130.728 196.087 130.728C197.623 130.728 199.191 131.624 200.791 133.416C202.455 135.208 203.287 137.064 203.287 138.984C203.287 140.84 201.975 143.4 199.351 146.664C194.423 152.808 190.551 155.88 187.735 155.88C185.687 155.88 184.087 154.184 182.935 150.792C182.871 150.92 182.551 151.464 181.975 152.424C181.463 153.32 181.079 153.992 180.823 154.44C180.631 154.888 180.343 155.496 179.959 156.264C179.319 157.736 178.999 159.048 178.999 160.2C178.999 162.824 180.311 164.136 182.935 164.136C187.287 164.136 190.967 163.24 193.975 161.448C197.047 159.592 200.087 156.808 203.095 153.096C203.351 155.912 203.479 158.056 203.479 159.528ZM187.831 147.912C188.855 147.912 190.359 146.664 192.343 144.168C194.391 141.672 195.415 139.976 195.415 139.08C195.415 138.12 195.063 137.64 194.359 137.64C193.719 137.64 192.567 138.472 190.903 140.136C189.303 141.8 188.023 143.24 187.063 144.456C186.935 145.224 186.871 145.8 186.871 146.184C186.871 147.336 187.191 147.912 187.831 147.912ZM239.087 150.888C239.087 154.024 238.927 156.744 238.607 159.048C238.287 161.352 237.135 164.456 235.151 168.36C233.167 172.2 231.215 174.12 229.295 174.12C228.463 174.12 227.663 173.672 226.895 172.776C223.119 168.232 221.231 163.912 221.231 159.816C221.231 158.6 221.647 155.816 222.479 151.464C223.631 144.936 224.207 141.32 224.207 140.616C224.207 139.848 224.079 139.464 223.823 139.464C223.631 139.464 223.407 139.72 223.151 140.232C221.487 143.176 220.143 146.536 219.119 150.312C218.095 154.024 217.423 157.16 217.103 159.72C216.783 162.28 216.431 165.864 216.047 170.472C216.047 172.072 215.631 172.872 214.799 172.872C214.415 172.872 213.775 172.52 212.879 171.816C209.423 168.872 207.695 164.84 207.695 159.72C207.695 157.544 207.887 154.536 208.271 150.696C208.719 146.856 208.975 144.2 209.039 142.728C209.743 133.832 210.607 129.384 211.631 129.384C212.207 129.384 212.623 130.024 212.879 131.304C213.135 132.52 213.263 133.928 213.263 135.528C213.263 137.064 213.295 138.472 213.359 139.752C213.487 141.032 213.743 141.672 214.127 141.672C214.511 141.672 215.055 140.648 215.759 138.6C216.463 136.552 217.487 134.504 218.831 132.456C220.239 130.344 221.743 129.288 223.343 129.288C224.943 129.288 226.351 129.64 227.567 130.344C230.319 131.752 231.695 134.696 231.695 139.176C231.695 140.712 231.503 142.6 231.119 144.84C230.735 147.08 230.383 149.544 230.063 152.232C229.807 154.856 229.679 156.36 229.679 156.744C229.679 157.064 229.807 157.224 230.063 157.224C230.575 157.224 231.855 155.944 233.903 153.384C236.015 150.824 237.455 149.544 238.223 149.544C238.799 149.544 239.087 149.992 239.087 150.888ZM262.375 129.576C264.359 129.576 265.351 130.856 265.351 133.416C265.351 134.696 264.935 135.656 264.103 136.296C262.055 138.152 258.535 139.432 253.543 140.136C252.903 146.216 252.583 151.272 252.583 155.304C252.583 159.336 252.871 161.352 253.447 161.352C253.831 161.352 255.175 160.328 257.479 158.28C259.783 156.232 261.063 155.208 261.319 155.208C262.407 155.208 262.951 156.872 262.951 160.2C262.951 163.464 262.343 166.696 261.127 169.896C259.911 173.096 258.183 174.696 255.943 174.696C254.983 174.696 254.023 174.376 253.063 173.736C252.103 173.032 251.367 172.36 250.855 171.72C250.407 171.016 249.735 169.992 248.839 168.648C248.007 167.304 247.495 166.504 247.303 166.248C245.575 163.88 244.615 161.544 244.423 159.24C244.295 156.872 244.231 154.12 244.231 150.984C244.231 147.848 244.423 144.456 244.807 140.808C242.823 140.744 241.159 140.04 239.815 138.696C238.535 137.352 237.543 135.752 236.839 133.896C236.071 131.976 235.687 130.888 235.687 130.632C235.687 129.8 236.167 129.384 237.127 129.384L246.343 129.96C246.663 127.976 247.175 125.224 247.879 121.704C248.967 116.584 249.511 113.608 249.511 112.776L249.319 110.952C249.319 109.928 249.895 109.416 251.047 109.416C252.199 109.416 253.607 109.992 255.271 111.144C256.935 112.296 257.767 113.384 257.767 114.408C257.767 114.856 257.543 115.752 257.095 117.096C256.519 119.144 255.751 123.432 254.791 129.96L262.375 129.576ZM287.58 159.528C282.332 168.936 278.332 173.64 275.58 173.64C273.596 173.64 271.804 172.424 270.204 169.992C269.756 169.352 269.276 168.36 268.764 167.016C268.252 165.608 267.612 164.328 266.844 163.176C266.14 162.024 265.788 160.488 265.788 158.568C265.788 156.584 266.172 154.824 266.94 153.288C272.188 142.92 277.724 135.816 283.548 131.976C284.316 131.4 285.212 131.112 286.236 131.112C287.26 131.112 288.54 131.688 290.076 132.84C290.972 133.736 291.516 134.504 291.708 135.144C292.028 136.552 292.188 137.416 292.188 137.736C294.428 138.504 295.548 139.912 295.548 141.96C295.548 143.368 295.164 146.568 294.396 151.56C293.628 156.488 293.18 160.168 293.052 162.6C293.052 163.944 293.5 164.616 294.396 164.616C295.42 164.616 297.244 162.824 299.868 159.24C302.556 155.656 304.092 153.864 304.476 153.864C305.116 153.864 305.436 154.92 305.436 157.032L305.244 161.736C305.244 163.528 304.444 165.992 302.844 169.128C301.244 172.2 299.196 173.736 296.7 173.736C295.164 173.736 293.948 173.224 293.052 172.2C292.732 171.88 292.252 171.24 291.612 170.28C289.628 167.4 288.284 163.816 287.58 159.528ZM288.444 137.352C280.38 144.712 275.26 153.128 273.084 162.6C279.548 157.032 284.668 148.616 288.444 137.352ZM322.521 129.672C323.481 129.224 324.793 129 326.457 129C328.121 129 330.105 129.672 332.409 131.016C334.713 132.296 335.865 133.832 335.865 135.624C335.865 137.352 335.161 138.92 333.753 140.328C332.409 141.736 330.873 142.44 329.145 142.44C326.521 142.44 324.697 141.224 323.673 138.792C323.545 138.408 323.321 138.216 323.001 138.216C322.745 138.216 321.689 138.6 319.833 139.368C318.041 140.136 316.825 140.68 316.185 141C315.545 141.32 315.225 141.64 315.225 141.96C315.225 142.216 315.673 142.568 316.569 143.016C327.961 146.088 333.657 150.792 333.657 157.128C333.657 159.368 332.761 161.704 330.969 164.136C329.241 166.504 326.777 168.456 323.577 169.992C320.377 171.528 317.305 172.296 314.361 172.296C311.417 172.296 309.337 171.496 308.121 169.896C306.969 168.296 306.393 165.992 306.393 162.984C306.393 159.976 307.449 157.736 309.561 156.264C312.377 154.408 314.681 153.48 316.473 153.48C316.921 153.48 317.145 153.608 317.145 153.864C317.145 154.056 316.633 154.44 315.609 155.016C314.649 155.592 313.593 156.424 312.441 157.512C311.353 158.6 310.809 159.496 310.809 160.2C310.809 160.84 311.577 161.16 313.113 161.16C317.209 161.16 321.241 160.008 325.209 157.704C326.105 157.256 326.553 156.744 326.553 156.168C326.553 155.528 325.881 154.888 324.537 154.248C323.193 153.608 320.921 152.68 317.721 151.464C314.585 150.248 312.089 149.224 310.233 148.392C308.441 147.496 307.545 146.056 307.545 144.072C307.545 143.496 307.673 142.696 307.929 141.672C308.249 140.584 308.441 139.848 308.505 139.464C308.825 137.224 309.817 135.688 311.481 134.856C313.209 134.024 316.889 132.296 322.521 129.672ZM423.457 141.288C423.777 141.288 423.937 141.64 423.937 142.344C423.937 143.048 423.905 143.752 423.841 144.456C422.817 156.616 419.777 165.512 414.721 171.144C413.057 173 410.337 173.992 406.561 174.12C401.953 172.456 399.649 168.392 399.649 161.928C399.649 160.776 399.777 159.336 400.033 157.608C400.289 155.816 402.433 143.4 406.465 120.36C400.833 131.752 397.217 145.64 395.617 162.024C395.425 163.944 395.265 165.384 395.137 166.344C394.881 168.392 394.017 169.416 392.545 169.416C390.561 169.416 388.449 167.912 386.209 164.904C385.441 163.88 385.057 162.6 385.057 161.064C385.057 159.528 385.089 157.832 385.153 155.976C385.281 154.12 385.473 152.072 385.729 149.832C385.985 147.592 386.177 145.8 386.305 144.456C386.433 143.112 386.721 141.064 387.169 138.312C387.681 135.56 388.001 133.8 388.129 133.032C388.257 132.2 388.609 130.152 389.185 126.888C389.825 123.624 390.177 121.8 390.241 121.416C389.281 122.376 388.417 123.816 387.649 125.736C386.945 127.656 386.369 129.224 385.921 130.44C385.473 131.592 385.025 133 384.577 134.664C384.129 136.328 383.745 137.768 383.425 138.984C383.105 140.2 382.721 141.672 382.273 143.4C381.889 145.128 381.601 146.44 381.409 147.336C380.961 149 380.225 152.104 379.201 156.648C378.177 161.192 377.505 164.072 377.185 165.288C376.929 166.44 376.705 167.4 376.513 168.168C376.385 168.872 376.257 169.384 376.129 169.704C376.065 169.96 375.905 170.344 375.649 170.856C375.137 171.752 374.305 172.2 373.153 172.2C372.065 172.2 371.105 171.816 370.273 171.048C369.505 170.216 368.993 169.512 368.737 168.936C368.481 168.296 368.129 167.432 367.681 166.344C367.297 165.192 367.105 164.296 367.105 163.656C367.105 163.016 367.297 161.896 367.681 160.296C368.065 158.696 368.513 156.712 369.025 154.344C369.601 151.976 369.953 150.472 370.081 149.832C370.273 149.128 370.593 147.688 371.041 145.512C371.553 143.336 371.905 141.8 372.097 140.904C372.289 140.008 372.577 138.6 372.961 136.68C373.345 134.696 373.633 133.16 373.825 132.072C374.017 130.92 374.273 129.48 374.593 127.752C374.913 125.96 375.169 124.392 375.361 123.048C376.001 118.824 376.385 115.88 376.513 114.216V113.544C376.513 112.392 376.257 111.816 375.745 111.816C375.233 111.816 374.401 112.712 373.249 114.504C372.097 116.296 371.297 117.672 370.849 118.632C370.401 119.592 370.081 120.904 369.889 122.568C368.993 131.464 366.689 138.696 362.977 144.264C362.529 144.904 361.825 145.224 360.865 145.224C359.905 145.224 358.881 144.712 357.793 143.688C356.769 142.664 356.257 141.608 356.257 140.52C356.257 133.992 358.465 126.44 362.881 117.864C364.609 114.6 366.017 109.768 367.105 103.368C368.833 105.928 369.889 107.624 370.273 108.456C370.721 109.288 371.201 109.704 371.713 109.704C371.969 109.704 372.545 109.32 373.441 108.552C374.337 107.784 375.649 107.4 377.377 107.4C379.169 107.4 380.609 107.848 381.697 108.744C382.785 109.64 383.457 110.664 383.713 111.816C384.033 112.968 384.257 114.696 384.385 117C384.769 116.68 385.441 116.072 386.401 115.176C388.449 113.384 390.241 112.488 391.777 112.488C393.377 112.488 394.785 113.352 396.001 115.08C397.281 116.744 397.857 118.472 397.729 120.264C398.497 119.368 399.905 117.16 401.953 113.64C403.425 111.336 405.377 110.184 407.809 110.184C411.841 110.184 413.857 112.008 413.857 115.656C413.857 117.32 413.089 121.928 411.553 129.48C410.017 137.032 408.897 143.272 408.193 148.2C407.489 153.064 407.137 157.672 407.137 162.024V163.848C409.249 162.056 411.297 159.816 413.281 157.128C415.329 154.376 416.833 152.2 417.793 150.6C418.753 148.936 420.257 146.28 422.305 142.632C422.881 141.736 423.265 141.288 423.457 141.288ZM443.602 106.152C443.602 108.264 442.706 111.208 440.914 114.984C439.122 118.696 437.426 121.384 435.826 123.048C435.57 123.432 435.186 123.624 434.674 123.624C433.074 123.624 432.274 122.344 432.274 119.784C432.274 117.224 433.394 113.64 435.634 109.032C436.082 108.072 436.37 107.08 436.498 106.056C436.626 105.032 436.69 104.456 436.69 104.328C436.754 104.136 436.786 104.008 436.786 103.944C436.85 103.816 436.882 103.688 436.882 103.56C436.946 103.368 436.978 103.24 436.978 103.176C437.042 103.048 437.106 102.952 437.17 102.888C437.234 102.76 437.298 102.664 437.362 102.6C437.554 102.472 438.066 102.408 438.898 102.408C439.73 102.408 440.722 102.76 441.874 103.464C443.026 104.168 443.602 105.064 443.602 106.152ZM444.562 148.776C445.266 147.688 445.746 147.144 446.002 147.144C446.322 147.144 446.546 147.944 446.674 149.544C446.866 151.144 446.962 153.288 446.962 155.976C446.962 158.6 446.322 161.448 445.042 164.52C443.826 167.528 442.034 169.96 439.666 171.816C438.322 172.84 437.074 173.352 435.922 173.352C434.834 173.352 433.906 173.128 433.138 172.68C432.434 172.168 431.794 171.368 431.218 170.28C430.258 168.744 429.298 166.76 428.338 164.328C427.442 161.896 426.994 159.272 426.994 156.456C426.994 153.64 427.218 150.792 427.666 147.912C428.114 145.032 428.338 143.112 428.338 142.152C428.338 141.128 427.826 139.848 426.802 138.312C425.778 136.712 425.266 135.752 425.266 135.432C425.266 135.112 425.362 134.792 425.554 134.472C425.81 134.088 426.098 133.736 426.418 133.416C426.802 133.032 427.154 132.712 427.474 132.456C427.858 132.2 428.274 131.88 428.722 131.496C430.194 130.28 431.538 129.672 432.754 129.672C433.97 129.672 435.026 130.088 435.922 130.92C436.882 131.752 437.33 133.192 437.266 135.24C437.266 137.288 436.786 141.16 435.826 146.856C434.61 154.152 434.002 158.344 434.002 159.432C434.002 160.52 434.29 161.064 434.866 161.064C436.146 161.064 439.378 156.968 444.562 148.776ZM195.839 246.696C195.839 255.016 192.639 262.536 186.239 269.256C184.895 270.664 183.039 271.368 180.671 271.368C176.831 271.368 173.663 270.408 171.167 268.488C166.559 264.968 164.255 257.928 164.255 247.368C164.255 240.392 165.663 233.032 168.479 225.288C171.295 217.544 174.879 210.472 179.231 204.072C179.871 203.304 180.351 202.92 180.671 202.92C180.991 202.92 181.343 203.016 181.727 203.208C182.175 203.4 182.623 203.624 183.071 203.88C183.583 204.136 183.935 204.296 184.127 204.36V201.48C183.743 200.712 183.551 200.04 183.551 199.464C183.551 198.888 183.807 198.6 184.319 198.6C184.831 198.6 185.375 198.696 185.951 198.888C191.583 200.808 194.399 205.416 194.399 212.712C194.399 216.872 193.343 221.128 191.231 225.48C190.655 226.632 190.143 227.208 189.695 227.208C189.375 227.208 188.895 226.696 188.255 225.672C186.207 221.448 184.895 215.976 184.319 209.256C183.359 209.256 182.655 209.608 182.207 210.312C181.759 211.016 180.991 212.872 179.903 215.88C175.871 226.76 173.855 237.928 173.855 249.384C173.855 255.72 174.559 261.128 175.967 265.608C180.127 261.704 183.711 256.872 186.719 251.112C189.791 245.288 192.063 239.336 193.535 233.256C195.071 238.312 195.839 242.792 195.839 246.696ZM220.971 255.528C215.723 264.936 211.723 269.64 208.971 269.64C206.987 269.64 205.195 268.424 203.595 265.992C203.147 265.352 202.667 264.36 202.155 263.016C201.643 261.608 201.003 260.328 200.235 259.176C199.531 258.024 199.179 256.488 199.179 254.568C199.179 252.584 199.563 250.824 200.331 249.288C205.579 238.92 211.115 231.816 216.939 227.976C217.707 227.4 218.603 227.112 219.627 227.112C220.651 227.112 221.931 227.688 223.467 228.84C224.363 229.736 224.907 230.504 225.099 231.144C225.419 232.552 225.579 233.416 225.579 233.736C227.819 234.504 228.939 235.912 228.939 237.96C228.939 239.368 228.555 242.568 227.787 247.56C227.019 252.488 226.571 256.168 226.443 258.6C226.443 259.944 226.891 260.616 227.787 260.616C228.811 260.616 230.635 258.824 233.259 255.24C235.947 251.656 237.483 249.864 237.867 249.864C238.507 249.864 238.827 250.92 238.827 253.032L238.635 257.736C238.635 259.528 237.835 261.992 236.235 265.128C234.635 268.2 232.587 269.736 230.091 269.736C228.555 269.736 227.339 269.224 226.443 268.2C226.123 267.88 225.643 267.24 225.003 266.28C223.019 263.4 221.675 259.816 220.971 255.528ZM221.835 233.352C213.771 240.712 208.651 249.128 206.475 258.6C212.939 253.032 218.059 244.616 221.835 233.352ZM255.912 225.672C256.872 225.224 258.184 225 259.848 225C261.512 225 263.496 225.672 265.8 227.016C268.104 228.296 269.256 229.832 269.256 231.624C269.256 233.352 268.552 234.92 267.144 236.328C265.8 237.736 264.264 238.44 262.536 238.44C259.912 238.44 258.088 237.224 257.064 234.792C256.936 234.408 256.712 234.216 256.392 234.216C256.136 234.216 255.08 234.6 253.224 235.368C251.432 236.136 250.216 236.68 249.576 237C248.936 237.32 248.616 237.64 248.616 237.96C248.616 238.216 249.064 238.568 249.96 239.016C261.352 242.088 267.048 246.792 267.048 253.128C267.048 255.368 266.152 257.704 264.36 260.136C262.632 262.504 260.168 264.456 256.968 265.992C253.768 267.528 250.696 268.296 247.752 268.296C244.808 268.296 242.728 267.496 241.512 265.896C240.36 264.296 239.784 261.992 239.784 258.984C239.784 255.976 240.84 253.736 242.952 252.264C245.768 250.408 248.072 249.48 249.864 249.48C250.312 249.48 250.536 249.608 250.536 249.864C250.536 250.056 250.024 250.44 249 251.016C248.04 251.592 246.984 252.424 245.832 253.512C244.744 254.6 244.2 255.496 244.2 256.2C244.2 256.84 244.968 257.16 246.504 257.16C250.6 257.16 254.632 256.008 258.6 253.704C259.496 253.256 259.944 252.744 259.944 252.168C259.944 251.528 259.272 250.888 257.928 250.248C256.584 249.608 254.312 248.68 251.112 247.464C247.976 246.248 245.48 245.224 243.624 244.392C241.832 243.496 240.936 242.056 240.936 240.072C240.936 239.496 241.064 238.696 241.32 237.672C241.64 236.584 241.832 235.848 241.896 235.464C242.216 233.224 243.208 231.688 244.872 230.856C246.6 230.024 250.28 228.296 255.912 225.672ZM292.033 255.528C286.785 264.936 282.785 269.64 280.033 269.64C278.049 269.64 276.257 268.424 274.657 265.992C274.209 265.352 273.729 264.36 273.217 263.016C272.705 261.608 272.065 260.328 271.297 259.176C270.593 258.024 270.241 256.488 270.241 254.568C270.241 252.584 270.625 250.824 271.393 249.288C276.641 238.92 282.177 231.816 288.001 227.976C288.769 227.4 289.665 227.112 290.689 227.112C291.713 227.112 292.993 227.688 294.529 228.84C295.425 229.736 295.969 230.504 296.161 231.144C296.481 232.552 296.641 233.416 296.641 233.736C298.881 234.504 300.001 235.912 300.001 237.96C300.001 239.368 299.617 242.568 298.849 247.56C298.081 252.488 297.633 256.168 297.505 258.6C297.505 259.944 297.953 260.616 298.849 260.616C299.873 260.616 301.697 258.824 304.321 255.24C307.009 251.656 308.545 249.864 308.929 249.864C309.569 249.864 309.889 250.92 309.889 253.032L309.697 257.736C309.697 259.528 308.897 261.992 307.297 265.128C305.697 268.2 303.649 269.736 301.153 269.736C299.617 269.736 298.401 269.224 297.505 268.2C297.185 267.88 296.705 267.24 296.065 266.28C294.081 263.4 292.737 259.816 292.033 255.528ZM292.897 233.352C284.833 240.712 279.713 249.128 277.537 258.6C284.001 253.032 289.121 244.616 292.897 233.352ZM378.925 198.408C383.085 198.408 385.165 199.112 385.165 200.52C385.165 201.096 384.877 201.896 384.301 202.92C376.429 216.68 371.469 232.04 369.421 249C368.717 254.504 368.365 258.344 368.365 260.52C368.365 261.608 368.749 262.152 369.517 262.152C369.773 262.152 369.997 261.832 370.189 261.192C370.381 260.552 370.573 260.232 370.765 260.232C371.213 260.232 371.821 260.968 372.589 262.44C373.421 263.848 373.837 264.904 373.837 265.608C373.837 267.464 372.333 271.688 369.325 278.28C368.237 280.776 367.053 282.024 365.773 282.024C365.517 282.024 365.133 281.896 364.621 281.64C361.933 280.04 360.589 275.752 360.589 268.776C360.589 261.736 361.549 252.264 363.469 240.36C362.957 241 362.061 242.248 360.781 244.104C359.501 245.896 358.413 247.336 357.517 248.424C356.685 249.448 355.597 250.6 354.253 251.88C351.629 254.504 348.877 255.816 345.997 255.816C343.117 255.816 340.717 254.792 338.797 252.744C338.221 252.104 337.325 250.568 336.109 248.136C334.957 245.64 334.381 242.984 334.381 240.168C334.381 237.288 335.021 234.28 336.301 231.144C337.645 228.008 338.989 225.256 340.333 222.888C341.677 220.456 342.829 218.472 343.789 216.936C345.581 214.312 348.365 210.248 352.141 204.744C352.525 204.104 352.717 203.592 352.717 203.208C352.717 202.312 351.949 201.864 350.413 201.864C348.941 201.864 347.565 202.152 346.285 202.728C345.005 203.304 344.269 203.72 344.077 203.976C343.885 204.232 343.725 204.68 343.597 205.32L343.693 206.568C343.693 208.04 343.117 209.352 341.965 210.504C340.877 211.592 339.693 212.616 338.413 213.576C337.133 214.472 335.693 214.92 334.093 214.92C332.493 214.92 331.373 214.792 330.733 214.536C330.157 214.216 329.709 213.736 329.389 213.096C329.005 212.2 328.812 210.792 328.812 208.872C328.812 206.952 329.549 205.48 331.021 204.456C331.213 204.328 332.109 203.752 333.709 202.728C335.309 201.64 336.333 200.936 336.781 200.616C337.293 200.296 338.253 199.752 339.661 198.984C341.133 198.152 342.285 197.608 343.117 197.352C345.805 196.392 348.237 195.912 350.413 195.912C352.653 195.912 354.765 196.744 356.749 198.408C358.733 200.008 359.725 202.152 359.725 204.84C359.725 206.568 359.149 208.712 357.997 211.272C356.909 213.768 354.701 217.48 351.373 222.408C348.109 227.272 345.997 230.504 345.037 232.104C342.541 236.648 341.293 240.168 341.293 242.664C341.293 245.16 341.869 246.408 343.021 246.408C344.109 246.408 345.677 245.512 347.725 243.72C349.773 241.864 351.341 240.328 352.429 239.112C353.517 237.896 354.797 236.232 356.269 234.12C357.805 232.008 358.893 230.408 359.533 229.32C360.237 228.232 361.325 226.472 362.797 224.04C364.269 221.608 365.421 219.72 366.253 218.376C369.773 212.424 372.621 207.4 374.797 203.304C374.669 202.664 374.605 202.12 374.605 201.672C374.605 199.496 376.045 198.408 378.925 198.408ZM398.252 255.528C393.004 264.936 389.004 269.64 386.252 269.64C384.268 269.64 382.476 268.424 380.876 265.992C380.428 265.352 379.948 264.36 379.436 263.016C378.924 261.608 378.284 260.328 377.516 259.176C376.812 258.024 376.46 256.488 376.46 254.568C376.46 252.584 376.844 250.824 377.612 249.288C382.86 238.92 388.396 231.816 394.22 227.976C394.988 227.4 395.884 227.112 396.908 227.112C397.932 227.112 399.212 227.688 400.748 228.84C401.644 229.736 402.188 230.504 402.38 231.144C402.7 232.552 402.86 233.416 402.86 233.736C405.1 234.504 406.22 235.912 406.22 237.96C406.22 239.368 405.836 242.568 405.068 247.56C404.3 252.488 403.852 256.168 403.724 258.6C403.724 259.944 404.172 260.616 405.068 260.616C406.092 260.616 407.916 258.824 410.54 255.24C413.228 251.656 414.764 249.864 415.148 249.864C415.788 249.864 416.108 250.92 416.108 253.032L415.916 257.736C415.916 259.528 415.116 261.992 413.516 265.128C411.916 268.2 409.868 269.736 407.372 269.736C405.836 269.736 404.62 269.224 403.724 268.2C403.404 267.88 402.924 267.24 402.284 266.28C400.3 263.4 398.956 259.816 398.252 255.528ZM399.116 233.352C391.052 240.712 385.932 249.128 383.756 258.6C390.22 253.032 395.34 244.616 399.116 233.352Z" fill="#2962FF"/>
<path d="M46 151.5C46 151.5 110.5 277 112 282.5C113.5 288 106 288 98.5 288H92H81C77.6597 287.789 76.607 286.73 72.5 282.5C46.7254 232.708 31.2746 204.792 5.5 155C5.5 155 4 151.5 4 147.5C4 143.5 9.99997 138.5 9.99997 138.5L273.5 5C273.5 5 282 0 286.5 0C291 0 301.5 5 301.5 5L417 63C419.584 63.9365 422 63 422 63C422 63 424.5 62 425.5 61C426.5 60 426.579 52.6005 428.5 51C431.5 48.5 435.5 47.5 435.5 47.5H443H480.5C485.5 47.5 489.5 51 489.5 51C489.5 51 493.982 53.0946 494 58.5C494.018 63.9054 494 95 494 97C494 99 499 101.5 499 101.5L506 106L565 138.5C569.724 140.111 571 146.5 571 146.5C571 146.5 572.621 149.899 571 154.5C546.686 202.254 506 282.5 506 282.5C506 282.5 504.5 288 494 288C483.5 288 486.921 288.155 481.5 288H471C467.276 288.002 465 286 466 282.5C467 279 530 158 531.5 154.5C533 151 531.5 146.5 531.5 146.5C531.5 146.5 529.974 141.765 526.5 138.5C526.5 138.5 311 32 301.5 28L292 24C292 24 286.5 21.5 273.5 28L50 140C50 140 46.898 142.327 46 144.5C44.9559 147.026 46 151.5 46 151.5Z" fill="#E7562E"/>
</g>
<defs>
<filter id="filter0_d_2_8" x="0" y="0" width="576" height="297" filterUnits="userSpaceOnUse" color-interpolation-filters="sRGB">
<feFlood flood-opacity="0" result="BackgroundImageFix"/>
<feColorMatrix in="SourceAlpha" type="matrix" values="0 0 0 0 0 0 0 0 0 0 0 0 0 0 0 0 0 0 127 0" result="hardAlpha"/>
<feOffset dy="4"/>
<feGaussianBlur stdDeviation="2"/>
<feComposite in2="hardAlpha" operator="out"/>
<feColorMatrix type="matrix" values="0 0 0 0 0 0 0 0 0 0 0 0 0 0 0 0 0 0 0.25 0"/>
<feBlend mode="normal" in2="BackgroundImageFix" result="effect1_dropShadow_2_8"/>
<feBlend mode="normal" in="SourceGraphic" in2="effect1_dropShadow_2_8" result="shape"/>
</filter>
<clipPath id="clip0_2_8">
<rect width="568" height="289" fill="white" transform="translate(4)"/>
</clipPath>
</defs>
</svg>
